<svg aria-hidden="true" style="position: absolute; width: 0; height: 0; overflow: hidden;" version="1.1"
    xmlns="http://www.w3.org/2000/svg" xmlns:xlink="http://www.w3.org/1999/xlink">
    <defs>
        <symbol id="icon-accountants" viewBox="0 0 24 24">
            <path fill="#D6B1FF" style="fill: var(--icon-lavender, #D6B1FF)"
                d="M21 24H12C11.7348 24 11.4804 23.8946 11.2929 23.7071C11.1054 23.5196 11 23.2652 11 23V21C11 20.7348 11.1054 20.4804 11.2929 20.2929C11.4804 20.1054 11.7348 20 12 20H21C21.2652 20 21.5196 20.1054 21.7071 20.2929C21.8946 20.4804 22 20.7348 22 21V23C22 23.2652 21.8946 23.5196 21.7071 23.7071C21.5196 23.8946 21.2652 24 21 24Z">
            </path>
            <path fill="#11B5E4" style="fill: var(--icon-blue, #11B5E4)"
                d="M21 0H3C2.73478 0 2.48043 0.105356 2.29289 0.292892C2.10536 0.480429 2 0.734784 2 1V3C2 3.26522 2.10536 3.51957 2.29289 3.70711C2.48043 3.89464 2.73478 4 3 4H21C21.2652 4 21.5196 3.89464 21.7071 3.70711C21.8946 3.51957 22 3.26522 22 3V1C22 0.734784 21.8946 0.480429 21.7071 0.292892C21.5196 0.105356 21.2652 0 21 0Z">
            </path>
            <path fill="#11B5E4" style="fill: var(--icon-blue, #11B5E4)"
                d="M21 6H3C2.73478 6 2.48043 6.10536 2.29289 6.29289C2.10536 6.48043 2 6.73478 2 7V17C2 17.2652 2.10536 17.5196 2.29289 17.7071C2.48043 17.8946 2.73478 18 3 18H21C21.2652 18 21.5196 17.8946 21.7071 17.7071C21.8946 17.5196 22 17.2652 22 17V7C22 6.73478 21.8946 6.48043 21.7071 6.29289C21.5196 6.10536 21.2652 6 21 6Z">
            </path>
        </symbol>
        <symbol id="icon-airbnb" viewBox="0 0 159 50">
            <path fill="#FF385C"
                d="M45.5801 35.4363C45.3306 34.8269 45.0968 34.1863 44.8474 33.6394L43.6939 31.03L43.6471 30.9831C40.2177 23.4831 36.5545 15.8581 32.673 8.35813L32.5171 8.04563C32.1274 7.31125 31.7377 6.49875 31.3324 5.74875C30.8336 4.85813 30.3503 3.905 29.5553 2.99875C28.7804 2.05052 27.8051 1.28655 26.6999 0.761964C25.5947 0.237381 24.3871 -0.034729 23.1642 -0.034729C21.9413 -0.034729 20.7337 0.237381 19.6284 0.761964C18.5232 1.28655 17.5479 2.05052 16.773 2.99875C16.0403 3.905 15.4948 4.85813 14.9959 5.74875C14.6062 6.56125 14.2165 7.35813 13.8112 8.0925L13.6554 8.405C9.83623 15.905 6.11065 23.53 2.68123 31.03L2.5877 31.1238C2.24476 31.9363 1.83947 32.78 1.44976 33.6863C1.20035 34.2331 0.95094 34.8269 0.701529 35.4831C0.0281678 37.2015 -0.186858 39.0662 0.0776443 40.8933C0.342146 42.7203 1.07705 44.4468 2.20992 45.9025C3.34279 47.3582 4.83452 48.4929 6.53811 49.1948C8.2417 49.8966 10.0983 50.1414 11.9251 49.905C13.6763 49.6739 15.3627 49.0892 16.8821 48.1863C18.9086 47.0456 20.8571 45.3894 23.0395 42.9988C25.2218 45.3894 27.2171 47.0456 29.1968 48.2019C31.1006 49.322 33.2565 49.9402 35.4633 49.9988C38.0187 50.0094 40.4918 49.0929 42.4257 47.4186C44.3597 45.7443 45.6241 43.4252 45.9853 40.8894C46.4029 39.0672 46.2616 37.161 45.5801 35.4206V35.4363ZM23.1954 38.03C20.5142 34.5925 18.7683 31.4363 18.1759 28.7331C17.9305 27.7315 17.8776 26.6921 18.0201 25.6706C18.1292 24.8738 18.4254 24.1706 18.8306 23.5769C19.7659 22.2175 21.4027 21.3738 23.1954 21.3738C24.0467 21.3477 24.8911 21.5339 25.653 21.9157C26.4148 22.2975 27.0701 22.8629 27.5601 23.5613C27.9654 24.1863 28.2615 24.8738 28.3551 25.6706C28.5109 26.5769 28.4486 27.6238 28.1992 28.7331C27.6068 31.3894 25.8609 34.5769 23.1954 38.03ZM43.0548 40.3425C42.8777 41.6299 42.3671 42.8483 41.5739 43.8764C40.7808 44.9044 39.7327 45.7062 38.5342 46.2019C37.3495 46.7019 36.0401 46.8425 34.7618 46.7019C33.5148 46.5456 32.2677 46.1394 30.9895 45.3894C28.8671 44.0745 26.9587 42.4409 25.3309 40.5456C28.6045 36.4831 30.5842 32.78 31.3324 29.4831C31.6909 27.9206 31.7377 26.5144 31.5818 25.2175C31.3872 23.9883 30.9299 22.8157 30.2412 21.78C29.455 20.657 28.4055 19.7448 27.185 19.1236C25.9646 18.5024 24.6106 18.1912 23.2421 18.2175C20.3583 18.2175 17.7862 19.5613 16.2274 21.7644C15.5257 22.7974 15.0722 23.9794 14.9024 25.2175C14.6998 26.53 14.7465 27.9831 15.1518 29.4831C15.9001 32.78 17.9265 36.53 21.1533 40.5769C19.5531 42.5084 17.6403 44.1564 15.4948 45.4519C14.2009 46.2019 12.9695 46.5925 11.7224 46.7488C9.78305 46.9978 7.82402 46.4694 6.27114 45.2786C4.71826 44.0878 3.69705 42.3308 3.42947 40.3894C3.27359 39.1394 3.3827 37.8894 3.88153 36.4831C4.03741 35.9831 4.27123 35.4831 4.52065 34.8894C4.86359 34.0769 5.26888 33.2331 5.65859 32.3894L5.72094 32.28C9.088 24.8269 12.7668 17.2175 16.5859 9.76438L16.7418 9.45188C17.1315 8.70188 17.5212 7.905 17.9265 7.155C18.3318 6.35813 18.7683 5.5925 19.3295 4.9675C19.8152 4.38629 20.4222 3.91887 21.1076 3.59815C21.793 3.27744 22.5402 3.11124 23.2967 3.11124C24.0531 3.11124 24.8003 3.27744 25.4858 3.59815C26.1712 3.91887 26.7781 4.38629 27.2639 4.9675C27.8095 5.5925 28.2615 6.35813 28.6668 7.155C29.0565 7.905 29.4462 8.7175 29.8515 9.45188L30.0074 9.76438C33.8109 17.2175 37.4898 24.8269 40.9192 32.28L40.9659 32.3269C41.3712 33.1394 41.7142 34.0456 42.1039 34.8269C42.3533 35.4363 42.6027 35.9206 42.7586 36.4363C43.0548 37.8425 43.2106 39.0925 43.0548 40.3425ZM64.7536 37.6863C63.5789 37.7035 62.4155 37.4554 61.3496 36.9604C60.2837 36.4654 59.3426 35.7362 58.5962 34.8269C56.919 32.8893 56.0289 30.3911 56.1021 27.8269C56.0765 25.2069 56.9953 22.6657 58.6898 20.6706C59.4735 19.7497 60.4492 19.0122 61.548 18.5101C62.6469 18.008 63.8422 17.7534 65.0498 17.7644C66.186 17.7332 67.3116 17.9922 68.3205 18.517C69.3294 19.0418 70.1887 19.8152 70.8174 20.7644L70.9733 18.3113H75.525V37.1863H70.9577L70.8018 34.4363C70.1536 35.4498 69.2577 36.2804 68.1991 36.8492C67.1405 37.418 65.9545 37.7062 64.7536 37.6863ZM65.9383 33.1863C66.8424 33.1863 67.6374 32.9363 68.3856 32.4831C69.0715 31.9831 69.6327 31.3269 70.0692 30.53C70.4589 29.7331 70.6615 28.78 70.6615 27.7175C70.7223 26.7947 70.5431 25.8719 70.1414 25.0393C69.7398 24.2067 69.1294 23.4928 68.37 22.9675C67.6404 22.5118 66.798 22.2703 65.9383 22.2703C65.0786 22.2703 64.2362 22.5118 63.5065 22.9675C62.8206 23.4675 62.2595 24.1238 61.823 24.9206C61.4108 25.7994 61.208 26.7623 61.2306 27.7331C61.1699 28.6559 61.3491 29.5788 61.7507 30.4114C62.1524 31.244 62.7627 31.9578 63.5221 32.4831C64.2548 32.9363 65.0498 33.1863 65.9383 33.1863ZM83.3192 13.2175C83.3192 13.7644 83.2256 14.2644 82.9762 14.6706C82.7268 15.0613 82.3839 15.4206 81.9318 15.6706C81.4798 15.9206 80.9965 16.0144 80.4977 16.0144C79.9989 16.0144 79.5 15.9206 79.048 15.6706C78.6205 15.4321 78.2609 15.0878 78.0036 14.6706C77.7622 14.2255 77.6438 13.7239 77.6606 13.2175C77.6606 12.655 77.7698 12.155 78.0036 11.7644C78.253 11.2956 78.6115 11.0144 79.048 10.7644C79.5 10.5144 79.9833 10.405 80.4977 10.405C80.9939 10.3935 81.4846 10.5113 81.9217 10.7469C82.3589 10.9824 82.7276 11.3276 82.9918 11.7488C83.2187 12.2043 83.331 12.7085 83.3192 13.2175ZM78.0192 37.1238V18.28H82.9762V37.155H78.0036L78.0192 37.1238ZM96.2262 23.2175V23.28C95.9924 23.1706 95.6806 23.1238 95.4468 23.0769C95.135 23.0144 94.8856 23.0144 94.5895 23.0144C93.2021 23.0144 92.1577 23.4206 91.4718 24.2644C90.7236 25.1238 90.3806 26.3269 90.3806 27.8738V37.1394H85.408V18.2644H89.9753L90.1312 21.1238C90.63 20.1238 91.2224 19.3738 92.0642 18.8113C92.9015 18.2647 93.8872 17.9918 94.8856 18.03C95.2442 18.03 95.5871 18.0613 95.8833 18.1238C96.0392 18.1706 96.1327 18.1706 96.2262 18.2175V23.2175ZM98.2215 37.1238V10.53H103.179V20.6863C103.88 19.78 104.675 19.0769 105.673 18.53C107.252 17.7538 109.046 17.5336 110.766 17.905C112.485 18.2764 114.03 19.2176 115.15 20.5769C116.831 22.5184 117.722 25.023 117.644 27.5925C117.67 30.2125 116.751 32.7537 115.057 34.7488C114.273 35.6697 113.297 36.4071 112.199 36.9093C111.1 37.4114 109.904 37.6659 108.697 37.655C107.561 37.6862 106.435 37.4272 105.426 36.9024C104.417 36.3776 103.558 35.6042 102.929 34.655L102.773 37.1081L98.2215 37.155V37.1238ZM107.808 33.1863C108.697 33.1863 109.492 32.9363 110.24 32.4831C110.926 31.9831 111.487 31.3269 111.924 30.53C112.329 29.7331 112.516 28.78 112.516 27.7175C112.516 26.6706 112.329 25.7175 111.924 24.9206C111.514 24.1522 110.939 23.485 110.24 22.9675C109.51 22.5118 108.668 22.2703 107.808 22.2703C106.949 22.2703 106.106 22.5118 105.377 22.9675C104.675 23.4675 104.129 24.1238 103.677 24.9206C103.265 25.7994 103.062 26.7623 103.085 27.7331C103.024 28.6559 103.203 29.5788 103.605 30.4114C104.007 31.244 104.617 31.9578 105.377 32.4831C106.109 32.9363 106.904 33.1863 107.808 33.1863ZM119.515 37.1394V18.2644H124.082L124.238 20.7175C124.812 19.7772 125.626 19.0076 126.597 18.4884C127.567 17.9692 128.658 17.7193 129.757 17.7644C131.013 17.7426 132.248 18.0927 133.307 18.7708C134.366 19.4489 135.203 20.425 135.711 21.5769C136.257 22.7644 136.553 24.2331 136.553 25.8738V37.1863H131.58V26.53C131.58 25.2175 131.284 24.1863 130.692 23.4206C130.099 22.6706 129.289 22.2644 128.26 22.2644C127.512 22.2644 126.857 22.4206 126.28 22.7644C125.735 23.1238 125.283 23.5769 124.94 24.2175C124.593 24.8651 124.421 25.5922 124.441 26.3269V37.1394H119.515ZM139.032 37.1394V10.5144H144.004V20.6706C144.678 19.7593 145.554 19.0179 146.563 18.5053C147.572 17.9927 148.687 17.723 149.819 17.7175C150.993 17.7003 152.157 17.9484 153.223 18.4434C154.288 18.9384 155.23 19.6676 155.976 20.5769C157.645 22.5183 158.529 25.0152 158.454 27.5769C158.482 30.1971 157.562 32.7388 155.867 34.7331C155.083 35.654 154.107 36.3915 153.009 36.8936C151.91 37.3958 150.714 37.6503 149.507 37.6394C148.371 37.6706 147.245 37.4116 146.236 36.8868C145.227 36.362 144.368 35.5886 143.739 34.6394L143.599 37.0925L139.032 37.1394ZM148.665 33.1863C149.569 33.1863 150.364 32.9363 151.097 32.4831C151.798 31.9831 152.344 31.3269 152.796 30.53C153.186 29.7331 153.388 28.78 153.388 27.7175C153.449 26.7947 153.27 25.8719 152.868 25.0393C152.467 24.2067 151.856 23.4928 151.097 22.9675C150.367 22.5118 149.525 22.2703 148.665 22.2703C147.805 22.2703 146.963 22.5118 146.233 22.9675C145.547 23.4675 144.986 24.1238 144.55 24.9206C144.115 25.7916 143.911 26.7602 143.957 27.7331C143.897 28.6559 144.076 29.5788 144.477 30.4114C144.879 31.244 145.49 31.9578 146.249 32.4831C146.982 32.9363 147.73 33.1863 148.665 33.1863Z">
            </path>
        </symbol>
        <symbol id="icon-entrepreneur" viewBox="0 0 24 24">
            <path fill="#D6B1FF" style="fill: var(--icon-lavender, #D6B1FF)"
                d="M18 10H24L21 6L18 10ZM18 14H24L21 18L18 14Z">
            </path>
            <path fill="#02897A" style="fill: var(--icon-green, #02897A)"
                d="M1 0H7V24H1C0.734784 24 0.480429 23.8946 0.292892 23.7071C0.105356 23.5196 0 23.2652 0 23V1C0 0.734784 0.105356 0.480429 0.292892 0.292892C0.480429 0.105356 0.734784 0 1 0Z">
            </path>
            <path fill="#02897A" style="fill: var(--icon-green, #02897A)"
                d="M9 0H15C15.2652 0 15.5196 0.105356 15.7071 0.292892C15.8946 0.480429 16 0.734784 16 1V23C16 23.2652 15.8946 23.5196 15.7071 23.7071C15.5196 23.8946 15.2652 24 15 24H9V0Z">
            </path>
        </symbol>
        <symbol id="icon-design" viewBox="0 0 28 28">
            <path fill="#4d8dff" style="fill: var(--icon-light-blue, #4D8DFF)"
                d="M9.806 0h8.258c5.416 0 9.806 4.391 9.806 9.806v8.258c0 5.416-4.39 9.806-9.806 9.806h-8.258c-5.416 0-9.806-4.39-9.806-9.806v-8.258c0-5.416 4.391-9.806 9.806-9.806z">
            </path>
            <path fill="#fff" style="fill: var(--icon-white, #FFFFFF)"
                d="M14.184 13.235l0.604 0.281 0.899-0.267v-0.627c0-1.065-0.899-1.917-1.972-1.917-1.069 0-1.972 0.848-1.972 1.903v2.857c0 0.263-0.212 0.47-0.47 0.47s-0.47-0.207-0.47-0.47v-1.207h-1.512c0 1.212 0 1.226 0 1.226 0 1.092 0.885 1.977 1.977 1.977 1.083 0 1.977-0.871 1.977-1.949v-2.82c0-0.258 0.212-0.47 0.47-0.47s0.47 0.212 0.47 0.47v0.544zM16.627 14.258v1.267c0 0.258-0.212 0.465-0.47 0.465s-0.47-0.207-0.47-0.465v-1.244l-0.899 0.267-0.604-0.281v1.235c0 1.083 0.889 1.959 1.977 1.959 1.092 0 1.977-0.885 1.977-1.977 0 0 0-0.014 0-1.226h-1.512z">
            </path>
        </symbol>
        <symbol id="icon-click" viewBox="0 0 32 32">
            <path fill="#02897a" style="fill: var(--icon-green, #02897A)"
                d="M12.16 0h7.68c6.716 0 12.16 5.444 12.16 12.16v7.68c0 6.716-5.444 12.16-12.16 12.16h-7.68c-6.716 0-12.16-5.444-12.16-12.16v-7.68c0-6.716 5.444-12.16 12.16-12.16z" />
            <path fill="#fff" style="fill: var(--icon-white, #FFFFFF)"
                d="M18.634 17.023l-5.851-5.851c-0.069-0.074-0.16-0.109-0.257-0.109-0.046 0-0.097 0.011-0.137 0.029-0.137 0.057-0.229 0.189-0.229 0.337v8.594c0 0.149 0.091 0.28 0.229 0.337 0.04 0.017 0.091 0.029 0.137 0.029 0.097 0 0.189-0.04 0.257-0.109l1.783-1.783 1.091 2.583c0.08 0.183 0.291 0.274 0.48 0.194l1.011-0.429c0.183-0.08 0.274-0.291 0.194-0.48l-1.149-2.72h2.183c0.149 0 0.28-0.091 0.337-0.229 0.057-0.131 0.029-0.291-0.08-0.394z" />
        </symbol>
        <symbol id="icon-facebook" viewBox="0 0 32 32">
            <path fill="none" stroke="currentColor" style="stroke: var(--social-icon, currentColor)"
                stroke-linejoin="round" stroke-linecap="round" stroke-miterlimit="4" stroke-width="2.6667"
                d="M24 2.667h-4c-1.768 0-3.464 0.702-4.714 1.953s-1.953 2.946-1.953 4.714v4h-4v5.333h4v10.667h5.333v-10.667h4l1.333-5.333h-5.333v-4c0-0.354 0.141-0.693 0.391-0.943s0.589-0.391 0.943-0.391h4v-5.333z">
            </path>
        </symbol>
        <symbol id="icon-fedex" viewBox="0 0 140 42">
            <path fill="#FF6600"
                d="M104.109 40.743L115.785 27.8118L104.109 14.8788H116.428L122.211 21.1608L127.779 14.8788H139.668L128.048 27.7584L139.828 40.743H127.458L121.728 34.4094L116.052 40.743H104.109Z">
            </path>
            <path fill="#FF6600"
                d="M104.109 9.081H90.886V14.8788H104.109V23.6166H90.886V31.6368H104.109V40.743H81.167V0H104.109V9.081Z">
            </path>
            <path fill="#652C8F"
                d="M71.4889 0V16.674H71.3824C69.2397 14.2464 66.5627 13.4028 63.4565 13.4028C57.0938 13.4028 52.301 17.6664 50.6185 23.3034C48.6999 17.0922 43.7518 13.2864 36.4146 13.2864C30.4561 13.2864 25.7509 15.9228 23.2954 20.2188V14.8794H10.979V9.0822H24.4197V0H0V40.7436H10.979V23.6166H21.9222C21.5959 24.8748 21.4218 26.2218 21.4218 27.6432C21.4218 36.1422 28.0085 42.1056 36.4146 42.1056C43.4834 42.1056 48.1417 38.8344 50.6057 32.8704H41.1971C39.9244 34.662 38.959 35.1942 36.4146 35.1942C33.4643 35.1942 30.9205 32.6568 30.9205 29.649H50.0786C50.9095 36.3996 56.2441 42.2214 63.5649 42.2214C66.7228 42.2214 69.6141 40.6902 71.3824 38.1048H71.4889V40.7424H81.1671V0H71.4889ZM31.2261 23.7384C31.8366 21.1506 33.8727 19.4592 36.4146 19.4592C39.2128 19.4592 41.1454 21.0984 41.6537 23.7384C41.8679 23.7384 31.2261 23.7384 31.2261 23.7384ZM65.6156 34.5396C62.048 34.5396 59.8311 31.263 59.8311 27.8418C59.8311 24.1848 61.7595 20.6682 65.6156 20.6682C69.6141 20.6682 71.207 24.1848 71.207 27.8418C71.2064 31.3098 69.5185 34.5396 65.6156 34.5396Z">
            </path>
        </symbol>
        <symbol id="icon-google" viewBox="0 0 146 50">
            <path fill="#EA4335"
                d="M62.1304 25.6412C62.1304 32.5814 56.7681 37.6956 50.1874 37.6956C43.6067 37.6956 38.2444 32.5814 38.2444 25.6412C38.2444 18.6521 43.6067 13.5869 50.1874 13.5869C56.7681 13.5869 62.1304 18.6521 62.1304 25.6412ZM56.9023 25.6412C56.9023 21.3043 53.7945 18.3369 50.1874 18.3369C46.5803 18.3369 43.4725 21.3043 43.4725 25.6412C43.4725 29.9347 46.5803 32.9456 50.1874 32.9456C53.7945 32.9456 56.9023 29.9293 56.9023 25.6412Z">
            </path>
            <path fill="#FBBC05"
                d="M87.8951 25.6412C87.8951 32.5814 82.5328 37.6956 75.952 37.6956C69.3713 37.6956 64.009 32.5814 64.009 25.6412C64.009 18.6575 69.3713 13.5869 75.952 13.5869C82.5328 13.5869 87.8951 18.6521 87.8951 25.6412ZM82.667 25.6412C82.667 21.3043 79.5591 18.3369 75.952 18.3369C72.345 18.3369 69.2371 21.3043 69.2371 25.6412C69.2371 29.9347 72.345 32.9456 75.952 32.9456C79.5591 32.9456 82.667 29.9293 82.667 25.6412Z">
            </path>
            <path fill="#4285F4"
                d="M112.586 14.3151V35.9564C112.586 44.8586 107.401 48.4945 101.271 48.4945C95.501 48.4945 92.0281 44.5869 90.7184 41.3912L95.2702 39.4727C96.0807 41.4347 98.0667 43.7499 101.266 43.7499C105.19 43.7499 107.621 41.2988 107.621 36.6847V34.951H107.439C106.268 36.413 104.014 37.6901 101.169 37.6901C95.2165 37.6901 89.7629 32.4401 89.7629 25.6847C89.7629 18.8804 95.2165 13.5869 101.169 13.5869C104.009 13.5869 106.263 14.8641 107.439 16.2825H107.621V14.3206H112.586V14.3151ZM107.991 25.6847C107.991 21.4401 105.195 18.3369 101.636 18.3369C98.0291 18.3369 95.0071 21.4401 95.0071 25.6847C95.0071 29.8858 98.0291 32.9456 101.636 32.9456C105.195 32.9456 107.991 29.8858 107.991 25.6847Z">
            </path>
            <path fill="#34A853" d="M120.772 1.6304V36.9565H115.673V1.6304H120.772Z"></path>
            <path fill="#EA4335"
                d="M140.643 29.6087L144.701 32.3478C143.391 34.3097 140.235 37.6902 134.782 37.6902C128.018 37.6902 122.968 32.3967 122.968 25.6358C122.968 18.4674 128.061 13.5815 134.197 13.5815C140.375 13.5815 143.397 18.5597 144.384 21.25L144.927 22.6195L129.012 29.2934C130.23 31.7119 132.125 32.9456 134.782 32.9456C137.444 32.9456 139.291 31.6195 140.643 29.6087ZM128.153 25.2717L138.791 20.7989C138.206 19.2934 136.446 18.2445 134.374 18.2445C131.717 18.2445 128.018 20.6195 128.153 25.2717Z">
            </path>
            <path fill="#4285F4"
                d="M18.9426 22.5054V17.3913H35.9634C36.1298 18.2826 36.2156 19.3369 36.2156 20.4782C36.2156 24.3152 35.1797 29.0597 31.841 32.4402C28.5936 35.8641 24.4444 37.6902 18.9479 37.6902C8.76012 37.6902 0.193359 29.288 0.193359 18.9728C0.193359 8.65757 8.76012 0.255402 18.9479 0.255402C24.5839 0.255402 28.5989 2.49453 31.6156 5.41301L28.0514 9.02171C25.8883 6.96736 22.9576 5.36953 18.9426 5.36953C11.503 5.36953 5.68446 11.4402 5.68446 18.9728C5.68446 26.5054 11.503 32.5761 18.9426 32.5761C23.7681 32.5761 26.5163 30.6141 28.2769 28.8315C29.7047 27.3858 30.644 25.3206 31.0144 22.5L18.9426 22.5054Z">
            </path>
        </symbol>
        <symbol id="icon-Group-190" viewBox="0 0 35 32">
            <path fill="#02bc6b"
                d="M2.71 29.802c-1.49 0-2.71-1.219-2.71-2.71v-9.473h6.821v-0.011h4.099c1.057-0.027 1.951-0.948 1.951-2.032 0-1.111-0.921-2.032-2.032-2.032l-10.839 0.002v-2.711c0-1.49 1.219-2.71 2.71-2.71h8.129c2.059 0 3.821 0.732 5.257 2.195 1.463 1.436 2.195 3.197 2.195 5.257 0 2.032-0.705 3.794-2.141 5.23s-3.17 2.195-5.203 2.222h-5.528v4.065c0 1.49-1.219 2.71-2.71 2.71z">
            </path>
            <path fill="#02897a"
                d="M21.706 4.98c2.994 2.908 4.502 6.529 4.502 10.646 0 4.048-1.445 7.666-4.393 10.583l-4.185-3.937c1.833-1.814 2.733-3.998 2.733-6.645 0-2.667-0.927-4.848-2.804-6.671l4.146-3.975z">
            </path>
            <path fill="#035b81"
                d="M28.113 0c4.312 4.305 6.482 9.643 6.482 15.77 0 6.031-2.082 11.366-6.323 15.68l-4.039-3.946c3.159-3.214 4.707-7.112 4.707-11.734 0-4.669-1.6-8.563-4.828-11.786l4.002-3.984z">
            </path>
            <path fill="#028e37" d="M0 23.051h5.419v4.042c0 1.49-1.219 2.71-2.71 2.71s-2.71-1.219-2.71-2.71v-4.042z">
            </path>
        </symbol>
        <symbol id="icon-heart" viewBox="0 0 32 32">
            <path fill="#740a76" style="fill: var(--icon-purple, #740A76)"
                d="M12.16 0h7.68c6.716 0 12.16 5.444 12.16 12.16v7.68c0 6.716-5.444 12.16-12.16 12.16h-7.68c-6.716 0-12.16-5.444-12.16-12.16v-7.68c0-6.716 5.444-12.16 12.16-12.16z">
            </path>
            <path fill="#fff" style="fill: var(--icon-white, #FFFFFF)"
                d="M16 21.211c0.091 0 0.183-0.034 0.251-0.103l3.56-3.429c0.051-0.051 1.309-1.2 1.309-2.571 0-1.674-1.023-2.674-2.731-2.674-1 0-1.937 0.789-2.389 1.234-0.451-0.446-1.389-1.234-2.389-1.234-1.709 0-2.731 1-2.731 2.674 0 1.371 1.257 2.52 1.303 2.56l3.566 3.44c0.069 0.069 0.16 0.103 0.251 0.103z">
            </path>
        </symbol>
        <symbol id="icon-instagram" viewBox="0 0 32 32">
            <path fill="none" stroke="currentColor" style="stroke: var(--social-icon, currentColor)"
                stroke-linejoin="round" stroke-linecap="round" stroke-miterlimit="4" stroke-width="2.6667"
                d="M22.667 2.667h-13.333c-3.682 0-6.667 2.985-6.667 6.667v13.333c0 3.682 2.985 6.667 6.667 6.667h13.333c3.682 0 6.667-2.985 6.667-6.667v-13.333c0-3.682-2.985-6.667-6.667-6.667z">
            </path>
            <path fill="none" stroke="currentColor" style="stroke: var(--social-icon, currentColor)"
                stroke-linejoin="round" stroke-linecap="round" stroke-miterlimit="4" stroke-width="2.6667"
                d="M21.334 15.16c0.165 1.11-0.025 2.243-0.542 3.239s-1.334 1.803-2.336 2.308c-1.002 0.504-2.138 0.68-3.245 0.502s-2.131-0.701-2.924-1.494c-0.793-0.793-1.316-1.816-1.494-2.924s-0.003-2.243 0.502-3.245c0.504-1.002 1.312-1.82 2.308-2.336s2.129-0.706 3.239-0.542c1.132 0.168 2.18 0.695 2.989 1.504s1.337 1.857 1.504 2.989z">
            </path>
            <path fill="none" stroke="currentColor" style="stroke: var(--social-icon, currentColor)"
                stroke-linejoin="round" stroke-linecap="round" stroke-miterlimit="4" stroke-width="2.6667"
                d="M23.333 8.667h0.013"></path>
        </symbol>
        <symbol id="icon-mail" viewBox="0 0 1920 1920">
            <path fill="#02897A" style="fill: var(--color-main, #02897A)" fill-rule="evenodd"
                d="M0 1694.235h1920V226H0v1468.235ZM112.941 376.664V338.94H1807.06v37.723L960 1111.233l-847.059-734.57ZM1807.06 526.198v950.513l-351.134-438.89-88.32 70.475 378.353 472.998H174.042l378.353-472.998-88.32-70.475-351.134 438.89V526.198L960 1260.768l847.059-734.57Z" />
        </symbol>
        <symbol id="icon-menu" viewBox="0 0 29 32">
            <path fill="none" stroke="#173a56" style="stroke: var(--menu-icon, #173A56)" stroke-linejoin="round"
                stroke-linecap="round" stroke-miterlimit="4" stroke-width="3.0968" d="M3.613 16h21.677"></path>
            <path fill="none" stroke="#173a56" style="stroke: var(--menu-icon, #173A56)" stroke-linejoin="round"
                stroke-linecap="round" stroke-miterlimit="4" stroke-width="3.0968" d="M3.613 8h21.677"></path>
            <path fill="none" stroke="#173a56" style="stroke: var(--menu-icon, #173A56)" stroke-linejoin="round"
                stroke-linecap="round" stroke-miterlimit="4" stroke-width="3.0968" d="M3.613 24h21.677"></path>
        </symbol>
        <symbol id="icon-microsoft" viewBox="0 0 213 44">
            <path fill="#737373"
                d="M75.1848 25.3426L73.9153 28.8217H73.8095C73.5979 28.0372 73.21 26.8434 72.5752 25.4108L65.7691 8.86818H59.104V35.2341H63.5121V18.9643C63.5121 17.941 63.5121 16.7814 63.4768 15.3488C63.4416 14.6325 63.3711 14.0868 63.3358 13.6775H63.4416C63.6532 14.7007 63.9 15.4511 64.0764 15.9286L72.2578 35.1658H75.3611L83.472 15.7581C83.6484 15.3147 83.8247 14.4279 84.001 13.6775H84.1068C84.001 15.6217 83.9305 17.3612 83.8952 18.4186V35.1317H88.5855V8.79996H82.1672L75.1848 25.3426ZM93.0288 16.2356H97.6133V35.1317H93.0288V16.2356ZM95.3563 8.25422C94.5805 8.25422 93.9457 8.52709 93.4168 9.00461C92.8878 9.48213 92.6057 10.0961 92.6057 10.8465C92.6057 11.5627 92.8878 12.1767 93.4168 12.6542C93.9457 13.1317 94.5805 13.3705 95.3563 13.3705C96.1321 13.3705 96.8022 13.0976 97.2959 12.6542C97.8249 12.1767 98.107 11.5627 98.107 10.8465C98.107 10.1302 97.8249 9.51624 97.2959 9.00461C96.8374 8.52709 96.1674 8.25422 95.3563 8.25422ZM113.87 16.0651C113.024 15.8945 112.142 15.7922 111.296 15.7922C109.215 15.7922 107.311 16.2356 105.724 17.1224C104.137 18.0093 102.868 19.2372 102.057 20.7721C101.21 22.341 100.787 24.1488 100.787 26.2294C100.787 28.0372 101.21 29.6403 102.021 31.1069C102.832 32.5395 103.961 33.6992 105.477 34.4837C106.923 35.2682 108.616 35.6775 110.52 35.6775C112.707 35.6775 114.576 35.2341 116.057 34.4155L116.092 34.3814V30.2883L115.916 30.4248C115.246 30.9023 114.47 31.3116 113.694 31.5503C112.883 31.8232 112.142 31.9596 111.508 31.9596C109.674 31.9596 108.228 31.448 107.205 30.3224C106.147 29.231 105.618 27.7302 105.618 25.8542C105.618 23.91 106.147 22.3752 107.241 21.2496C108.334 20.124 109.78 19.5441 111.543 19.5441C113.024 19.5441 114.54 20.0217 115.916 20.9767L116.092 21.1131V16.7814L116.057 16.7472C115.457 16.5085 114.787 16.2356 113.87 16.0651ZM128.999 15.9286C127.871 15.9286 126.813 16.2697 125.896 16.986C125.12 17.6 124.591 18.4868 124.132 19.5441H124.097V16.2356H119.513V35.1317H124.097V25.479C124.097 23.8418 124.45 22.4775 125.226 21.4883C126.002 20.4651 126.989 19.9534 128.188 19.9534C128.611 19.9534 129.034 20.0558 129.563 20.124C130.057 20.2604 130.41 20.3969 130.656 20.5674L130.833 20.7038V16.2697L130.727 16.2356C130.41 16.031 129.775 15.9286 128.999 15.9286ZM141.483 15.8263C138.274 15.8263 135.699 16.7472 133.901 18.555C132.067 20.3628 131.185 22.8527 131.185 25.9907C131.185 28.924 132.102 31.3116 133.866 33.0511C135.629 34.7565 138.027 35.6434 141.024 35.6434C144.163 35.6434 146.667 34.7224 148.465 32.8806C150.299 31.0387 151.181 28.5829 151.181 25.5472C151.181 22.5457 150.334 20.1581 148.606 18.4186C146.949 16.679 144.516 15.8263 141.483 15.8263ZM145.15 30.3565C144.304 31.4139 142.964 31.9255 141.306 31.9255C139.649 31.9255 138.309 31.4139 137.357 30.2883C136.405 29.231 135.946 27.6961 135.946 25.7519C135.946 23.7395 136.44 22.2046 137.357 21.1131C138.309 20.0217 139.614 19.4759 141.271 19.4759C142.893 19.4759 144.163 19.9876 145.08 21.0449C145.997 22.1023 146.49 23.6372 146.49 25.6496C146.42 27.6961 146.032 29.2992 145.15 30.3565ZM161.407 24.0806C159.962 23.5007 159.045 23.0573 158.622 22.6821C158.269 22.341 158.093 21.8635 158.093 21.2496C158.093 20.7379 158.304 20.2263 158.833 19.8852C159.362 19.5441 159.962 19.3736 160.843 19.3736C161.619 19.3736 162.43 19.51 163.206 19.7147C163.982 19.9193 164.687 20.2263 165.251 20.6356L165.428 20.7721V16.6108L165.322 16.5767C164.793 16.3721 164.088 16.1674 163.241 15.9969C162.395 15.8604 161.619 15.7922 160.984 15.7922C158.798 15.7922 156.999 16.3038 155.589 17.4294C154.178 18.4868 153.508 19.9193 153.508 21.5907C153.508 22.4775 153.649 23.262 153.967 23.91C154.284 24.5581 154.742 25.1721 155.377 25.6837C156.012 26.1612 156.929 26.7069 158.198 27.2186C159.256 27.662 160.067 28.0031 160.561 28.2759C161.055 28.5488 161.372 28.8558 161.619 29.0945C161.795 29.3674 161.901 29.7085 161.901 30.1519C161.901 31.4139 160.914 32.0279 158.904 32.0279C158.128 32.0279 157.317 31.8914 156.365 31.5845C155.412 31.2775 154.531 30.8341 153.79 30.3224L153.614 30.186V34.5178L153.72 34.5519C154.39 34.8589 155.201 35.0635 156.188 35.3023C157.176 35.4728 158.057 35.6093 158.833 35.6093C161.196 35.6093 163.135 35.0976 164.511 33.9721C165.921 32.8806 166.662 31.4821 166.662 29.6744C166.662 28.4124 166.309 27.2868 165.533 26.4341C164.511 25.6155 163.241 24.7628 161.407 24.0806ZM178.758 15.8263C175.549 15.8263 172.974 16.7472 171.176 18.555C169.377 20.3628 168.46 22.8527 168.46 25.9907C168.46 28.924 169.377 31.3116 171.141 33.0511C172.904 34.7565 175.302 35.6434 178.299 35.6434C181.438 35.6434 183.942 34.7224 185.74 32.8806C187.574 31.0387 188.456 28.5829 188.456 25.5472C188.456 22.5457 187.609 20.1581 185.881 18.4186C184.224 16.679 181.791 15.8263 178.758 15.8263ZM182.39 30.3565C181.544 31.4139 180.204 31.9255 178.546 31.9255C176.854 31.9255 175.549 31.4139 174.597 30.2883C173.644 29.231 173.186 27.6961 173.186 25.7519C173.186 23.7395 173.68 22.2046 174.597 21.1131C175.549 20.0217 176.854 19.4759 178.511 19.4759C180.098 19.4759 181.403 19.9876 182.32 21.0449C183.236 22.1023 183.73 23.6372 183.73 25.6496C183.73 27.6961 183.272 29.2992 182.39 30.3565ZM212.965 19.8852V16.2356H208.345V10.6418L208.204 10.6759L203.831 11.9379L203.725 11.9721V16.2356H196.813V13.848C196.813 12.7565 197.096 11.9038 197.589 11.3581C198.083 10.8124 198.824 10.5395 199.74 10.5395C200.375 10.5395 201.045 10.6759 201.786 10.9829L201.962 11.0852V7.23097L201.856 7.19686C201.222 6.99221 200.375 6.85577 199.282 6.85577C197.907 6.85577 196.708 7.16275 195.614 7.67438C194.521 8.25422 193.71 9.03872 193.111 10.0961C192.511 11.1193 192.194 12.279 192.194 13.6093V16.2356H188.985V19.8511H192.194V35.1317H196.813V19.8852H203.725V29.6062C203.725 33.5969 205.665 35.6093 209.544 35.6093C210.179 35.6093 210.849 35.5069 211.484 35.4046C212.154 35.2682 212.647 35.0976 212.93 34.9612L212.965 34.9271V31.2775L212.788 31.4139C212.506 31.5845 212.259 31.7209 211.836 31.8232C211.484 31.9255 211.166 31.9596 210.919 31.9596C210.003 31.9596 209.368 31.755 208.909 31.2434C208.486 30.7659 208.275 29.9814 208.275 28.8217V19.8852H212.965Z">
            </path>

            <path fill="#F25022" d="M0 0H21.6174V20.9085H0V0Z"></path>
            <path fill="#7FBA00" d="M23.8743 0H45.4917V20.9085H23.8743V0Z"></path>
            <path fill="#00A4EF" d="M0 23.0915H21.6174V44H0V23.0915Z"></path>
            <path fill="#FFB900" d="M23.8743 23.0915H45.4917V44H23.8743V23.0915Z">
            </path>
        </symbol>
        <symbol id="icon-play" viewBox="0 0 17 19">
            <path fill="#02897A" style="fill: var(--icon-green, #02897A)"
                d="M15.7225 8.20807C16.4758 8.64045 16.4758 9.72711 15.7225 10.1595L1.68503 18.2166C0.935038 18.6471 3.8147e-06 18.1057 3.8147e-06 17.2409V1.12664C3.8147e-06 0.261884 0.935036 -0.279538 1.68503 0.150941L15.7225 8.20807Z">
            </path>
        </symbol>
        <symbol id="icon-phone" viewBox="0 0 21 32">
            <path fill="currentColor" style="fill: var(--icon-current, currentColor)"
                d="M18.424 0h-15.515c-1.606 0-2.909 1.344-2.909 3v26c0 1.656 1.303 3 2.909 3h15.515c1.606 0 2.909-1.344 2.909-3v-26c0-1.656-1.303-3-2.909-3zM13.576 27.944c0 0.606-0.436 1.056-0.97 1.056h-3.933c-0.479 0-0.915-0.45-0.915-1s0.436-1 0.97-1h3.879c0.533 0 0.97 0.45 0.97 0.944zM17.455 24h-13.576v-20h13.576v20z">
            </path>
        </symbol>
        <symbol id="icon-tick" viewBox="0 0 43 32">
            <path fill="#fff" style="fill: var(--icon-white, #FFFFFF)"
                d="M42.042 0.638c-0.833-0.851-2.184-0.851-3.017 0l-25.559 26.102-9.824-10.033c-0.833-0.851-2.184-0.851-3.017 0s-0.833 2.23 0 3.081l11.333 11.574c0.833 0.851 2.184 0.85 3.017 0l27.067-27.643c0.833-0.851 0.833-2.23 0-3.081z">
            </path>
        </symbol>
        <symbol id="icon-time" viewBox="0 0 32 32">
            <path fill="#f03e3d" style="fill: var(--icon-red, #F03E3D)"
                d="M12.16 0h7.68c6.716 0 12.16 5.444 12.16 12.16v7.68c0 6.716-5.444 12.16-12.16 12.16h-7.68c-6.716 0-12.16-5.444-12.16-12.16v-7.68c0-6.716 5.444-12.16 12.16-12.16z">
            </path>
            <path fill="#fff" style="fill: var(--icon-white, #FFFFFF)"
                d="M19.566 12.434h0.549c0.103 0 0.183-0.080 0.183-0.183v-0.366c0-0.103-0.080-0.183-0.183-0.183h-8.411c-0.103 0-0.183 0.080-0.183 0.183v0.366c0 0.103 0.080 0.183 0.183 0.183h0.549c0 2.114 1.011 3.646 2.131 4.389-1.12 0.743-2.131 2.274-2.131 4.389h-0.549c-0.103 0-0.183 0.080-0.183 0.183v0.366c0 0.103 0.080 0.183 0.183 0.183h8.411c0.103 0 0.183-0.080 0.183-0.183v-0.366c0-0.103-0.080-0.183-0.183-0.183h-0.549c0-2.114-1.011-3.646-2.131-4.389 1.12-0.743 2.131-2.274 2.131-4.389zM18.834 12.434c0 0.834-0.189 1.571-0.486 2.194h-4.88c-0.297-0.623-0.486-1.36-0.486-2.194h5.851zM18.509 19.383h-5.2c0.423-1.103 1.183-1.886 1.943-2.194h1.314c0.76 0.309 1.52 1.091 1.943 2.194z">
            </path>
        </symbol>
        <symbol id="icon-twitter" viewBox="0 0 38 32">
            <path fill="none" stroke="currentColor" style="stroke: var(--social-icon, currentColor)"
                stroke-linejoin="round" stroke-linecap="round" stroke-miterlimit="4" stroke-width="3.2"
                d="M36.8 1.616c-1.532 1.081-3.229 1.907-5.024 2.448-0.964-1.108-2.244-1.893-3.669-2.25s-2.924-0.267-4.296 0.257c-1.372 0.524-2.55 1.456-3.375 2.671s-1.256 2.654-1.237 4.122v1.6c-2.812 0.073-5.598-0.551-8.11-1.815s-4.673-3.131-6.29-5.433c0 0-6.4 14.4 8 20.8-3.295 2.237-7.221 3.358-11.2 3.2 14.4 8 32 0 32-18.4-0.001-0.446-0.044-0.89-0.128-1.328 1.633-1.61 2.785-3.644 3.328-5.872v0z">
            </path>
        </symbol>
        <symbol id="icon-universities" viewBox="0 0 24 24">
            <path fill="#D6B1FF" style="fill: var(--icon-lavender, #D6B1FF)"
                d="M5 1H2C1.73478 1 1.48043 1.10536 1.29289 1.29289C1.10536 1.48043 1 1.73478 1 2V22C1 22.2652 1.10536 22.5196 1.29289 22.7071C1.48043 22.8946 1.73478 23 2 23H5V1Z">
            </path>
            <path fill="#F03E3D" style="fill: var(--icon-red, #F03E3D)"
                d="M7 23H17V1H7V23ZM12 19C11.7348 19 11.4804 18.8946 11.2929 18.7071C11.1054 18.5196 11 18.2652 11 18C11 17.7348 11.1054 17.4804 11.2929 17.2929C11.4804 17.1054 11.7348 17 12 17C12.2652 17 12.5196 17.1054 12.7071 17.2929C12.8946 17.4804 13 17.7348 13 18C13 18.2652 12.8946 18.5196 12.7071 18.7071C12.5196 18.8946 12.2652 19 12 19ZM12 5C12.2652 5 12.5196 5.10536 12.7071 5.29289C12.8946 5.48043 13 5.73478 13 6C13 6.26522 12.8946 6.51957 12.7071 6.70711C12.5196 6.89464 12.2652 7 12 7C11.7348 7 11.4804 6.89464 11.2929 6.70711C11.1054 6.51957 11 6.26522 11 6C11 5.73478 11.1054 5.48043 11.2929 5.29289C11.4804 5.10536 11.7348 5 12 5ZM12 11C12.2652 11 12.5196 11.1054 12.7071 11.2929C12.8946 11.4804 13 11.7348 13 12C13 12.2652 12.8946 12.5196 12.7071 12.7071C12.5196 12.8946 12.2652 13 12 13C11.7348 13 11.4804 12.8946 11.2929 12.7071C11.1054 12.5196 11 12.2652 11 12C11 11.7348 11.1054 11.4804 11.2929 11.2929C11.4804 11.1054 11.7348 11 12 11Z">
            </path>
            <path fill="#F03E3D" style="fill: var(--icon-red, #F03E3D)"
                d="M22 1H19V23H22C22.2652 23 22.5196 22.8946 22.7071 22.7071C22.8946 22.5196 23 22.2652 23 22V2C23 1.73478 22.8946 1.48043 22.7071 1.29289C22.5196 1.10536 22.2652 1 22 1Z">
            </path>
        </symbol>
    </defs>
</svg>