<svg aria-hidden="true" style="position: absolute; width: 0; height: 0; overflow: hidden;" version="1.1"
    xmlns="http://www.w3.org/2000/svg" xmlns:xlink="http://www.w3.org/1999/xlink">
    <defs>
        <symbol id="icon-accountants" viewBox="0 0 24 24">
            <path fill="#D6B1FF" style="fill: var(--color1, #D6B1FF)"
                d="M21 24H12C11.7348 24 11.4804 23.8946 11.2929 23.7071C11.1054 23.5196 11 23.2652 11 23V21C11 20.7348 11.1054 20.4804 11.2929 20.2929C11.4804 20.1054 11.7348 20 12 20H21C21.2652 20 21.5196 20.1054 21.7071 20.2929C21.8946 20.4804 22 20.7348 22 21V23C22 23.2652 21.8946 23.5196 21.7071 23.7071C21.5196 23.8946 21.2652 24 21 24Z">
            </path>
            <path fill="#11B5E4" style="fill: var(--color2, #11B5E4)"
                d="M21 0H3C2.73478 0 2.48043 0.105356 2.29289 0.292892C2.10536 0.480429 2 0.734784 2 1V3C2 3.26522 2.10536 3.51957 2.29289 3.70711C2.48043 3.89464 2.73478 4 3 4H21C21.2652 4 21.5196 3.89464 21.7071 3.70711C21.8946 3.51957 22 3.26522 22 3V1C22 0.734784 21.8946 0.480429 21.7071 0.292892C21.5196 0.105356 21.2652 0 21 0Z">
            </path>
            <path fill="#11B5E4" style="fill: var(--color2, #11B5E4)"
                d="M21 6H3C2.73478 6 2.48043 6.10536 2.29289 6.29289C2.10536 6.48043 2 6.73478 2 7V17C2 17.2652 2.10536 17.5196 2.29289 17.7071C2.48043 17.8946 2.73478 18 3 18H21C21.2652 18 21.5196 17.8946 21.7071 17.7071C21.8946 17.5196 22 17.2652 22 17V7C22 6.73478 21.8946 6.48043 21.7071 6.29289C21.5196 6.10536 21.2652 6 21 6Z">
            </path>
        </symbol>
        <symbol id="icon-entrepreneur" viewBox="0 0 24 24">
            <path fill="#D6B1FF" style="fill: var(--color1, #D6B1FF)" d="M18 10H24L21 6L18 10ZM18 14H24L21 18L18 14Z">
            </path>
            <path fill="#02897A" style="fill: var(--color2, #02897A)"
                d="M1 0H7V24H1C0.734784 24 0.480429 23.8946 0.292892 23.7071C0.105356 23.5196 0 23.2652 0 23V1C0 0.734784 0.105356 0.480429 0.292892 0.292892C0.480429 0.105356 0.734784 0 1 0Z">
            </path>
            <path fill="#02897A" style="fill: var(--color2, #02897A)"
                d="M9 0H15C15.2652 0 15.5196 0.105356 15.7071 0.292892C15.8946 0.480429 16 0.734784 16 1V23C16 23.2652 15.8946 23.5196 15.7071 23.7071C15.5196 23.8946 15.2652 24 15 24H9V0Z">
            </path>
        </symbol>
        <symbol id="icon-design" viewBox="0 0 28 28">
            <path fill="#4d8dff" style="fill: var(--color1, #4d8dff)"
                d="M9.806 0h8.258c5.416 0 9.806 4.391 9.806 9.806v8.258c0 5.416-4.39 9.806-9.806 9.806h-8.258c-5.416 0-9.806-4.39-9.806-9.806v-8.258c0-5.416 4.391-9.806 9.806-9.806z">
            </path>
            <path fill="#fff" style="fill: var(--color2, #fff)"
                d="M14.184 13.235l0.604 0.281 0.899-0.267v-0.627c0-1.065-0.899-1.917-1.972-1.917-1.069 0-1.972 0.848-1.972 1.903v2.857c0 0.263-0.212 0.47-0.47 0.47s-0.47-0.207-0.47-0.47v-1.207h-1.512c0 1.212 0 1.226 0 1.226 0 1.092 0.885 1.977 1.977 1.977 1.083 0 1.977-0.871 1.977-1.949v-2.82c0-0.258 0.212-0.47 0.47-0.47s0.47 0.212 0.47 0.47v0.544zM16.627 14.258v1.267c0 0.258-0.212 0.465-0.47 0.465s-0.47-0.207-0.47-0.465v-1.244l-0.899 0.267-0.604-0.281v1.235c0 1.083 0.889 1.959 1.977 1.959 1.092 0 1.977-0.885 1.977-1.977 0 0 0-0.014 0-1.226h-1.512z">
            </path>
        </symbol>
        <symbol id="icon-click" viewBox="0 0 32 32">
            <path fill="#02897a" style="fill: var(--color1, #02897a)"
                d="M12.16 0h7.68c6.716 0 12.16 5.444 12.16 12.16v7.68c0 6.716-5.444 12.16-12.16 12.16h-7.68c-6.716 0-12.16-5.444-12.16-12.16v-7.68c0-6.716 5.444-12.16 12.16-12.16z" />
            <path fill="#fff" style="fill: var(--color2, #fff)"
                d="M18.634 17.023l-5.851-5.851c-0.069-0.074-0.16-0.109-0.257-0.109-0.046 0-0.097 0.011-0.137 0.029-0.137 0.057-0.229 0.189-0.229 0.337v8.594c0 0.149 0.091 0.28 0.229 0.337 0.04 0.017 0.091 0.029 0.137 0.029 0.097 0 0.189-0.04 0.257-0.109l1.783-1.783 1.091 2.583c0.08 0.183 0.291 0.274 0.48 0.194l1.011-0.429c0.183-0.08 0.274-0.291 0.194-0.48l-1.149-2.72h2.183c0.149 0 0.28-0.091 0.337-0.229 0.057-0.131 0.029-0.291-0.08-0.394z" />
        </symbol>
        <symbol id="icon-facebook" viewBox="0 0 32 32">
            <path fill="none" stroke="currentColor" style="stroke: var(--color3, currentColor)" stroke-linejoin="round"
                stroke-linecap="round" stroke-miterlimit="4" stroke-width="2.6667"
                d="M24 2.667h-4c-1.768 0-3.464 0.702-4.714 1.953s-1.953 2.946-1.953 4.714v4h-4v5.333h4v10.667h5.333v-10.667h4l1.333-5.333h-5.333v-4c0-0.354 0.141-0.693 0.391-0.943s0.589-0.391 0.943-0.391h4v-5.333z">
            </path>
        </symbol>
        <symbol id="icon-Group-190" viewBox="0 0 35 32">
            <path fill="#02bc6b" style="fill: var(--color4, #02bc6b)"
                d="M2.71 29.802c-1.49 0-2.71-1.219-2.71-2.71v-9.473h6.821v-0.011h4.099c1.057-0.027 1.951-0.948 1.951-2.032 0-1.111-0.921-2.032-2.032-2.032l-10.839 0.002v-2.711c0-1.49 1.219-2.71 2.71-2.71h8.129c2.059 0 3.821 0.732 5.257 2.195 1.463 1.436 2.195 3.197 2.195 5.257 0 2.032-0.705 3.794-2.141 5.23s-3.17 2.195-5.203 2.222h-5.528v4.065c0 1.49-1.219 2.71-2.71 2.71z">
            </path>
            <path fill="#02897a" style="fill: var(--color3, #02897a)"
                d="M21.706 4.98c2.994 2.908 4.502 6.529 4.502 10.646 0 4.048-1.445 7.666-4.393 10.583l-4.185-3.937c1.833-1.814 2.733-3.998 2.733-6.645 0-2.667-0.927-4.848-2.804-6.671l4.146-3.975z">
            </path>
            <path fill="#035b81" style="fill: var(--color5, #035b81)"
                d="M28.113 0c4.312 4.305 6.482 9.643 6.482 15.77 0 6.031-2.082 11.366-6.323 15.68l-4.039-3.946c3.159-3.214 4.707-7.112 4.707-11.734 0-4.669-1.6-8.563-4.828-11.786l4.002-3.984z">
            </path>
            <path fill="#028e37" style="fill: var(--color6, #028e37)"
                d="M0 23.051h5.419v4.042c0 1.49-1.219 2.71-2.71 2.71s-2.71-1.219-2.71-2.71v-4.042z"></path>
        </symbol>
        <symbol id="icon-heart" viewBox="0 0 32 32">
            <path fill="#740a76" style="fill: var(--color7, #740a76)"
                d="M12.16 0h7.68c6.716 0 12.16 5.444 12.16 12.16v7.68c0 6.716-5.444 12.16-12.16 12.16h-7.68c-6.716 0-12.16-5.444-12.16-12.16v-7.68c0-6.716 5.444-12.16 12.16-12.16z">
            </path>
            <path fill="#fff" style="fill: var(--color2, #fff)"
                d="M16 21.211c0.091 0 0.183-0.034 0.251-0.103l3.56-3.429c0.051-0.051 1.309-1.2 1.309-2.571 0-1.674-1.023-2.674-2.731-2.674-1 0-1.937 0.789-2.389 1.234-0.451-0.446-1.389-1.234-2.389-1.234-1.709 0-2.731 1-2.731 2.674 0 1.371 1.257 2.52 1.303 2.56l3.566 3.44c0.069 0.069 0.16 0.103 0.251 0.103z">
            </path>
        </symbol>
        <symbol id="icon-instagram" viewBox="0 0 32 32">
            <path fill="none" stroke="currentColor" style="stroke: var(--color3, currentColor)" stroke-linejoin="round"
                stroke-linecap="round" stroke-miterlimit="4" stroke-width="2.6667"
                d="M22.667 2.667h-13.333c-3.682 0-6.667 2.985-6.667 6.667v13.333c0 3.682 2.985 6.667 6.667 6.667h13.333c3.682 0 6.667-2.985 6.667-6.667v-13.333c0-3.682-2.985-6.667-6.667-6.667z">
            </path>
            <path fill="none" stroke="currentColor" style="stroke: var(--color3, currentColor)" stroke-linejoin="round"
                stroke-linecap="round" stroke-miterlimit="4" stroke-width="2.6667"
                d="M21.334 15.16c0.165 1.11-0.025 2.243-0.542 3.239s-1.334 1.803-2.336 2.308c-1.002 0.504-2.138 0.68-3.245 0.502s-2.131-0.701-2.924-1.494c-0.793-0.793-1.316-1.816-1.494-2.924s-0.003-2.243 0.502-3.245c0.504-1.002 1.312-1.82 2.308-2.336s2.129-0.706 3.239-0.542c1.132 0.168 2.18 0.695 2.989 1.504s1.337 1.857 1.504 2.989z">
            </path>
            <path fill="none" stroke="currentColor" style="stroke: var(--color3, currentColor)" stroke-linejoin="round"
                stroke-linecap="round" stroke-miterlimit="4" stroke-width="2.6667" d="M23.333 8.667h0.013"></path>
        </symbol>
        <symbol id="icon-menu" viewBox="0 0 29 32">
            <path fill="none" stroke="#173a56" style="stroke: var(--color8, #173a56)" stroke-linejoin="round"
                stroke-linecap="round" stroke-miterlimit="4" stroke-width="3.0968" d="M3.613 16h21.677"></path>
            <path fill="none" stroke="#173a56" style="stroke: var(--color8, #173a56)" stroke-linejoin="round"
                stroke-linecap="round" stroke-miterlimit="4" stroke-width="3.0968" d="M3.613 8h21.677"></path>
            <path fill="none" stroke="#173a56" style="stroke: var(--color8, #173a56)" stroke-linejoin="round"
                stroke-linecap="round" stroke-miterlimit="4" stroke-width="3.0968" d="M3.613 24h21.677"></path>
        </symbol>
        <symbol id="icon-play" viewBox="0 0 17 19">
            <path fill="#02897A" style="fill: var(--color3, #02897a)"
                d="M15.7225 8.20807C16.4758 8.64045 16.4758 9.72711 15.7225 10.1595L1.68503 18.2166C0.935038 18.6471 3.8147e-06 18.1057 3.8147e-06 17.2409V1.12664C3.8147e-06 0.261884 0.935036 -0.279538 1.68503 0.150941L15.7225 8.20807Z">
            </path>
        </symbol>
        <symbol id="icon-phone" viewBox="0 0 21 32">
            <path fill="currentColor" style="fill: var(--color3, currentColor)"
                d="M18.424 0h-15.515c-1.606 0-2.909 1.344-2.909 3v26c0 1.656 1.303 3 2.909 3h15.515c1.606 0 2.909-1.344 2.909-3v-26c0-1.656-1.303-3-2.909-3zM13.576 27.944c0 0.606-0.436 1.056-0.97 1.056h-3.933c-0.479 0-0.915-0.45-0.915-1s0.436-1 0.97-1h3.879c0.533 0 0.97 0.45 0.97 0.944zM17.455 24h-13.576v-20h13.576v20z">
            </path>
        </symbol>
        <symbol id="icon-tick" viewBox="0 0 43 32">
            <path fill="#fff" style="fill: var(--color2, #fff)"
                d="M42.042 0.638c-0.833-0.851-2.184-0.851-3.017 0l-25.559 26.102-9.824-10.033c-0.833-0.851-2.184-0.851-3.017 0s-0.833 2.23 0 3.081l11.333 11.574c0.833 0.851 2.184 0.85 3.017 0l27.067-27.643c0.833-0.851 0.833-2.23 0-3.081z">
            </path>
        </symbol>
        <symbol id="icon-time" viewBox="0 0 32 32">
            <path fill="#f03e3d" style="fill: var(--color9, #f03e3d)"
                d="M12.16 0h7.68c6.716 0 12.16 5.444 12.16 12.16v7.68c0 6.716-5.444 12.16-12.16 12.16h-7.68c-6.716 0-12.16-5.444-12.16-12.16v-7.68c0-6.716 5.444-12.16 12.16-12.16z">
            </path>
            <path fill="#fff" style="fill: var(--color2, #fff)"
                d="M19.566 12.434h0.549c0.103 0 0.183-0.080 0.183-0.183v-0.366c0-0.103-0.080-0.183-0.183-0.183h-8.411c-0.103 0-0.183 0.080-0.183 0.183v0.366c0 0.103 0.080 0.183 0.183 0.183h0.549c0 2.114 1.011 3.646 2.131 4.389-1.12 0.743-2.131 2.274-2.131 4.389h-0.549c-0.103 0-0.183 0.080-0.183 0.183v0.366c0 0.103 0.080 0.183 0.183 0.183h8.411c0.103 0 0.183-0.080 0.183-0.183v-0.366c0-0.103-0.080-0.183-0.183-0.183h-0.549c0-2.114-1.011-3.646-2.131-4.389 1.12-0.743 2.131-2.274 2.131-4.389zM18.834 12.434c0 0.834-0.189 1.571-0.486 2.194h-4.88c-0.297-0.623-0.486-1.36-0.486-2.194h5.851zM18.509 19.383h-5.2c0.423-1.103 1.183-1.886 1.943-2.194h1.314c0.76 0.309 1.52 1.091 1.943 2.194z">
            </path>
        </symbol>
        <symbol id="icon-twitter" viewBox="0 0 38 32">
            <path fill="none" stroke="currentColor" style="stroke: var(--color3, currentColor)" stroke-linejoin="round"
                stroke-linecap="round" stroke-miterlimit="4" stroke-width="3.2"
                d="M36.8 1.616c-1.532 1.081-3.229 1.907-5.024 2.448-0.964-1.108-2.244-1.893-3.669-2.25s-2.924-0.267-4.296 0.257c-1.372 0.524-2.55 1.456-3.375 2.671s-1.256 2.654-1.237 4.122v1.6c-2.812 0.073-5.598-0.551-8.11-1.815s-4.673-3.131-6.29-5.433c0 0-6.4 14.4 8 20.8-3.295 2.237-7.221 3.358-11.2 3.2 14.4 8 32 0 32-18.4-0.001-0.446-0.044-0.89-0.128-1.328 1.633-1.61 2.785-3.644 3.328-5.872v0z">
            </path>
        </symbol>
        <symbol id="icon-universities" viewBox="0 0 24 24">
            <path fill="#D6B1FF" style="fill: var(--color1, #D6B1FF)"
                d="M5 1H2C1.73478 1 1.48043 1.10536 1.29289 1.29289C1.10536 1.48043 1 1.73478 1 2V22C1 22.2652 1.10536 22.5196 1.29289 22.7071C1.48043 22.8946 1.73478 23 2 23H5V1Z">
            </path>
            <path fill="#F03E3D" style="fill: var(--color2, #F03E3D)"
                d="M7 23H17V1H7V23ZM12 19C11.7348 19 11.4804 18.8946 11.2929 18.7071C11.1054 18.5196 11 18.2652 11 18C11 17.7348 11.1054 17.4804 11.2929 17.2929C11.4804 17.1054 11.7348 17 12 17C12.2652 17 12.5196 17.1054 12.7071 17.2929C12.8946 17.4804 13 17.7348 13 18C13 18.2652 12.8946 18.5196 12.7071 18.7071C12.5196 18.8946 12.2652 19 12 19ZM12 5C12.2652 5 12.5196 5.10536 12.7071 5.29289C12.8946 5.48043 13 5.73478 13 6C13 6.26522 12.8946 6.51957 12.7071 6.70711C12.5196 6.89464 12.2652 7 12 7C11.7348 7 11.4804 6.89464 11.2929 6.70711C11.1054 6.51957 11 6.26522 11 6C11 5.73478 11.1054 5.48043 11.2929 5.29289C11.4804 5.10536 11.7348 5 12 5ZM12 11C12.2652 11 12.5196 11.1054 12.7071 11.2929C12.8946 11.4804 13 11.7348 13 12C13 12.2652 12.8946 12.5196 12.7071 12.7071C12.5196 12.8946 12.2652 13 12 13C11.7348 13 11.4804 12.8946 11.2929 12.7071C11.1054 12.5196 11 12.2652 11 12C11 11.7348 11.1054 11.4804 11.2929 11.2929C11.4804 11.1054 11.7348 11 12 11Z">
            </path>
            <path fill="#F03E3D" style="fill: var(--color2, #F03E3D)"
                d="M22 1H19V23H22C22.2652 23 22.5196 22.8946 22.7071 22.7071C22.8946 22.5196 23 22.2652 23 22V2C23 1.73478 22.8946 1.48043 22.7071 1.29289C22.5196 1.10536 22.2652 1 22 1Z">
            </path>
        </symbol>
    </defs>
</svg>