<svg width="71" height="71" viewBox="0 0 71 71" fill="none" xmlns="http://www.w3.org/2000/svg">
<foreignObject x="-6.44287" y="-7.23242" width="76.4546" height="79.8315"><div xmlns="http://www.w3.org/1999/xhtml" style="backdrop-filter:blur(6.5px);clip-path:url(#bgblur_0_42_148_clip_path);height:100%;width:100%"></div></foreignObject><path data-figma-bg-blur-radius="13" d="M36.1545 6.40015L15.6995 12.248C8.24533 14.379 5.15351 20.0921 7.15065 28.0445L12.6258 49.8461C14.623 57.7985 19.9779 61.0967 27.432 58.9657L47.887 53.1178C55.3412 50.9868 58.4135 45.2793 56.4164 37.3269L50.9412 15.5253C48.9441 7.57294 43.6086 4.26912 36.1545 6.40015Z" fill="url(#paint0_linear_42_148)"/>
<g opacity="0.5" filter="url(#filter1_f_42_148)">
<path d="M46.2336 34.9715L42.5191 19.9588C41.1717 14.5133 37.7995 12.0716 33.3655 13.3205L18.3481 17.5504C13.8415 18.8198 12.0964 22.7028 13.4438 28.1483L17.1583 43.161C18.5274 48.6942 21.8193 51.0627 26.326 49.7934L41.3433 45.5635C45.7773 44.3146 47.6027 40.5047 46.2336 34.9715Z" fill="#11B5E4"/>
</g>
<foreignObject x="4.6748" y="0.685059" width="77.3311" height="80.3657"><div xmlns="http://www.w3.org/1999/xhtml" style="backdrop-filter:blur(7.5px);clip-path:url(#bgblur_1_42_148_clip_path);height:100%;width:100%"></div></foreignObject><g data-figma-bg-blur-radius="15">
<mask id="path-3-outside-1_42_148" maskUnits="userSpaceOnUse" x="19.6748" y="15.6851" width="48" height="51" fill="black">
<rect fill="white" x="19.6748" y="15.6851" width="48" height="51"/>
<path d="M53.9377 16.6851H32.7631C25.0467 16.6851 20.6748 21.3497 20.6748 29.5826V52.1533C20.6748 60.3862 25.0467 65.0508 32.7631 65.0508H53.9377C61.6541 65.0508 66.0059 60.3862 66.0059 52.1533V29.5826C66.0059 21.3497 61.6541 16.6851 53.9377 16.6851Z"/>
</mask>
<path d="M53.9377 16.6851H32.7631C25.0467 16.6851 20.6748 21.3497 20.6748 29.5826V52.1533C20.6748 60.3862 25.0467 65.0508 32.7631 65.0508H53.9377C61.6541 65.0508 66.0059 60.3862 66.0059 52.1533V29.5826C66.0059 21.3497 61.6541 16.6851 53.9377 16.6851Z" fill="#00ACDD"/>
<path d="M53.9377 17.6851C54.49 17.6851 54.9377 17.2373 54.9377 16.6851C54.9377 16.1328 54.49 15.6851 53.9377 15.6851V17.6851ZM53.9377 15.6851C53.3854 15.6851 52.9377 16.1328 52.9377 16.6851C52.9377 17.2373 53.3854 17.6851 53.9377 17.6851V15.6851ZM53.9377 15.6851H32.7631V17.6851H53.9377V15.6851ZM32.7631 15.6851C28.7004 15.6851 25.3864 16.9185 23.0957 19.3626C20.8139 21.7972 19.6748 25.2972 19.6748 29.5826H21.6748C21.6748 25.6351 22.7217 22.6863 24.5549 20.7303C26.3793 18.7839 29.1094 17.6851 32.7631 17.6851V15.6851ZM19.6748 29.5826V52.1533H21.6748V29.5826H19.6748ZM19.6748 52.1533C19.6748 56.4387 20.8139 59.9387 23.0957 62.3732C25.3864 64.8173 28.7004 66.0508 32.7631 66.0508V64.0508C29.1094 64.0508 26.3793 62.952 24.5549 61.0055C22.7217 59.0495 21.6748 56.1008 21.6748 52.1533H19.6748ZM32.7631 66.0508H53.9377V64.0508H32.7631V66.0508ZM53.9377 66.0508C58.0005 66.0508 61.31 64.8172 63.5959 62.3723C65.8724 59.9374 67.0059 56.4375 67.0059 52.1533H65.0059C65.0059 56.1019 63.9634 59.0508 62.135 61.0064C60.3159 62.9521 57.5913 64.0508 53.9377 64.0508V66.0508ZM67.0059 52.1533V29.5826H65.0059V52.1533H67.0059ZM67.0059 29.5826C67.0059 25.2983 65.8724 21.7984 63.5959 19.3635C61.31 16.9186 58.0005 15.6851 53.9377 15.6851V17.6851C57.5913 17.6851 60.3159 18.7838 62.135 20.7294C63.9634 22.6851 65.0059 25.6339 65.0059 29.5826H67.0059Z" fill="url(#paint1_linear_42_148)" mask="url(#path-3-outside-1_42_148)"/>
</g>
<foreignObject x="15.9692" y="11.5732" width="54.7612" height="58.5688"><div xmlns="http://www.w3.org/1999/xhtml" style="backdrop-filter:blur(7.5px);clip-path:url(#bgblur_2_42_148_clip_path);height:100%;width:100%"></div></foreignObject><g filter="url(#filter3_d_42_148)" data-figma-bg-blur-radius="15">
<mask id="path-5-inside-2_42_148" fill="white">
<path fill-rule="evenodd" clip-rule="evenodd" d="M43.4198 26.5732C42.3923 26.5732 41.5462 27.4761 41.5462 28.5939V53.1421C41.5462 54.2384 42.3923 55.1413 43.4198 55.1413C44.4675 55.1413 45.3137 54.2384 45.3137 53.1421V28.5939C45.3137 27.4761 44.4675 26.5732 43.4198 26.5732ZM32.8429 34.5059C31.8154 34.5059 30.9692 35.4088 30.9692 36.5265V53.1429C30.9692 54.2391 31.8154 55.142 32.8429 55.142C33.8906 55.142 34.7368 54.2391 34.7368 53.1429V36.5265C34.7368 35.4088 33.8906 34.5059 32.8429 34.5059ZM51.9629 45.2967C51.9629 44.1789 52.8091 43.2761 53.8567 43.2761C54.8842 43.2761 55.7304 44.1789 55.7304 45.2967V53.1427C55.7304 54.239 54.8842 55.1418 53.8366 55.1418C52.8091 55.1418 51.9629 54.239 51.9629 53.1427V45.2967Z"/>
</mask>
<path fill-rule="evenodd" clip-rule="evenodd" d="M43.4198 26.5732C42.3923 26.5732 41.5462 27.4761 41.5462 28.5939V53.1421C41.5462 54.2384 42.3923 55.1413 43.4198 55.1413C44.4675 55.1413 45.3137 54.2384 45.3137 53.1421V28.5939C45.3137 27.4761 44.4675 26.5732 43.4198 26.5732ZM32.8429 34.5059C31.8154 34.5059 30.9692 35.4088 30.9692 36.5265V53.1429C30.9692 54.2391 31.8154 55.142 32.8429 55.142C33.8906 55.142 34.7368 54.2391 34.7368 53.1429V36.5265C34.7368 35.4088 33.8906 34.5059 32.8429 34.5059ZM51.9629 45.2967C51.9629 44.1789 52.8091 43.2761 53.8567 43.2761C54.8842 43.2761 55.7304 44.1789 55.7304 45.2967V53.1427C55.7304 54.239 54.8842 55.1418 53.8366 55.1418C52.8091 55.1418 51.9629 54.239 51.9629 53.1427V45.2967Z" fill="url(#paint2_linear_42_148)"/>
<path d="M41.9462 28.5939C41.9462 27.6693 42.64 26.9732 43.4198 26.9732V26.1732C42.1447 26.1732 41.1462 27.2828 41.1462 28.5939H41.9462ZM41.9462 53.1421V28.5939H41.1462V53.1421H41.9462ZM43.4198 54.7413C42.6373 54.7413 41.9462 54.0423 41.9462 53.1421H41.1462C41.1462 54.4345 42.1474 55.5413 43.4198 55.5413V54.7413ZM44.9137 53.1421C44.9137 54.0395 44.2252 54.7413 43.4198 54.7413V55.5413C44.7097 55.5413 45.7137 54.4374 45.7137 53.1421H44.9137ZM44.9137 28.5939V53.1421H45.7137V28.5939H44.9137ZM43.4198 26.9732C44.2226 26.9732 44.9137 27.6722 44.9137 28.5939H45.7137C45.7137 27.28 44.7124 26.1732 43.4198 26.1732V26.9732ZM31.3692 36.5265C31.3692 35.602 32.063 34.9059 32.8429 34.9059V34.1059C31.5678 34.1059 30.5692 35.2155 30.5692 36.5265H31.3692ZM31.3692 53.1429V36.5265H30.5692V53.1429H31.3692ZM32.8429 54.742C32.0604 54.742 31.3692 54.043 31.3692 53.1429H30.5692C30.5692 54.4352 31.5705 55.542 32.8429 55.542V54.742ZM34.3368 53.1429C34.3368 54.0402 33.6483 54.742 32.8429 54.742V55.542C34.1328 55.542 35.1368 54.4381 35.1368 53.1429H34.3368ZM34.3368 36.5265V53.1429H35.1368V36.5265H34.3368ZM32.8429 34.9059C33.6456 34.9059 34.3368 35.6049 34.3368 36.5265H35.1368C35.1368 35.2127 34.1355 34.1059 32.8429 34.1059V34.9059ZM53.8567 42.8761C52.5642 42.8761 51.5629 43.9828 51.5629 45.2967H52.3629C52.3629 44.375 53.054 43.6761 53.8567 43.6761V42.8761ZM56.1304 45.2967C56.1304 43.9857 55.1319 42.8761 53.8567 42.8761V43.6761C54.6366 43.6761 55.3304 44.3721 55.3304 45.2967H56.1304ZM56.1304 53.1427V45.2967H55.3304V53.1427H56.1304ZM53.8366 55.5418C55.1265 55.5418 56.1304 54.4379 56.1304 53.1427H55.3304C55.3304 54.04 54.642 54.7418 53.8366 54.7418V55.5418ZM51.5629 53.1427C51.5629 54.4351 52.5642 55.5418 53.8366 55.5418V54.7418C53.054 54.7418 52.3629 54.0429 52.3629 53.1427H51.5629ZM51.5629 45.2967V53.1427H52.3629V45.2967H51.5629Z" fill="url(#paint3_linear_42_148)" mask="url(#path-5-inside-2_42_148)"/>
</g>
<defs>
<clipPath id="bgblur_0_42_148_clip_path" transform="translate(6.44287 7.23242)"><path d="M36.1545 6.40015L15.6995 12.248C8.24533 14.379 5.15351 20.0921 7.15065 28.0445L12.6258 49.8461C14.623 57.7985 19.9779 61.0967 27.432 58.9657L47.887 53.1178C55.3412 50.9868 58.4135 45.2793 56.4164 37.3269L50.9412 15.5253C48.9441 7.57294 43.6086 4.26912 36.1545 6.40015Z"/>
</clipPath><filter id="filter1_f_42_148" x="0" y="0" width="59.6797" height="63.1279" filterUnits="userSpaceOnUse" color-interpolation-filters="sRGB">
<feFlood flood-opacity="0" result="BackgroundImageFix"/>
<feBlend mode="normal" in="SourceGraphic" in2="BackgroundImageFix" result="shape"/>
<feGaussianBlur stdDeviation="6.5" result="effect1_foregroundBlur_42_148"/>
</filter>
<clipPath id="bgblur_1_42_148_clip_path" transform="translate(-4.6748 -0.685059)"><path d="M53.9377 16.6851H32.7631C25.0467 16.6851 20.6748 21.3497 20.6748 29.5826V52.1533C20.6748 60.3862 25.0467 65.0508 32.7631 65.0508H53.9377C61.6541 65.0508 66.0059 60.3862 66.0059 52.1533V29.5826C66.0059 21.3497 61.6541 16.6851 53.9377 16.6851Z"/>
</clipPath><filter id="filter3_d_42_148" x="15.9692" y="11.5732" width="54.7612" height="58.5688" filterUnits="userSpaceOnUse" color-interpolation-filters="sRGB">
<feFlood flood-opacity="0" result="BackgroundImageFix"/>
<feColorMatrix in="SourceAlpha" type="matrix" values="0 0 0 0 0 0 0 0 0 0 0 0 0 0 0 0 0 0 127 0" result="hardAlpha"/>
<feOffset dx="5" dy="5"/>
<feGaussianBlur stdDeviation="5"/>
<feColorMatrix type="matrix" values="0 0 0 0 1 0 0 0 0 0.447059 0 0 0 0 0.368627 0 0 0 0.5 0"/>
<feBlend mode="normal" in2="BackgroundImageFix" result="effect1_dropShadow_42_148"/>
<feBlend mode="normal" in="SourceGraphic" in2="effect1_dropShadow_42_148" result="shape"/>
</filter>
<clipPath id="bgblur_2_42_148_clip_path" transform="translate(-15.9692 -11.5732)"><path fill-rule="evenodd" clip-rule="evenodd" d="M43.4198 26.5732C42.3923 26.5732 41.5462 27.4761 41.5462 28.5939V53.1421C41.5462 54.2384 42.3923 55.1413 43.4198 55.1413C44.4675 55.1413 45.3137 54.2384 45.3137 53.1421V28.5939C45.3137 27.4761 44.4675 26.5732 43.4198 26.5732ZM32.8429 34.5059C31.8154 34.5059 30.9692 35.4088 30.9692 36.5265V53.1429C30.9692 54.2391 31.8154 55.142 32.8429 55.142C33.8906 55.142 34.7368 54.2391 34.7368 53.1429V36.5265C34.7368 35.4088 33.8906 34.5059 32.8429 34.5059ZM51.9629 45.2967C51.9629 44.1789 52.8091 43.2761 53.8567 43.2761C54.8842 43.2761 55.7304 44.1789 55.7304 45.2967V53.1427C55.7304 54.239 54.8842 55.1418 53.8366 55.1418C52.8091 55.1418 51.9629 54.239 51.9629 53.1427V45.2967Z"/>
</clipPath><linearGradient id="paint0_linear_42_148" x1="35.793" y1="34.8925" x2="0.487389" y2="63.5888" gradientUnits="userSpaceOnUse">
<stop stop-color="#11B5E4"/>
<stop offset="1" stop-color="#035B81"/>
</linearGradient>
<linearGradient id="paint1_linear_42_148" x1="27.8908" y1="22.3197" x2="59.1039" y2="58.5524" gradientUnits="userSpaceOnUse">
<stop stop-color="white" stop-opacity="0.25"/>
<stop offset="1" stop-color="white" stop-opacity="0"/>
</linearGradient>
<linearGradient id="paint2_linear_42_148" x1="24.5598" y1="47.7775" x2="37.423" y2="72.5451" gradientUnits="userSpaceOnUse">
<stop stop-color="white"/>
<stop offset="1" stop-color="white" stop-opacity="0.2"/>
</linearGradient>
<linearGradient id="paint3_linear_42_148" x1="34.9108" y1="29.9015" x2="53.5065" y2="49.8631" gradientUnits="userSpaceOnUse">
<stop stop-color="white" stop-opacity="0.25"/>
<stop offset="1" stop-color="white" stop-opacity="0"/>
</linearGradient>
</defs>
</svg>
