<svg width="350" height="292" viewBox="0 0 350 292" fill="none" xmlns="http://www.w3.org/2000/svg">
<path d="M65.3659 259.648C130.465 302.062 236.054 302.062 301.153 259.648C366.253 217.234 366.253 148.477 301.153 106.071C236.054 63.6661 130.465 63.6574 65.3659 106.071C0.266256 148.485 0.242439 217.243 65.3659 259.648Z" fill="#FAFAFA"/>
<path d="M319.938 102.963C320.295 98.0409 323.732 89.6509 328.821 83.6956C333.91 77.7403 342.055 74.8327 347.081 77.2411C351.765 79.4919 350.733 86.4105 344.556 90.5004C338.38 94.5903 329.186 99.6173 326.035 107.368L319.938 116.669V102.963Z" fill="#02897A"/>
<path opacity="0.2" d="M319.938 102.963C320.295 98.0409 323.732 89.6509 328.821 83.6956C333.91 77.7403 342.055 74.8327 347.081 77.2411C351.765 79.4919 350.733 86.4105 344.556 90.5004C338.38 94.5903 329.186 99.6173 326.035 107.368L319.938 116.669V102.963Z" fill="black"/>
<path d="M345.135 79.5183C339.3 80.7444 322.2 92.8915 319.961 111.23" stroke="white" stroke-miterlimit="10" stroke-linecap="round"/>
<path d="M320.628 125.059C321.525 122.432 325.431 117.554 331.052 115.163C336.673 112.772 340.912 110.635 342.961 106.781C345.009 102.928 341.444 99.1446 335.768 99.4161C330.091 99.6876 320.636 106.247 319.969 116.669L320.628 125.059Z" fill="#02897A"/>
<path d="M338.657 102.534C333.751 103.068 321.827 111.046 320.223 119.979" stroke="white" stroke-miterlimit="10" stroke-linecap="round"/>
<path d="M27.386 150.071C27.1434 143.113 25.7413 136.264 23.2498 129.867C19.0659 118.928 10.603 113.139 6.09365 112.351C1.58432 111.563 -3.07586 117.606 2.66402 124.787C8.4039 131.969 19.4073 141.585 22.567 156.131L27.7353 166.063L27.386 150.071Z" fill="#02897A"/>
<path opacity="0.2" d="M27.386 150.071C27.1434 143.113 25.7413 136.264 23.2498 129.867C19.0659 118.928 10.603 113.139 6.09365 112.351C1.58432 111.563 -3.07586 117.606 2.66402 124.787C8.4039 131.969 19.4073 141.585 22.567 156.131L27.7353 166.063L27.386 150.071Z" fill="black"/>
<path d="M6.09375 115.688C15.3506 121.766 26.0762 137.714 27.5766 158.908" stroke="white" stroke-linecap="round" stroke-linejoin="round"/>
<path d="M26.6792 176.248C25.401 170.599 22.0587 165.09 15.382 159.556C8.70535 154.021 -0.218059 149.265 0.512327 143.616C1.24271 137.968 8.00672 138.362 12.9606 140.858C17.9146 143.354 26.5045 153.626 27.7351 166.045L26.6792 176.248Z" fill="#02897A"/>
<path d="M5.19629 141.848C11.6269 143.599 25.4248 157.524 27.4254 169.382" stroke="white" stroke-linecap="round" stroke-linejoin="round"/>
<path d="M28.5057 179.733C27.9722 179.35 27.5287 178.833 27.2113 178.224C26.894 177.615 26.7118 176.932 26.6797 176.23V49.8115C26.713 49.1103 26.8957 48.4277 27.213 47.8191C27.5303 47.2104 27.9731 46.6928 28.5057 46.3083L69.447 20.2364C69.9763 19.8718 70.5856 19.6731 71.2096 19.6616C71.8335 19.6501 72.4486 19.8261 72.9887 20.1708C73.5289 20.5156 73.9737 21.016 74.2757 21.6184C74.5776 22.2209 74.7252 22.9027 74.7026 23.5906V32.0331C74.7026 33.3205 75.4965 33.846 76.5365 33.1979L127.767 0.575091C128.295 0.211045 128.904 0.012454 129.527 0.000566874C130.15 -0.0113203 130.765 0.163943 131.305 0.507606C131.845 0.851268 132.29 1.3504 132.592 1.95158C132.895 2.55276 133.043 3.23336 133.022 3.92057V198.239L95.2645 222.27L28.5057 179.733Z" fill="#263238"/>
<path d="M131.307 0.513935C130.754 0.216391 130.145 0.0676155 129.529 0.0797933C128.914 0.091971 128.31 0.264757 127.767 0.583999L76.5363 33.2068C75.5201 33.8549 74.7024 33.3294 74.7024 32.042V23.5995C74.725 22.9116 74.5774 22.2298 74.2755 21.6273C73.9736 21.0249 73.5287 20.5245 72.9885 20.1797C72.4484 19.835 71.8334 19.659 71.2094 19.6705C70.5855 19.6821 69.9762 19.8807 69.4468 20.2453L28.5055 46.3172C27.9674 46.693 27.5227 47.2107 27.2114 47.8236L50.6949 62.7819L133.022 10.3314V3.92948C133 3.25158 132.833 2.58908 132.535 1.99566C132.237 1.40225 131.816 0.894622 131.307 0.513935Z" fill="#455A64"/>
<path d="M131.196 2.76442L76.5365 37.5767C75.5203 38.2248 74.7026 37.6993 74.7026 36.4119V23.5992C74.7026 22.3118 73.9087 21.7864 72.8766 22.4344L31.9353 48.5064C31.4024 48.8904 30.9592 49.4079 30.6419 50.0166C30.3245 50.6254 30.1421 51.3082 30.1094 52.0095V174.102C30.1417 174.804 30.3248 175.488 30.6437 176.097C30.9625 176.706 31.4079 177.223 31.9433 177.605L98.718 220.133L133.022 198.291V3.92921C133.022 2.64181 132.205 2.1251 131.196 2.76442Z" fill="#37474F"/>
<path d="M30.6494 176.047C30.9559 176.663 31.4017 177.182 31.9435 177.553L98.7182 220.081L133.023 198.239V110.845L30.6494 176.047Z" fill="#263238"/>
<path d="M38.9376 203.879L38.4375 203.563C38.011 203.258 37.6558 202.845 37.4007 202.36C37.1455 201.875 36.9975 201.33 36.9688 200.77V82.1452C36.9956 81.5845 37.1428 81.0389 37.3981 80.5532C37.6535 80.0675 38.0097 79.6556 38.4375 79.3514L148.71 9.11384C149.164 8.85926 149.666 8.72656 150.175 8.72656C150.684 8.72656 151.186 8.85926 151.639 9.11384L152.14 9.43788C152.567 9.74208 152.923 10.154 153.179 10.6396C153.434 11.1253 153.581 11.6709 153.608 12.2316V130.83C153.579 131.39 153.431 131.935 153.176 132.42C152.921 132.906 152.566 133.318 152.14 133.624L41.8671 203.879C41.4133 204.133 40.9114 204.266 40.4024 204.266C39.8933 204.266 39.3914 204.133 38.9376 203.879Z" fill="#F5F5F5"/>
<path d="M43.828 84.6238L37.3975 80.5251C37.1352 81.0082 36.9878 81.5564 36.9688 82.1191V200.744C36.9975 201.304 37.1455 201.849 37.4007 202.334C37.6558 202.819 38.011 203.231 38.4375 203.537L38.9376 203.853C39.3914 204.107 39.8933 204.24 40.4024 204.24C40.9114 204.24 41.4133 204.107 41.8671 203.853L43.828 202.6V84.6238Z" fill="#E0E0E0"/>
<path d="M40.4062 202.924V84.2998C40.4335 83.7402 40.58 83.1956 40.8338 82.7102C41.0876 82.2248 41.4416 81.8123 41.867 81.506L152.139 11.2684C152.933 10.7605 153.608 11.1721 153.608 12.2055V130.83C153.579 131.39 153.431 131.935 153.176 132.42C152.921 132.906 152.566 133.318 152.139 133.624L41.867 203.879C41.0572 204.369 40.4062 203.958 40.4062 202.924Z" fill="#EBEBEB"/>
<path d="M49.0916 85.6483L144.915 24.624C145.923 23.9759 146.741 24.5014 146.741 25.7888V117.255C146.709 117.957 146.527 118.64 146.209 119.249C145.892 119.858 145.448 120.375 144.915 120.758L49.0916 181.774C48.0833 182.422 47.2656 181.897 47.2656 180.609V89.1515C47.299 88.4503 47.4817 87.7677 47.7989 87.1591C48.1162 86.5504 48.5591 86.0329 49.0916 85.6483Z" fill="white"/>
<path d="M64.9295 81.0857C70.8996 77.2848 75.7344 80.3676 75.7344 87.9693C75.7344 95.5711 70.8996 104.811 64.9295 108.611C58.9593 112.412 54.1245 109.338 54.1245 101.737C54.1245 94.1348 58.9593 84.8866 64.9295 81.0857Z" fill="#FFB900"/>
<path d="M74.9409 108.655C75.3074 107.901 75.8303 107.254 76.4669 106.766C77.1035 106.278 77.8357 105.963 78.6037 105.847C79.3717 105.731 80.1537 105.817 80.8859 106.098C81.618 106.379 82.2795 106.847 82.8164 107.464L95.2647 121.765L118.923 57.7371C119.27 56.7983 119.849 55.9857 120.594 55.3917C121.339 54.7977 122.22 54.446 123.137 54.3767C124.054 54.3074 124.97 54.5231 125.782 54.9995C126.593 55.4759 127.267 56.1937 127.727 57.0715L146.725 93.3639V117.255C146.693 117.957 146.511 118.64 146.193 119.249C145.876 119.857 145.433 120.375 144.899 120.758L49.0916 181.774C48.0833 182.422 47.2656 181.896 47.2656 180.609V165.458L74.9409 108.655Z" fill="#FFB900"/>
<path d="M59.5392 217.016L59.0311 216.692C58.6057 216.385 58.2517 215.973 57.9979 215.487C57.7441 215.002 57.5976 214.457 57.5703 213.898V95.2297C57.5976 94.6701 57.7441 94.1255 57.9979 93.6401C58.2517 93.1547 58.6057 92.7421 59.0311 92.4359L169.311 22.2071C169.763 21.9491 170.264 21.8145 170.772 21.8145C171.281 21.8145 171.782 21.9491 172.233 22.2071L172.741 22.5224C173.166 22.8286 173.52 23.2411 173.774 23.7266C174.028 24.212 174.175 24.7565 174.202 25.3161V143.941C174.179 144.501 174.034 145.048 173.78 145.534C173.526 146.02 173.17 146.432 172.741 146.734L62.4449 217.016C61.9955 217.271 61.4974 217.404 60.992 217.404C60.4866 217.404 59.9886 217.271 59.5392 217.016Z" fill="#F5F5F5"/>
<path d="M64.4135 97.7432L57.9829 93.6445C57.7217 94.1248 57.5742 94.67 57.5542 95.2297V213.854C57.5815 214.414 57.728 214.958 57.9818 215.444C58.2356 215.929 58.5895 216.342 59.015 216.648L59.5231 216.972C59.9745 217.23 60.4754 217.365 60.9838 217.365C61.4922 217.365 61.9932 217.23 62.4446 216.972L64.4135 215.72V97.7432Z" fill="#E0E0E0"/>
<path d="M60.9839 216.044V97.4191C61.0118 96.8597 61.1585 96.3153 61.4123 95.83C61.666 95.3447 62.0197 94.9321 62.4447 94.6253L172.725 24.3877C173.519 23.871 174.186 24.2914 174.186 25.3161V143.94C174.163 144.501 174.018 145.048 173.764 145.534C173.51 146.02 173.154 146.432 172.725 146.734L62.4447 217.016C61.6428 217.489 60.9839 217.068 60.9839 216.044Z" fill="#EBEBEB"/>
<path d="M69.6772 98.7855L165.501 37.7524C166.509 37.113 167.327 37.6385 167.327 38.9171V130.366C167.294 131.067 167.111 131.75 166.794 132.359C166.477 132.968 166.034 133.485 165.501 133.869L69.6772 194.902C68.661 195.542 67.8433 195.025 67.8433 193.738V102.289C67.8762 101.586 68.0596 100.903 68.3784 100.294C68.6972 99.6849 69.1423 99.168 69.6772 98.7855Z" fill="white"/>
<path d="M85.5154 94.2046C91.4776 90.4037 96.3203 93.4865 96.3203 101.088C96.3203 108.69 91.4776 117.929 85.5154 121.73C79.5532 125.531 74.7104 122.449 74.7104 114.847C74.7104 107.245 79.5453 98.0055 85.5154 94.2046Z" fill="#11B5E4"/>
<path d="M95.5265 121.775C95.892 121.021 96.4141 120.374 97.05 119.886C97.6859 119.398 98.4175 119.083 99.185 118.967C99.9525 118.851 100.734 118.937 101.466 119.218C102.197 119.499 102.858 119.967 103.394 120.584L115.906 134.885L139.556 70.8569C139.902 69.9158 140.481 69.101 141.227 68.5053C141.973 67.9095 142.855 67.5569 143.774 67.4875C144.692 67.4181 145.61 67.6348 146.422 68.1129C147.235 68.5909 147.909 69.3111 148.368 70.1913L167.358 106.484V130.366C167.326 131.067 167.143 131.75 166.826 132.359C166.509 132.968 166.065 133.485 165.532 133.869L69.7089 194.902C68.6927 195.542 67.875 195.025 67.875 193.738V178.587L95.5265 121.775Z" fill="#11B5E4"/>
<path d="M80.1011 230.073L79.6009 229.758C79.1755 229.451 78.8215 229.039 78.5677 228.553C78.3139 228.068 78.1674 227.523 78.1401 226.964V108.34C78.167 107.779 78.3142 107.233 78.5695 106.748C78.8249 106.262 79.1811 105.85 79.6089 105.546L189.881 35.3082C190.335 35.0536 190.837 34.9209 191.346 34.9209C191.855 34.9209 192.357 35.0536 192.811 35.3082L193.311 35.6322C193.739 35.9364 194.095 36.3483 194.35 36.834C194.606 37.3197 194.753 37.8653 194.78 38.426V157.05C194.751 157.611 194.603 158.155 194.348 158.641C194.093 159.126 193.737 159.538 193.311 159.844L83.0385 230.073C82.5837 230.329 82.0804 230.462 81.5698 230.462C81.0592 230.462 80.5559 230.329 80.1011 230.073Z" fill="#F5F5F5"/>
<path d="M84.9995 110.845L78.5928 106.746C78.3306 107.229 78.1831 107.778 78.1641 108.34V226.965C78.1913 227.524 78.3378 228.069 78.5916 228.554C78.8454 229.04 79.1994 229.452 79.6248 229.758L80.125 230.074C80.5788 230.328 81.0806 230.461 81.5897 230.461C82.0988 230.461 82.6007 230.328 83.0545 230.074L85.0233 228.821L84.9995 110.845Z" fill="#E0E0E0"/>
<path d="M81.5698 229.145V110.521C81.5971 109.961 81.7436 109.417 81.9974 108.931C82.2512 108.446 82.6052 108.033 83.0306 107.727L193.303 37.4806C194.097 36.9726 194.772 37.3843 194.772 38.4177V157.051C194.743 157.611 194.595 158.156 194.34 158.641C194.085 159.127 193.729 159.539 193.303 159.845L83.0306 230.073C82.2208 230.59 81.5698 230.152 81.5698 229.145Z" fill="#EBEBEB"/>
<path d="M90.2552 111.861L186.079 50.8364C187.087 50.1883 187.905 50.7138 187.905 52.0012V143.45C187.872 144.151 187.689 144.834 187.372 145.443C187.055 146.052 186.612 146.569 186.079 146.953L90.2552 207.995C89.2469 208.643 88.4292 208.118 88.4292 206.83V115.355C88.4638 114.655 88.6471 113.975 88.9643 113.368C89.2815 112.761 89.7237 112.244 90.2552 111.861Z" fill="white"/>
<path d="M106.093 107.306C112.064 103.506 116.898 106.588 116.898 114.19C116.898 121.792 112.064 131.031 106.093 134.832C100.123 138.633 95.2646 135.568 95.2646 127.957C95.2646 120.347 100.123 111.107 106.093 107.306Z" fill="#F03E3D"/>
<path d="M116.104 134.876C116.471 134.122 116.994 133.475 117.63 132.987C118.267 132.499 118.999 132.184 119.767 132.068C120.535 131.952 121.317 132.038 122.049 132.319C122.782 132.6 123.443 133.068 123.98 133.685L136.452 147.986L160.11 83.9581C160.457 83.0192 161.036 82.2067 161.781 81.6126C162.526 81.0186 163.407 80.667 164.324 80.5976C165.241 80.5283 166.158 80.7441 166.969 81.2205C167.78 81.6968 168.454 82.4147 168.915 83.2925L187.913 119.585V143.45C187.877 144.151 187.693 144.834 187.374 145.442C187.055 146.051 186.612 146.568 186.079 146.953L90.2552 207.995C89.2469 208.643 88.4292 208.117 88.4292 206.83V191.679L116.104 134.876Z" fill="#F03E3D"/>
<path d="M98.7178 220.08L109.007 213.53V226.64L98.7178 220.08Z" fill="#263238"/>
<path d="M109.007 128.466V224.311C109.007 225.598 108.213 226.115 107.181 225.476L98.7181 220.081L95.2646 222.27L110.587 232.027C111.153 232.346 111.781 232.513 112.417 232.513C113.053 232.513 113.68 232.346 114.247 232.027L220.383 164.469C220.917 164.085 221.361 163.568 221.68 162.959C221.999 162.351 222.183 161.668 222.217 160.966V60.7414C222.238 60.0533 222.089 59.3718 221.786 58.7698C221.483 58.1678 221.037 57.6678 220.497 57.3234C219.956 56.979 219.341 56.803 218.717 56.8142C218.093 56.8255 217.483 57.0235 216.953 57.3872L110.841 124.971C110.307 125.353 109.863 125.868 109.544 126.476C109.225 127.083 109.041 127.765 109.007 128.466Z" fill="#263238"/>
<path d="M115.906 130.506L222.288 62.782V60.7414C222.309 60.0533 222.16 59.3718 221.857 58.7698C221.554 58.1678 221.109 57.6678 220.568 57.3234C220.028 56.979 219.413 56.803 218.788 56.8142C218.164 56.8255 217.555 57.0235 217.025 57.3872L110.841 124.971C110.299 125.342 109.853 125.861 109.547 126.478L115.906 130.506Z" fill="#455A64"/>
<path d="M220.383 59.5761L114.27 127.16C113.736 127.544 113.292 128.061 112.973 128.67C112.655 129.278 112.471 129.961 112.437 130.663V230.861C112.437 232.149 113.23 232.674 114.27 232.026L220.383 164.468C220.917 164.085 221.361 163.568 221.68 162.959C221.999 162.35 222.182 161.667 222.217 160.965V60.7409C222.217 59.4535 221.391 58.928 220.383 59.5761Z" fill="#37474F"/>
<path d="M140.691 189.227C140.488 189.23 140.288 189.173 140.112 189.061C139.9 188.907 139.731 188.693 139.62 188.442C139.51 188.191 139.463 187.911 139.485 187.633V138.922C139.513 138.286 139.678 137.667 139.966 137.116C140.255 136.564 140.659 136.097 141.144 135.752L193.112 102.656C193.313 102.481 193.557 102.377 193.813 102.357C194.068 102.336 194.323 102.401 194.545 102.543C194.766 102.684 194.944 102.896 195.056 103.151C195.167 103.405 195.206 103.69 195.169 103.97V152.681C195.141 153.317 194.975 153.936 194.687 154.487C194.398 155.039 193.995 155.506 193.509 155.851L141.541 188.991C141.281 189.149 140.988 189.231 140.691 189.227ZM193.962 103.252C193.8 103.26 193.643 103.317 193.509 103.418L141.541 136.505C141.176 136.774 140.873 137.132 140.654 137.551C140.435 137.97 140.307 138.44 140.279 138.922V187.633C140.264 187.756 140.278 187.882 140.318 187.998C140.358 188.114 140.424 188.217 140.509 188.299C140.615 188.341 140.729 188.353 140.84 188.333C140.951 188.313 141.056 188.262 141.144 188.185L193.112 155.089C193.477 154.822 193.781 154.466 194 154.048C194.219 153.631 194.347 153.162 194.375 152.681V103.97C194.39 103.847 194.377 103.721 194.336 103.605C194.296 103.488 194.23 103.385 194.145 103.304C194.089 103.269 194.026 103.25 193.962 103.252Z" fill="#FAFAFA"/>
<path d="M149.067 147.277C148.614 147.282 148.167 147.155 147.773 146.909C147.282 146.538 146.891 146.029 146.64 145.434C146.388 144.84 146.286 144.182 146.344 143.529C146.429 141.846 146.871 140.21 147.635 138.751C148.399 137.292 149.463 136.051 150.742 135.13C151.206 134.713 151.774 134.463 152.371 134.411C152.967 134.36 153.564 134.51 154.081 134.842C154.598 135.174 155.012 135.672 155.266 136.269C155.52 136.867 155.604 137.535 155.505 138.186C155.422 139.869 154.981 141.507 154.217 142.966C153.452 144.425 152.387 145.665 151.107 146.585C150.491 147.004 149.789 147.242 149.067 147.277ZM152.814 135.314C152.22 135.343 151.642 135.542 151.139 135.892C149.981 136.732 149.018 137.861 148.328 139.188C147.639 140.514 147.242 142.001 147.169 143.529C147.064 144.03 147.108 144.555 147.294 145.026C147.479 145.498 147.798 145.891 148.201 146.148C148.605 146.405 149.073 146.512 149.536 146.454C149.999 146.395 150.433 146.174 150.774 145.823C151.932 144.983 152.894 143.853 153.584 142.527C154.273 141.2 154.67 139.713 154.743 138.186C154.798 137.687 154.731 137.18 154.55 136.719C154.368 136.257 154.079 135.857 153.711 135.559C153.438 135.387 153.128 135.303 152.814 135.314Z" fill="#FAFAFA"/>
<path d="M139.881 185.566C139.824 185.552 139.77 185.526 139.723 185.487C139.676 185.462 139.635 185.426 139.602 185.382C139.568 185.338 139.543 185.288 139.527 185.233C139.512 185.178 139.506 185.121 139.511 185.064C139.516 185.006 139.531 184.951 139.556 184.901L154.942 151.577C155.173 151.073 155.509 150.636 155.921 150.301C156.334 149.966 156.812 149.743 157.317 149.649C157.822 149.555 158.34 149.594 158.83 149.761C159.319 149.929 159.766 150.221 160.134 150.614L175.345 166.763C175.382 166.803 175.411 166.851 175.431 166.904C175.451 166.956 175.462 167.013 175.462 167.07C175.462 167.127 175.451 167.183 175.431 167.236C175.411 167.289 175.382 167.336 175.345 167.376C175.308 167.417 175.264 167.45 175.216 167.472C175.167 167.494 175.115 167.506 175.063 167.506C175.011 167.506 174.959 167.494 174.91 167.472C174.862 167.45 174.818 167.417 174.781 167.376L159.57 151.271C159.291 150.975 158.953 150.756 158.583 150.63C158.213 150.504 157.822 150.476 157.44 150.546C157.058 150.617 156.697 150.785 156.384 151.037C156.072 151.289 155.817 151.618 155.64 151.998L140.255 185.33C140.219 185.404 140.165 185.465 140.099 185.507C140.033 185.549 139.958 185.57 139.881 185.566Z" fill="#FAFAFA"/>
<path d="M167.326 159.345C167.274 159.358 167.22 159.358 167.168 159.345C167.073 159.299 166.998 159.214 166.959 159.107C166.92 159.001 166.921 158.882 166.961 158.776L178.87 128.404C179.082 127.852 179.42 127.37 179.85 127.003C180.28 126.636 180.789 126.397 181.327 126.31C181.864 126.222 182.414 126.288 182.922 126.501C183.43 126.714 183.88 127.068 184.229 127.528L195.057 141.97C195.091 142.013 195.117 142.064 195.133 142.118C195.149 142.173 195.155 142.23 195.151 142.287C195.146 142.345 195.132 142.4 195.107 142.451C195.083 142.502 195.05 142.546 195.01 142.583C194.937 142.646 194.847 142.679 194.754 142.677C194.662 142.676 194.573 142.639 194.502 142.574L183.673 128.132C183.413 127.785 183.077 127.517 182.697 127.354C182.316 127.191 181.904 127.139 181.5 127.202C181.096 127.265 180.713 127.442 180.389 127.716C180.065 127.989 179.809 128.35 179.648 128.763L167.739 159.126C167.699 159.205 167.638 159.269 167.564 159.308C167.49 159.347 167.407 159.36 167.326 159.345Z" fill="#FAFAFA"/>
<path d="M206.299 81.7948C203.846 81.7948 202.203 80.1746 202.203 77.7662L202.417 62.5802C202.417 58.4377 202.417 52.1496 206.609 49.4435C207.475 48.8367 208.473 48.4982 209.499 48.4636C210.524 48.4291 211.539 48.6996 212.437 49.2469C213.335 49.7942 214.083 50.5981 214.603 51.5742C215.122 52.5503 215.394 53.6627 215.389 54.7945C215.389 56.0118 215.35 57.5007 215.286 59.2259C215.282 59.3992 215.247 59.5699 215.182 59.7278C215.117 59.8857 215.024 60.0277 214.908 60.1452C214.793 60.2628 214.657 60.3537 214.509 60.4124C214.362 60.4711 214.204 60.4965 214.048 60.4871C213.891 60.4792 213.738 60.4374 213.596 60.364C213.454 60.2906 213.327 60.1871 213.221 60.0593C213.116 59.9316 213.034 59.7822 212.981 59.6197C212.928 59.4571 212.905 59.2846 212.912 59.1121C212.968 57.4569 213.008 55.9593 213.008 54.7945C213.013 54.1234 212.851 53.4634 212.541 52.8862C212.231 52.309 211.783 51.8365 211.246 51.5199C210.71 51.2032 210.105 51.0546 209.498 51.0899C208.89 51.1253 208.303 51.3433 207.8 51.7205C205.029 53.4721 204.799 57.851 204.799 62.5627L204.584 77.7662C204.584 78.9047 205.513 79.1499 206.299 79.1499C207.595 79.1159 208.827 78.5277 209.737 77.5096C210.646 76.4915 211.162 75.1232 211.174 73.6938L211.086 67.6947C211.086 67.3463 211.212 67.0122 211.435 66.7658C211.658 66.5195 211.961 66.3811 212.277 66.3811C212.593 66.3811 212.896 66.5195 213.119 66.7658C213.343 67.0122 213.468 67.3463 213.468 67.6947L213.555 73.7026C213.562 75.8358 212.802 77.8849 211.442 79.4015C210.082 80.918 208.233 81.7786 206.299 81.7948Z" fill="#BA68C8"/>
<path d="M224.177 175.136L141.35 227.893C140.924 228.198 140.568 228.611 140.313 229.096C140.058 229.581 139.91 230.126 139.881 230.686V231.326C139.91 231.887 140.057 232.433 140.312 232.92C140.568 233.407 140.923 233.821 141.35 234.128L210.459 278.145C210.913 278.399 211.415 278.532 211.924 278.532C212.433 278.532 212.935 278.399 213.388 278.145L296.216 225.388C296.642 225.082 296.997 224.67 297.253 224.184C297.508 223.699 297.656 223.154 297.684 222.594V221.946C297.656 221.386 297.508 220.841 297.253 220.356C296.997 219.87 296.642 219.458 296.216 219.152L227.107 175.136C226.653 174.881 226.151 174.748 225.642 174.748C225.133 174.748 224.631 174.881 224.177 175.136Z" fill="#455A64"/>
<path d="M139.881 230.686V231.325C139.91 231.887 140.057 232.433 140.312 232.92C140.568 233.407 140.923 233.821 141.35 234.128L210.459 278.145C210.909 278.406 211.411 278.539 211.92 278.53V270.333L143.311 226.649L141.35 227.901C140.925 228.206 140.57 228.617 140.315 229.101C140.06 229.584 139.911 230.127 139.881 230.686Z" fill="#263238"/>
<path d="M141.35 227.892L224.178 175.135C224.631 174.88 225.133 174.748 225.642 174.748C226.151 174.748 226.653 174.88 227.107 175.135L296.216 219.152C296.394 219.216 296.55 219.341 296.66 219.508C296.77 219.676 296.83 219.877 296.83 220.085C296.83 220.292 296.77 220.493 296.66 220.661C296.55 220.828 296.394 220.953 296.216 221.017L213.389 273.774C212.935 274.029 212.433 274.161 211.924 274.161C211.415 274.161 210.913 274.029 210.459 273.774L141.35 229.757C141.172 229.693 141.016 229.569 140.906 229.401C140.796 229.234 140.736 229.032 140.736 228.825C140.736 228.618 140.796 228.416 140.906 228.248C141.016 228.081 141.172 227.956 141.35 227.892Z" fill="#37474F"/>
<path d="M151.631 229.758L205.306 263.913C205.758 264.171 206.259 264.306 206.767 264.306C207.276 264.306 207.777 264.171 208.228 263.913L280.774 217.716C280.953 217.651 281.108 217.527 281.219 217.359C281.329 217.192 281.388 216.99 281.388 216.783C281.388 216.576 281.329 216.374 281.219 216.207C281.108 216.039 280.953 215.914 280.774 215.85L227.099 181.695C226.644 181.444 226.143 181.314 225.634 181.314C225.126 181.314 224.624 181.444 224.169 181.695L151.631 227.892C151.453 227.956 151.297 228.081 151.187 228.248C151.076 228.416 151.017 228.618 151.017 228.825C151.017 229.032 151.076 229.234 151.187 229.401C151.297 229.569 151.453 229.693 151.631 229.758Z" fill="white"/>
<path d="M168.184 222.532C171.971 220.124 178.116 220.124 181.902 222.532C185.689 224.941 185.697 228.856 181.902 231.29C178.108 233.725 171.971 233.699 168.184 231.29C164.397 228.882 164.397 224.95 168.184 222.532Z" fill="#02897A"/>
<path d="M280.782 215.876L265.095 205.884L217.461 200.988C216.882 200.929 216.298 201.035 215.767 201.295C215.235 201.556 214.773 201.963 214.425 202.477C214.077 202.991 213.854 203.596 213.778 204.232C213.702 204.868 213.776 205.516 213.992 206.112L222.217 228.821L196.018 227.174C195.507 227.14 194.996 227.235 194.523 227.45C194.05 227.666 193.627 227.996 193.286 228.418C192.946 228.839 192.696 229.34 192.556 229.883C192.416 230.426 192.389 230.997 192.477 231.553L196.51 258.343L205.338 263.966C205.79 264.224 206.291 264.358 206.799 264.358C207.308 264.358 207.808 264.224 208.26 263.966L280.806 217.768C280.993 217.708 281.158 217.583 281.274 217.41C281.39 217.237 281.451 217.027 281.448 216.812C281.446 216.597 281.379 216.389 281.259 216.22C281.138 216.051 280.971 215.93 280.782 215.876Z" fill="#02897A"/>
<path d="M280.528 152.357V117.396L321.691 91.1836V126.136L280.528 152.357Z" fill="#EBEBEB"/>
<path d="M280.528 117.395L229.068 84.6238V119.585L280.528 152.357V117.395Z" fill="#E6E6E6"/>
<path d="M280.528 117.395L322.914 90.3951L270.231 56.8352L227.853 83.8443L280.528 117.395Z" fill="#F0F0F0"/>
<path d="M280.528 117.395V126.135L322.914 99.1438V90.3948L280.528 117.395Z" fill="#EBEBEB"/>
<path d="M280.528 126.135L321.691 99.9233V101.841L280.528 128.062V126.135Z" fill="#E6E6E6"/>
<path d="M227.853 83.8442L280.528 117.395V126.136L227.853 92.5845V83.8442Z" fill="#EBEBEB"/>
<g opacity="0.5" style="mix-blend-mode:multiply">
<path d="M280.528 126.136L229.068 93.3643V95.291L280.528 128.063V126.136Z" fill="#E0E0E0"/>
</g>
<path d="M294.08 122.711L308.14 113.752C308.743 113.367 309.235 113.682 309.235 114.453V123.622C309.215 124.043 309.106 124.452 308.915 124.818C308.725 125.183 308.459 125.493 308.14 125.724L294.08 134.692C293.469 135.077 292.984 134.771 292.984 134V124.804C293.002 124.384 293.11 123.975 293.301 123.611C293.492 123.246 293.759 122.938 294.08 122.711Z" fill="#E0E0E0"/>
<path d="M294.977 123.754L307.235 115.942C307.64 115.688 307.973 115.898 307.973 116.406V123.307C307.961 123.589 307.888 123.863 307.76 124.107C307.631 124.351 307.451 124.558 307.235 124.708L294.977 132.52C294.572 132.774 294.247 132.52 294.247 132.047V125.146C294.259 124.867 294.331 124.594 294.458 124.352C294.585 124.11 294.763 123.904 294.977 123.754Z" fill="white"/>
<path d="M280.528 113.008V78.0465L321.691 51.8257V86.7868L280.528 113.008Z" fill="#EBEBEB"/>
<path d="M280.528 78.0469L229.068 45.2751V80.2363L280.528 113.008V78.0469Z" fill="#E6E6E6"/>
<path d="M280.528 78.0465L322.914 51.0375L270.231 17.4863L227.853 44.4866L280.528 78.0465Z" fill="#F5F5F5"/>
<path d="M280.528 78.0469V86.7872L322.914 59.7956V51.0378L280.528 78.0469Z" fill="#EBEBEB"/>
<path d="M280.528 86.787L321.691 60.5662V62.4929L280.528 88.705V86.787Z" fill="#E6E6E6"/>
<path d="M227.853 44.4868L280.528 78.0467V86.787L227.853 53.2359V44.4868Z" fill="#EBEBEB"/>
<g opacity="0.5" style="mix-blend-mode:multiply">
<path d="M280.528 86.7866L229.068 54.0149V55.9329L280.528 88.7046V86.7866Z" fill="#E0E0E0"/>
</g>
<path d="M294.08 83.3627L308.14 74.4035C308.743 74.0181 309.235 74.3334 309.235 75.1041V84.2735C309.214 84.6937 309.103 85.1025 308.913 85.4674C308.723 85.8323 308.458 86.1432 308.14 86.3754L294.08 95.3259C293.469 95.7112 292.984 95.3959 292.984 94.6252V85.4558C293.002 85.0357 293.11 84.6263 293.301 84.262C293.492 83.8978 293.759 83.5894 294.08 83.3627Z" fill="#E0E0E0"/>
<path d="M294.977 84.3958L307.235 76.5926C307.64 76.3387 307.973 76.5401 307.973 77.0568V83.8966C307.958 84.1775 307.883 84.4506 307.755 84.6939C307.626 84.9372 307.448 85.144 307.235 85.2979L294.977 93.1011C294.572 93.3638 294.247 93.1536 294.247 92.6369V85.7621C294.262 85.487 294.337 85.2199 294.464 84.9825C294.59 84.7451 294.766 84.5441 294.977 84.3958Z" fill="white"/>
<path d="M319.469 88.197L280.528 113.008L231.291 81.6287L230.084 82.4169L280.528 114.435L320.684 88.9677L319.469 88.197Z" fill="#E0E0E0"/>
</svg>
