<svg width="338" height="311" viewBox="0 0 338 311" fill="none" xmlns="http://www.w3.org/2000/svg">
<path d="M49.4981 285.239C115.499 319.481 222.501 319.481 288.502 285.239C354.503 250.996 354.495 195.483 288.502 161.241C222.508 126.998 115.499 126.998 49.4981 161.241C-16.5033 195.483 -16.4954 250.996 49.4981 285.239Z" fill="#F5F5F5"/>
<path d="M289.408 200.842C302.271 200.842 312.7 195.907 312.7 189.819C312.7 183.731 302.271 178.796 289.408 178.796C276.544 178.796 266.115 183.731 266.115 189.819C266.115 195.907 276.544 200.842 289.408 200.842Z" fill="#E6E6E6"/>
<path d="M49.0884 265.328C60.8822 265.328 70.443 260.803 70.443 255.221C70.443 249.638 60.8822 245.113 49.0884 245.113C37.2946 245.113 27.7339 249.638 27.7339 255.221C27.7339 260.803 37.2946 265.328 49.0884 265.328Z" fill="#E6E6E6"/>
<path d="M207.637 284.761C219.909 284.761 229.858 280.05 229.858 274.239C229.858 268.428 219.909 263.717 207.637 263.717C195.364 263.717 185.416 268.428 185.416 274.239C185.416 280.05 195.364 284.761 207.637 284.761Z" fill="#E6E6E6"/>
<path d="M97.3431 234.411C109.615 234.411 119.564 229.7 119.564 223.889C119.564 218.078 109.615 213.367 97.3431 213.367C85.0708 213.367 75.1221 218.078 75.1221 223.889C75.1221 229.7 85.0708 234.411 97.3431 234.411Z" fill="#E6E6E6"/>
<path d="M228.109 164.088C228.652 157.603 243.619 133.273 248.195 129.502C252.772 125.731 260.854 116.202 257.372 110.789C253.89 105.375 243.658 107.785 234.048 124.659C226.597 137.748 224.281 166.694 224.281 166.694L228.109 164.088Z" fill="#02897A"/>
<path d="M226.061 163.478H225.998C225.947 163.471 225.898 163.453 225.854 163.426C225.81 163.4 225.772 163.364 225.742 163.323C225.711 163.281 225.69 163.234 225.679 163.184C225.667 163.134 225.666 163.083 225.675 163.032C229.905 135.87 238.892 118.925 253.15 111.227C253.242 111.177 253.35 111.166 253.45 111.195C253.5 111.209 253.546 111.234 253.587 111.266C253.627 111.298 253.661 111.338 253.685 111.383C253.71 111.429 253.726 111.478 253.731 111.529C253.737 111.581 253.732 111.632 253.718 111.682C253.703 111.731 253.679 111.777 253.646 111.817C253.614 111.857 253.573 111.891 253.528 111.915C239.499 119.488 230.645 136.253 226.447 163.157C226.43 163.247 226.383 163.328 226.312 163.387C226.242 163.446 226.153 163.478 226.061 163.478Z" fill="white"/>
<path d="M229.613 132.623C229.613 132.623 241.626 112.001 251.574 102.559C257.088 97.3251 260.475 93.9533 260.176 89.9947C259.956 86.9906 257.443 85.3869 252.039 86.709C241.271 89.3376 235.498 100.173 231.78 112.307C229.141 120.849 229.613 132.623 229.613 132.623Z" fill="#37474F"/>
<path opacity="0.2" d="M229.613 132.623C229.613 132.623 241.626 112.001 251.574 102.559C257.088 97.3251 260.475 93.9533 260.176 89.9947C259.956 86.9906 257.443 85.3869 252.039 86.709C241.271 89.3376 235.498 100.173 231.78 112.307C229.141 120.849 229.613 132.623 229.613 132.623Z" fill="#00FFE3"/>
<path d="M231.008 129.236H230.953C230.849 129.219 230.755 129.161 230.694 129.076C230.632 128.992 230.606 128.886 230.622 128.782C234.899 101.98 251.157 91.888 256.041 89.4315C256.134 89.3851 256.242 89.3772 256.34 89.4094C256.439 89.4417 256.521 89.5115 256.569 89.6036C256.593 89.6491 256.608 89.699 256.612 89.7504C256.616 89.8017 256.61 89.8533 256.594 89.9022C256.578 89.9512 256.552 89.9963 256.518 90.0351C256.484 90.0738 256.442 90.1054 256.395 90.1278C251.598 92.5451 235.624 102.465 231.402 128.907C231.387 129 231.338 129.084 231.266 129.144C231.194 129.205 231.102 129.237 231.008 129.236Z" fill="white"/>
<path d="M296.899 71.751L294.299 66.9006L296.387 60.908V57.2389L289.991 60.908V64.5771L292.74 69.3179C292.783 69.3921 292.849 69.4499 292.929 69.4822L296.899 71.751Z" fill="#11B5E4"/>
<path opacity="0.1" d="M296.899 71.751L294.299 66.9006L296.387 60.908V57.2389L289.991 60.908V64.5771L292.74 69.3179C292.783 69.3921 292.849 69.4499 292.929 69.4822L296.899 71.751Z" fill="black"/>
<path d="M282.058 48.9776L299.671 38.8074C300.266 38.5102 300.923 38.3554 301.589 38.3554C302.255 38.3554 302.912 38.5102 303.507 38.8074L305.083 39.7071C305.643 40.0673 306.109 40.5543 306.443 41.1282C306.778 41.7021 306.97 42.3465 307.005 43.0085V57.1841C306.968 57.8457 306.775 58.4894 306.441 59.0629C306.107 59.6365 305.642 60.1239 305.083 60.4855L287.454 70.6557C286.859 70.9529 286.202 71.1077 285.536 71.1077C284.87 71.1077 284.213 70.9529 283.618 70.6557L282.043 69.756C281.484 69.3945 281.02 68.9069 280.687 68.3332C280.354 67.7595 280.163 67.1158 280.128 66.4546V52.2633C280.169 51.6039 280.365 50.9632 280.7 50.3925C281.035 49.8219 281.5 49.3372 282.058 48.9776Z" fill="#11B5E4"/>
<path opacity="0.3" d="M282.058 48.9776L299.671 38.8074C300.266 38.5102 300.923 38.3554 301.589 38.3554C302.255 38.3554 302.912 38.5102 303.507 38.8074L305.083 39.7071C305.643 40.0673 306.109 40.5543 306.443 41.1282C306.778 41.7021 306.97 42.3465 307.005 43.0085V57.1841C306.968 57.8457 306.775 58.4894 306.441 59.0629C306.107 59.6365 305.642 60.1239 305.083 60.4855L287.454 70.6557C286.859 70.9529 286.202 71.1077 285.536 71.1077C284.87 71.1077 284.213 70.9529 283.618 70.6557L282.043 69.756C281.484 69.3945 281.02 68.9069 280.687 68.3332C280.354 67.7595 280.163 67.1158 280.128 66.4546V52.2633C280.169 51.6039 280.365 50.9632 280.7 50.3925C281.035 49.8219 281.5 49.3372 282.058 48.9776Z" fill="white"/>
<path d="M287.462 70.6401C286.399 71.2425 285.54 70.7574 285.54 69.537V55.3613C285.577 54.6998 285.77 54.0561 286.104 53.4825C286.438 52.9089 286.903 52.4216 287.462 52.0599L305.091 41.8898C306.154 41.2796 307.013 41.7724 307.013 42.9928V57.1685C306.976 57.8301 306.783 58.4737 306.449 59.0473C306.115 59.6209 305.65 60.1083 305.091 60.4699" fill="#11B5E4"/>
<path d="M280.145 66.439C280.179 67.1001 280.371 67.7438 280.703 68.3176C281.036 68.8913 281.5 69.3788 282.059 69.7404L283.634 70.64C284.175 70.9095 284.766 71.0621 285.371 71.0877C285.975 71.1134 286.578 71.0114 287.139 70.7887C286.241 71.1329 285.564 70.6244 285.564 69.537V55.3613C285.589 54.6978 285.785 54.0516 286.131 53.4837L280.727 50.3544C280.384 50.9231 280.191 51.5692 280.168 52.232L280.145 66.439Z" fill="#11B5E4"/>
<path opacity="0.1" d="M280.145 66.439C280.179 67.1001 280.371 67.7438 280.703 68.3176C281.036 68.8913 281.5 69.3788 282.059 69.7404L283.634 70.64C284.175 70.9095 284.766 71.0621 285.371 71.0877C285.975 71.1134 286.578 71.0114 287.139 70.7887C286.241 71.1329 285.564 70.6244 285.564 69.537V55.3613C285.589 54.6978 285.785 54.0516 286.131 53.4837L280.727 50.3544C280.384 50.9231 280.191 51.5692 280.168 52.232L280.145 66.439Z" fill="black"/>
<path d="M294 66.8772L296.749 71.6102C296.79 71.6769 296.849 71.7308 296.919 71.7658C296.989 71.8008 297.067 71.8154 297.145 71.8081C297.224 71.8007 297.298 71.7717 297.36 71.7242C297.423 71.6768 297.47 71.6128 297.497 71.5398L300.404 63.2081V59.539L294 63.2081V66.8772Z" fill="#11B5E4"/>
<path d="M296.284 62.0345L294.315 61.5182C292.44 61.0253 290.203 59.9535 290.203 57.5518C290.298 56.5733 290.623 55.6306 291.152 54.8001C291.682 53.9697 292.401 53.2748 293.252 52.7718C293.53 52.5738 293.857 52.4537 294.199 52.4241C294.54 52.3945 294.883 52.4565 295.192 52.6036C295.501 52.7507 295.765 52.9774 295.956 53.2602C296.146 53.543 296.257 53.8715 296.276 54.2113C296.473 52.6467 297.749 50.1902 299.301 49.2983C300.987 48.3361 302.349 48.9072 302.349 50.5813C302.349 52.9752 300.12 56.6208 298.246 59.2651L296.284 62.0345Z" fill="white"/>
<path d="M35.8707 108.982L53.4994 98.8505C54.0934 98.5497 54.7507 98.3929 55.4175 98.3929C56.0843 98.3929 56.7415 98.5497 57.3355 98.8505L58.9109 99.7424C59.468 100.105 59.9315 100.593 60.264 101.167C60.5964 101.74 60.7886 102.383 60.825 103.044V117.219C60.7886 117.88 60.5964 118.523 60.264 119.097C59.9315 119.67 59.468 120.158 58.9109 120.521L41.3058 130.652C40.7105 130.953 40.0519 131.11 39.3839 131.11C38.7158 131.11 38.0573 130.953 37.4619 130.652L35.8865 129.76C35.3204 129.397 34.8494 128.906 34.5125 128.326C34.1755 127.747 33.9823 127.096 33.9487 126.427V112.283C33.9835 111.621 34.1759 110.977 34.51 110.403C34.8441 109.829 35.3104 109.342 35.8707 108.982Z" fill="#FF7800"/>
<path opacity="0.3" d="M35.8707 108.982L53.4994 98.8505C54.0934 98.5497 54.7507 98.3929 55.4175 98.3929C56.0843 98.3929 56.7415 98.5497 57.3355 98.8505L58.9109 99.7424C59.468 100.105 59.9315 100.593 60.264 101.167C60.5964 101.74 60.7886 102.383 60.825 103.044V117.219C60.7886 117.88 60.5964 118.523 60.264 119.097C59.9315 119.67 59.468 120.158 58.9109 120.521L41.3058 130.652C40.7105 130.953 40.0519 131.11 39.3839 131.11C38.7158 131.11 38.0573 130.953 37.4619 130.652L35.8865 129.76C35.3204 129.397 34.8494 128.906 34.5125 128.326C34.1755 127.747 33.9823 127.096 33.9487 126.427V112.283C33.9835 111.621 34.1759 110.977 34.51 110.403C34.8441 109.829 35.3104 109.342 35.8707 108.982Z" fill="white"/>
<path d="M50.703 131.771L48.1036 126.912L50.1989 120.92V117.251L43.7949 120.951V124.62L46.5519 129.314C46.5935 129.386 46.6569 129.444 46.733 129.478L50.703 131.771Z" fill="#FF7800"/>
<path opacity="0.1" d="M50.703 131.771L48.1036 126.912L50.1989 120.92V117.251L43.7949 120.951V124.62L46.5519 129.314C46.5935 129.386 46.6569 129.444 46.733 129.478L50.703 131.771Z" fill="black"/>
<path d="M41.3058 130.652C40.2424 131.262 39.3838 130.769 39.3838 129.549V115.373C39.4204 114.713 39.6136 114.07 39.9476 113.498C40.2816 112.925 40.747 112.44 41.3058 112.08L58.9424 101.909C59.9979 101.307 60.8565 101.8 60.8565 103.013V117.188C60.8201 117.849 60.6279 118.492 60.2954 119.065C59.9629 119.639 59.4995 120.127 58.9424 120.49" fill="#FF7800"/>
<path d="M33.9487 126.427C33.9854 127.089 34.1785 127.733 34.5125 128.306C34.8464 128.88 35.3117 129.367 35.8707 129.729L37.4461 130.621C37.988 130.89 38.5807 131.043 39.1859 131.07C39.7912 131.096 40.3953 130.997 40.9593 130.777C40.0534 131.113 39.3839 130.605 39.3839 129.518V115.373C39.407 114.71 39.5994 114.064 39.9431 113.496L34.5474 110.405C34.2009 110.973 34.0058 111.619 33.9802 112.283L33.9487 126.427Z" fill="#FF7800"/>
<path opacity="0.1" d="M33.9487 126.427C33.9854 127.089 34.1785 127.733 34.5125 128.306C34.8464 128.88 35.3117 129.367 35.8707 129.729L37.4461 130.621C37.988 130.89 38.5807 131.043 39.1859 131.07C39.7912 131.096 40.3953 130.997 40.9593 130.777C40.0534 131.113 39.3839 130.605 39.3839 129.518V115.373C39.407 114.71 39.5994 114.064 39.9431 113.496L34.5474 110.405C34.2009 110.973 34.0058 111.619 33.9802 112.283L33.9487 126.427Z" fill="black"/>
<path d="M47.812 126.889L50.5611 131.583C50.6005 131.65 50.6584 131.705 50.7281 131.74C50.7977 131.776 50.8761 131.79 50.954 131.783C51.0319 131.776 51.106 131.746 51.1676 131.698C51.2292 131.65 51.2757 131.586 51.3015 131.513L54.2081 123.181V119.512L47.812 123.181V126.889Z" fill="#FF7800"/>
<path d="M43.4327 118.424C42.9014 118.764 42.4601 119.225 42.1461 119.77C41.8322 120.315 41.6548 120.926 41.6289 121.554C41.6289 122.696 42.4166 123.118 43.4327 122.586C43.9605 122.243 44.3991 121.78 44.7126 121.236C45.0261 120.693 45.2056 120.083 45.2366 119.457C45.2444 118.315 44.4567 117.822 43.4327 118.424Z" fill="white"/>
<path d="M50.0886 114.599C49.5584 114.94 49.1177 115.402 48.8027 115.946C48.4877 116.49 48.3074 117.101 48.2769 117.728C48.2769 118.87 49.0646 119.332 50.0886 118.761C50.6164 118.417 51.0549 117.955 51.3684 117.411C51.6819 116.867 51.8614 116.257 51.8924 115.631C51.8924 114.489 51.0811 114.028 50.0886 114.599Z" fill="white"/>
<path d="M56.7369 110.781C56.2091 111.124 55.7706 111.587 55.4571 112.131C55.1436 112.675 54.9641 113.284 54.9331 113.91C54.9331 115.052 55.7208 115.475 56.7369 114.943C57.2683 114.603 57.7096 114.142 58.0236 113.597C58.3375 113.052 58.5149 112.441 58.5408 111.814C58.5408 110.664 57.7373 110.202 56.7369 110.781Z" fill="white"/>
<path d="M222.8 6.28642L146.22 50.1746C145.227 50.8179 144.401 51.6843 143.809 52.7037C143.216 53.7231 142.874 54.8667 142.809 56.042V224.39C142.809 226.549 144.337 227.425 146.22 226.346L222.8 182.457C223.792 181.814 224.618 180.948 225.211 179.928C225.804 178.909 226.146 177.765 226.211 176.59V8.24222C226.211 6.08302 224.683 5.20682 222.8 6.28642Z" fill="#37474F"/>
<path d="M146.22 50.1746L222.8 6.28642C224.486 5.32416 225.88 5.92655 226.156 7.60854C226 6.5503 225.621 5.53678 225.042 4.63469C224.464 3.7326 223.7 2.96241 222.8 2.37481L220.02 0.810171C218.963 0.277567 217.794 0 216.609 0C215.424 0 214.255 0.277567 213.198 0.810171L136.618 44.6749C135.61 45.2991 134.781 46.169 134.208 47.2018L143.81 52.6781C144.386 51.6538 145.215 50.7922 146.22 50.1746Z" fill="#455A64"/>
<path d="M133.207 218.882C133.27 220.058 133.612 221.202 134.205 222.221C134.798 223.241 135.624 224.107 136.618 224.75L139.398 226.314C140.36 226.795 141.413 227.069 142.488 227.116C143.563 227.163 144.637 226.983 145.637 226.588C144.062 227.19 142.809 226.291 142.809 224.358V56.0185C142.849 54.8382 143.193 53.6879 143.809 52.678L134.207 47.2018C133.593 48.2124 133.248 49.3623 133.207 50.5423V218.882Z" fill="#263238"/>
<path d="M148.055 71.1408L220.965 29.357C222.091 28.7077 223.013 29.2318 223.013 30.5305V157.978C222.973 158.683 222.766 159.369 222.411 159.981C222.055 160.592 221.56 161.112 220.965 161.499L148.055 203.275C146.929 203.924 146.007 203.4 146.007 202.101V74.6612C146.045 73.9556 146.25 73.2689 146.606 72.6571C146.962 72.0453 147.459 71.5258 148.055 71.1408Z" fill="#FAFAFA"/>
<path d="M183.738 34.7629C183.389 34.9901 183.1 35.2953 182.892 35.654C182.684 36.0127 182.563 36.4149 182.541 36.8282C182.541 37.6106 183.076 37.9 183.738 37.5167C184.087 37.2904 184.378 36.9854 184.586 36.6265C184.794 36.2676 184.914 35.8649 184.935 35.4514C184.935 34.6925 184.4 34.3874 183.738 34.7629Z" fill="#263238"/>
<path d="M172.403 46.8733C171.711 47.3302 171.137 47.9419 170.727 48.6593C170.316 49.3768 170.081 50.1798 170.04 51.004C170.04 52.5217 171.111 53.1397 172.403 52.3808C173.103 51.9288 173.685 51.319 174.102 50.6013C174.52 49.8835 174.761 49.0779 174.806 48.2502C174.806 46.7325 173.726 46.1145 172.403 46.8733Z" fill="#263238"/>
<path d="M178.271 46.3569C178.271 47.3739 179.059 47.7572 179.981 47.2174L195.735 38.166C196.221 37.862 196.628 37.4486 196.924 36.9594C197.219 36.4701 197.395 35.9187 197.436 35.3496C197.436 34.3404 196.649 33.9571 195.735 34.4969L179.981 43.5484C179.494 43.8503 179.085 44.2619 178.788 44.7498C178.491 45.2378 178.314 45.7883 178.271 46.3569Z" fill="#263238"/>
<path d="M138.516 76.179C139.076 76.5393 139.543 77.0263 139.877 77.6002C140.211 78.1741 140.403 78.8184 140.438 79.4804C140.438 80.693 139.58 81.1859 138.516 80.5835C137.958 80.2193 137.495 79.7301 137.162 79.1553C136.83 78.5805 136.638 77.9362 136.602 77.2743C136.618 76.0617 137.461 75.5766 138.516 76.179Z" fill="#37474F"/>
<path d="M138.516 90.863C139.075 91.2246 139.54 91.712 139.874 92.2856C140.208 92.8592 140.401 93.5029 140.438 94.1644C140.438 95.3849 139.579 95.8777 138.516 95.2675C137.967 94.9067 137.51 94.4243 137.18 93.8582C136.851 93.2921 136.658 92.6578 136.618 92.0052C136.618 90.7535 137.461 90.2606 138.516 90.863Z" fill="#37474F"/>
<path d="M137.925 76.4684C138.484 76.83 138.95 77.3174 139.284 77.891C139.618 78.4646 139.811 79.1082 139.847 79.7698C139.847 80.9902 138.989 81.4831 137.925 80.8729C137.367 80.5103 136.903 80.0227 136.569 79.4494C136.235 78.876 136.041 78.2327 136.003 77.5715C136.003 76.3589 136.87 75.866 137.925 76.4684Z" fill="#455A64"/>
<path d="M137.925 91.1604C138.484 91.5221 138.95 92.0094 139.284 92.583C139.618 93.1566 139.811 93.8003 139.847 94.4618C139.847 95.6823 138.989 96.1751 137.925 95.5649C137.367 95.2024 136.903 94.7148 136.569 94.1414C136.235 93.568 136.041 92.9248 136.003 92.2635C136.003 91.0431 136.87 90.5502 137.925 91.1604Z" fill="#455A64"/>
<path d="M184.51 188.012C183.133 188.905 181.988 190.108 181.166 191.523C180.345 192.938 179.872 194.525 179.784 196.156C179.784 199.16 181.903 200.372 184.51 198.878C185.887 197.984 187.032 196.779 187.853 195.363C188.675 193.947 189.148 192.358 189.236 190.726C189.244 187.722 187.125 186.51 184.51 188.012Z" fill="#263238"/>
<path d="M163.171 201.46C162.502 201.46 162.431 200.678 162.431 200.396V72.9559C162.472 72.3195 162.66 71.7012 162.981 71.149C163.302 70.5967 163.747 70.1255 164.282 69.7719L237.191 27.9881C237.409 27.8588 237.655 27.7837 237.908 27.769C238.578 27.769 238.648 28.5044 238.648 28.8252V156.273C238.608 156.909 238.42 157.526 238.098 158.077C237.777 158.628 237.332 159.098 236.797 159.449L163.888 201.233C163.673 201.369 163.426 201.447 163.171 201.46Z" fill="white" stroke="#141414" stroke-miterlimit="10"/>
<path d="M237.908 28.1602C238.207 28.1602 238.254 28.5748 238.254 28.8251V156.273C238.215 156.84 238.045 157.391 237.758 157.883C237.472 158.375 237.076 158.796 236.6 159.113L163.691 200.897C163.534 200.995 163.356 201.054 163.171 201.069C162.872 201.069 162.824 200.646 162.824 200.396V72.9558C162.864 72.3886 163.034 71.8379 163.32 71.3457C163.607 70.8535 164.003 70.4329 164.478 70.116L237.388 28.3323C237.543 28.2308 237.722 28.1714 237.908 28.1602ZM237.908 27.3778C237.584 27.3886 237.27 27.483 236.994 27.6516L164.085 69.4354C163.488 69.8204 162.992 70.34 162.636 70.9518C162.28 71.5636 162.074 72.2503 162.037 72.9558V200.396C162.037 201.319 162.501 201.851 163.171 201.851C163.495 201.837 163.81 201.74 164.085 201.569L236.994 159.793C237.59 159.408 238.086 158.888 238.442 158.277C238.798 157.665 239.004 156.978 239.042 156.273V28.8251C239.042 27.9098 238.577 27.3778 237.908 27.3778Z" fill="#37474F" stroke="#141414" stroke-miterlimit="10"/>
<path d="M239.019 28.8251C239.019 27.5265 238.105 27.0023 236.971 27.6516L164.061 69.4354C163.465 69.8204 162.968 70.34 162.612 70.9518C162.256 71.5636 162.051 72.2503 162.013 72.9558V83.3998L239.019 39.2691V28.8251Z" fill="#37474F"/>
<path opacity="0.1" d="M239.019 28.8251C239.019 27.5265 238.105 27.0023 236.971 27.6516L164.061 69.4354C163.465 69.8204 162.968 70.34 162.612 70.9518C162.256 71.5636 162.051 72.2503 162.013 72.9558V83.3998L239.019 39.2691V28.8251Z" fill="black"/>
<path d="M170.072 71.8448C169.942 71.7962 169.802 71.78 169.665 71.7978C169.528 71.8155 169.397 71.8666 169.284 71.9465C168.879 72.2135 168.542 72.57 168.298 72.988C168.055 73.406 167.913 73.8743 167.882 74.3561C167.862 74.4948 167.88 74.6361 167.934 74.7655C167.988 74.8948 168.076 75.0074 168.189 75.0915C168.318 75.1443 168.459 75.1619 168.598 75.1427C168.736 75.1234 168.867 75.068 168.977 74.9819C169.379 74.7149 169.714 74.3593 169.956 73.9428C170.198 73.5263 170.34 73.06 170.371 72.5802C170.392 72.4423 170.375 72.3014 170.322 72.1721C170.269 72.0428 170.183 71.9298 170.072 71.8448Z" fill="white"/>
<path d="M171.734 69.1772L171.56 69.2789V68.9269C171.56 68.434 171.214 68.2306 170.773 68.4809L167.464 70.3742C167.237 70.5204 167.047 70.7177 166.91 70.95C166.773 71.1823 166.693 71.4433 166.677 71.7119V72.0718L166.495 72.1735C166.193 72.3686 165.941 72.6319 165.761 72.9418C165.58 73.2517 165.475 73.5996 165.456 73.9572V77.1412C165.456 77.7984 165.92 78.0722 166.495 77.7436L171.718 74.7473C172.021 74.551 172.273 74.2864 172.453 73.9751C172.634 73.6638 172.738 73.3146 172.758 72.9558V69.7561C172.773 69.1146 172.309 68.8486 171.734 69.1772ZM169.276 75.4983C169.021 75.6527 168.731 75.739 168.433 75.7487C168.24 75.7505 168.05 75.7019 167.882 75.6079C167.678 75.4714 167.514 75.2835 167.408 75.0636C167.301 74.8436 167.255 74.5995 167.275 74.3562C167.303 73.77 167.471 73.1989 167.767 72.691C168.064 72.1832 168.478 71.7535 168.977 71.4381C169.177 71.2948 169.412 71.2089 169.658 71.1895C169.904 71.1702 170.151 71.2183 170.371 71.3286C170.575 71.4643 170.738 71.6522 170.844 71.8726C170.949 72.0929 170.993 72.3374 170.969 72.5803C170.942 73.1655 170.773 73.7357 170.479 74.2432C170.184 74.7508 169.772 75.1811 169.276 75.4983ZM171.639 71.2504C171.371 71.399 171.159 71.2504 171.159 70.9687C171.167 70.8025 171.214 70.6407 171.298 70.4965C171.381 70.3523 171.498 70.2299 171.639 70.1395C171.907 69.983 172.127 70.1395 172.127 70.4133C172.121 70.5783 172.077 70.7398 171.998 70.885C171.918 71.0302 171.806 71.1552 171.671 71.2504H171.639Z" fill="white"/>
<path d="M234.828 32.0404L229.732 34.9585C229.437 35.1496 229.191 35.4072 229.014 35.7103C228.838 36.0133 228.735 36.3535 228.716 36.7031V39.8324C228.716 40.466 229.173 40.732 229.732 40.4113L232.765 38.6745L233.954 39.8558C233.982 39.8816 234.017 39.8987 234.054 39.9052C234.092 39.9116 234.131 39.9071 234.166 39.8922C234.201 39.8773 234.23 39.8526 234.252 39.8212C234.273 39.7897 234.284 39.7529 234.285 39.715V37.7983L234.828 37.4854C235.128 37.2969 235.379 37.0405 235.559 36.7373C235.74 36.434 235.846 36.0925 235.868 35.7408V32.6115C235.868 31.9779 235.388 31.7197 234.828 32.0404Z" fill="white"/>
<path d="M171.852 81.538C174.514 80.0359 176.672 81.2563 176.672 84.2761C176.577 85.9277 176.09 87.5337 175.253 88.9636C174.415 90.3936 173.25 91.6073 171.852 92.5061C169.181 94.0708 167.023 92.8112 167.023 89.768C167.112 88.1141 167.597 86.505 168.437 85.0739C169.276 83.6428 170.447 82.4308 171.852 81.538Z" fill="#37474F"/>
<path d="M181.446 77.853L197.444 68.6842C198.389 68.1444 199.153 68.5277 199.153 69.5369C199.111 70.1069 198.935 70.659 198.638 71.1484C198.341 71.6378 197.932 72.0506 197.444 72.3533L181.446 81.5221C180.508 82.0619 179.744 81.6785 179.744 80.6693C179.785 80.1003 179.961 79.5489 180.257 79.0596C180.552 78.5704 180.959 78.157 181.446 77.853Z" fill="#37474F"/>
<g opacity="0.7">
<path opacity="0.7" d="M181.446 77.853L197.444 68.6842C198.389 68.1444 199.153 68.5277 199.153 69.5369C199.111 70.1069 198.935 70.659 198.638 71.1484C198.341 71.6378 197.932 72.0506 197.444 72.3533L181.446 81.5221C180.508 82.0619 179.744 81.6785 179.744 80.6693C179.785 80.1003 179.961 79.5489 180.257 79.0596C180.552 78.5704 180.959 78.157 181.446 77.853Z" fill="white"/>
</g>
<path d="M180.91 84.3542L191.883 78.0956C192.529 77.7279 193.048 77.9861 193.048 78.6823C193.02 79.0726 192.9 79.4509 192.698 79.7866C192.495 80.1222 192.216 80.4059 191.883 80.6147L180.91 86.8732C180.264 87.2409 179.744 86.9749 179.744 86.2787C179.773 85.8896 179.893 85.5126 180.096 85.1783C180.298 84.844 180.577 84.5617 180.91 84.3542Z" fill="#37474F"/>
<g opacity="0.7">
<path opacity="0.7" d="M180.91 84.3542L191.883 78.0956C192.529 77.7279 193.048 77.9861 193.048 78.6823C193.02 79.0726 192.9 79.4509 192.698 79.7866C192.495 80.1222 192.216 80.4059 191.883 80.6147L180.91 86.8732C180.264 87.2409 179.744 86.9749 179.744 86.2787C179.773 85.8896 179.893 85.5126 180.096 85.1783C180.298 84.844 180.577 84.5617 180.91 84.3542Z" fill="white"/>
</g>
<path d="M171.852 163.791C174.514 162.289 176.672 163.517 176.672 166.529C176.577 168.181 176.09 169.787 175.253 171.217C174.415 172.647 173.25 173.86 171.852 174.759C169.181 176.324 167.023 175.064 167.023 172.021C167.114 170.368 167.6 168.759 168.439 167.329C169.279 165.898 170.448 164.685 171.852 163.791Z" fill="#37474F"/>
<path d="M181.446 160.114L197.444 150.938C198.389 150.398 199.153 150.781 199.153 151.79C199.111 152.36 198.935 152.912 198.638 153.402C198.341 153.891 197.932 154.304 197.444 154.607L181.446 163.783C180.508 164.323 179.744 163.94 179.744 162.923C179.787 162.355 179.963 161.805 180.258 161.317C180.554 160.83 180.96 160.418 181.446 160.114Z" fill="#37474F"/>
<g opacity="0.7">
<path opacity="0.7" d="M181.446 160.114L197.444 150.938C198.389 150.398 199.153 150.781 199.153 151.79C199.111 152.36 198.935 152.912 198.638 153.402C198.341 153.891 197.932 154.304 197.444 154.607L181.446 163.783C180.508 164.323 179.744 163.94 179.744 162.923C179.787 162.355 179.963 161.805 180.258 161.317C180.554 160.83 180.96 160.418 181.446 160.114Z" fill="white"/>
</g>
<path d="M180.91 166.608L191.883 160.349C192.529 159.981 193.048 160.24 193.048 160.936C193.02 161.326 192.9 161.704 192.698 162.04C192.495 162.376 192.216 162.659 191.883 162.868L180.91 169.127C180.264 169.494 179.744 169.228 179.744 168.54C179.772 168.149 179.892 167.771 180.094 167.435C180.297 167.099 180.576 166.816 180.91 166.608Z" fill="#37474F"/>
<g opacity="0.7">
<path opacity="0.7" d="M180.91 166.608L191.883 160.349C192.529 159.981 193.048 160.24 193.048 160.936C193.02 161.326 192.9 161.704 192.698 162.04C192.495 162.376 192.216 162.659 191.883 162.868L180.91 169.127C180.264 169.494 179.744 169.228 179.744 168.54C179.772 168.149 179.892 167.771 180.094 167.435C180.297 167.099 180.576 166.816 180.91 166.608Z" fill="white"/>
</g>
<path d="M170.355 97.0591L230.937 62.324C231.882 61.7842 232.646 62.2223 232.646 63.3019V123.392C232.614 123.981 232.442 124.555 232.145 125.066C231.848 125.577 231.434 126.011 230.937 126.334L170.355 161.272C169.41 161.812 168.653 161.374 168.653 160.294V99.9928C168.684 99.4052 168.854 98.8331 169.15 98.3233C169.445 97.8134 169.858 97.3802 170.355 97.0591Z" fill="#F5F5F5"/>
<path d="M192.592 110.82C192.437 110.595 192.223 110.416 191.974 110.303C191.724 110.19 191.448 110.147 191.176 110.178C190.903 110.21 190.644 110.314 190.427 110.481C190.211 110.648 190.044 110.871 189.945 111.125L168.677 151.243V160.294C168.677 161.374 169.465 161.812 170.379 161.272L230.961 126.514C231.458 126.191 231.872 125.757 232.169 125.246C232.466 124.735 232.638 124.161 232.67 123.572V103.545L221.162 83.2433C220.524 82.109 219.634 82.1794 219.169 83.392L203.848 123.721L192.592 110.82Z" fill="#37474F"/>
<g opacity="0.3">
<path opacity="0.3" d="M192.592 110.82C192.437 110.595 192.223 110.416 191.974 110.303C191.724 110.19 191.448 110.147 191.176 110.178C190.903 110.21 190.644 110.314 190.427 110.481C190.211 110.648 190.044 110.871 189.945 111.125L168.677 151.243V160.294C168.677 161.374 169.465 161.812 170.379 161.272L230.961 126.514C231.458 126.191 231.872 125.757 232.169 125.246C232.466 124.735 232.638 124.161 232.67 123.572V103.545L221.162 83.2433C220.524 82.109 219.634 82.1794 219.169 83.392L203.848 123.721L192.592 110.82Z" fill="#00564C"/>
</g>
<path d="M175.042 113.316C180.382 110.273 184.722 102.856 184.722 96.754C184.722 93.6248 183.588 91.4812 181.784 90.4955L170.355 97.0435C169.858 97.3647 169.445 97.7978 169.15 98.3077C168.854 98.8175 168.684 99.3896 168.653 99.9772V114.169C170.355 114.927 172.584 114.693 175.042 113.316Z" fill="#37474F"/>
<g opacity="0.6">
<path opacity="0.6" d="M175.042 113.316C180.382 110.273 184.722 102.856 184.722 96.754C184.722 93.6248 183.588 91.4812 181.784 90.4955L170.355 97.0435C169.858 97.3647 169.445 97.7978 169.15 98.3077C168.854 98.8175 168.684 99.3896 168.653 99.9772V114.169C170.355 114.927 172.584 114.693 175.042 113.316Z" fill="white"/>
</g>
<path d="M170.355 179.625L230.937 144.882C231.882 144.343 232.646 144.726 232.646 145.743C232.603 146.312 232.426 146.862 232.129 147.35C231.832 147.838 231.424 148.25 230.937 148.552L170.355 183.294C169.41 183.834 168.653 183.451 168.653 182.434C168.693 181.866 168.868 181.315 169.164 180.827C169.46 180.338 169.868 179.927 170.355 179.625Z" fill="#37474F"/>
<g opacity="0.6">
<path opacity="0.6" d="M170.355 179.625L230.937 144.882C231.882 144.343 232.646 144.726 232.646 145.743C232.603 146.312 232.426 146.862 232.129 147.35C231.832 147.838 231.424 148.25 230.937 148.552L170.355 183.294C169.41 183.834 168.653 183.451 168.653 182.434C168.693 181.866 168.868 181.315 169.164 180.827C169.46 180.338 169.868 179.927 170.355 179.625Z" fill="white"/>
</g>
<path d="M170.355 186.963L230.937 152.244C231.882 151.704 232.646 152.088 232.646 153.105C232.603 153.673 232.426 154.224 232.129 154.712C231.832 155.2 231.424 155.611 230.937 155.913L170.355 190.656C169.41 191.196 168.653 190.812 168.653 189.795C168.69 189.223 168.864 188.668 169.16 188.176C169.456 187.683 169.865 187.268 170.355 186.963Z" fill="#37474F"/>
<g opacity="0.6">
<path opacity="0.6" d="M170.355 186.963L230.937 152.244C231.882 151.704 232.646 152.088 232.646 153.105C232.603 153.673 232.426 154.224 232.129 154.712C231.832 155.2 231.424 155.611 230.937 155.913L170.355 190.656C169.41 191.196 168.653 190.812 168.653 189.795C168.69 189.223 168.864 188.668 169.16 188.176C169.456 187.683 169.865 187.268 170.355 186.963Z" fill="white"/>
</g>
<path d="M179.697 64.3503L222.918 39.5898C224.241 38.8075 225.281 39.449 225.281 40.9589C225.24 41.7788 225.005 42.5774 224.594 43.2898C224.184 44.0022 223.609 44.6082 222.918 45.0583L179.705 69.7483C178.382 70.5306 177.342 69.9048 177.342 68.4184C177.387 67.6046 177.623 66.8126 178.032 66.1061C178.441 65.3996 179.011 64.7982 179.697 64.3503Z" fill="#FAFAFA"/>
<path d="M306.682 111.313L309.746 116.891L304.981 120.951L300.609 114.075L306.682 111.313Z" fill="#F28F8F"/>
<path d="M295.182 98.882C298.222 98.882 301.57 100.009 302.72 102.379L307.446 112.111C307.446 112.111 304.76 116.023 300.499 115.741L295.182 98.882Z" fill="#E0E0E0"/>
<path d="M306.445 117.759C307.336 116.117 307.556 116.038 308.084 115.678C308.612 115.319 311.857 114.841 313.204 114.724C314.779 114.591 315.354 114.88 314.913 116.234C313.7 119.647 312.214 122.959 310.471 126.138C310.045 126.693 309.966 127.21 308.178 127.39C306.516 127.546 304.429 127.64 303.815 127.671C303.2 127.703 302.349 127.867 302.893 126.068C303.596 124.035 304.411 122.042 305.335 120.099C306.02 118.604 306.445 117.759 306.445 117.759Z" fill="#37474F"/>
<path d="M270.952 173.108C270.164 172.717 269.715 173.672 269.03 174.438C268.441 175.002 267.982 175.685 267.683 176.441C267.517 177.341 268.345 178.788 269.258 179.57C270.172 180.353 271.227 180.924 271.558 182.645C271.644 183.435 271.952 184.184 272.448 184.807C272.945 185.43 273.608 185.901 274.363 186.165C276.332 187.01 278.971 186.736 279.876 186.165C280.932 185.485 279.963 184.734 278.482 182.621C276.544 179.868 275.032 177.928 275.032 175.322L270.952 173.108Z" fill="#263238"/>
<path d="M272.503 170.848L270.928 173.195C270.588 173.674 270.454 174.268 270.554 174.846C270.654 175.424 270.982 175.938 271.464 176.277L271.511 176.316C271.995 176.602 272.565 176.71 273.122 176.623C273.678 176.536 274.187 176.259 274.559 175.839L277.048 173.148L272.503 170.848Z" fill="#FFA8A7"/>
<path d="M301.759 125.598C301.861 128.555 301.018 140.501 298.962 145.782C296.907 151.063 295.717 154.348 295.071 155.452C294.425 156.555 275.788 174.564 275.788 174.564C275.788 174.564 272.637 174.337 272.125 171.294C272.125 171.294 279.758 158.401 281.412 155.757C283.067 153.112 288.927 149.06 288.927 149.06L288.391 125.935L301.759 125.598Z" fill="#37474F"/>
<path d="M274.15 122.719C274.15 122.211 275.725 116.367 276.513 113.668L282.287 115.639L280.932 119.895L275.851 125.113C275.313 125.007 274.836 124.699 274.52 124.253C274.203 123.808 274.071 123.259 274.15 122.719Z" fill="#FFA8A7"/>
<path d="M297.653 188.533L301.593 187.644L300.289 181.945L296.348 182.835L297.653 188.533Z" fill="#FFA8A7"/>
<path d="M301.758 125.598H282.854C282.441 128.339 282.204 131.104 282.145 133.875C281.995 142.011 289.62 156.789 289.62 156.789C289.254 160.077 289.419 163.402 290.108 166.639C291.778 173.116 296.331 184.092 296.331 184.092C296.331 184.092 299.191 184.491 300.601 182.856C300.601 182.856 298.08 160.584 297.403 154.881C296.67 148.7 294.779 137.427 294.779 137.427C296.027 136.192 297.158 134.846 298.159 133.406C299.912 131.087 301.138 128.418 301.751 125.583" fill="#37474F"/>
<path d="M288.943 99.0461C285.319 99.9145 280.381 101.041 278.955 104.937C277.529 108.833 275.473 115.741 275.473 115.741C276.261 117.11 280.633 118.244 282.153 117.454L282.862 115.107V125.575C285.697 128.641 295.575 130.065 301.767 125.575V106.017C301.767 102.887 300.018 99.1321 295.189 98.8583L288.943 99.0461Z" fill="#11B5E4"/>
<path d="M282.862 115.131L284.681 109.443L282.862 117.673V115.131Z" fill="#E0E0E0"/>
<path d="M287.58 83.0633C287.255 83.0274 286.926 83.065 286.618 83.1734C286.309 83.2818 286.03 83.4581 285.8 83.6891C285.012 84.4715 285.193 85.9031 285.8 89.2123L288.163 89.4783L287.58 83.0633Z" fill="#263238"/>
<path d="M301.373 82.1089C301.869 82.1141 302.362 82.021 302.822 81.8351C303.547 81.4205 303.736 82.2419 303.334 82.9538C303.072 83.464 302.682 83.8987 302.202 84.2165C301.722 84.5343 301.168 84.7245 300.593 84.7688C300.593 84.6671 299.916 82.9304 299.916 82.9304L301.373 82.1089Z" fill="#263238"/>
<path d="M288.691 89.4785C288.344 89.6897 287.84 89.0169 287.407 88.571C287.237 88.3766 287.021 88.2284 286.777 88.1405C286.534 88.0526 286.272 88.0279 286.017 88.0686C285.761 88.1093 285.52 88.2142 285.317 88.3733C285.113 88.5325 284.954 88.7405 284.855 88.9778C284.138 90.4798 285.768 92.4826 286.729 93.1397C286.996 93.3711 287.329 93.5125 287.682 93.5434C288.034 93.5744 288.388 93.4933 288.691 93.3118L288.943 99.0619C289.367 99.9829 290.015 100.786 290.827 101.398C291.639 102.011 292.591 102.415 293.598 102.575C297.001 103.028 296.3 100.228 295.173 98.882V96.7932C296.025 96.9717 296.9 97.014 297.765 96.9183C298.206 96.801 299.262 95.5336 299.947 94.1098C301.4 91.2589 301.723 87.9702 300.853 84.8941C299.632 79.7464 294.063 79.5899 290.747 81.6631C287.43 83.7362 288.691 89.4785 288.691 89.4785Z" fill="#FFA8A7"/>
<path d="M288.691 90.0652C288.517 90.0652 287.848 88.9621 287.407 88.571C286.8 88.0233 287.58 83.0947 287.58 83.0947C287.413 82.565 287.379 82.0025 287.482 81.4568C287.585 80.9112 287.822 80.399 288.171 79.9654C289.368 78.7137 291.684 78.9249 293.378 78.8702C295.461 78.8783 297.525 78.4658 299.443 77.6576C301.853 76.6171 302.034 76.4997 302.326 77.548C302.559 78.4144 302.587 79.3224 302.41 80.2015C302.232 81.0807 301.853 81.9074 301.302 82.6175L300.514 83.8848C300.514 83.8848 299.782 84.4951 297.537 84.7689C295.292 85.0427 291.463 83.8379 290.983 83.7753C290.329 83.6893 290.195 84.3151 289.841 86.0284C289.541 87.507 289.289 90.0574 288.691 90.0652Z" fill="#263238"/>
<path d="M287.588 83.4552L285.461 82.3204C285.529 82.1824 285.624 82.0592 285.74 81.9577C285.856 81.8562 285.991 81.7785 286.138 81.729C286.284 81.6796 286.439 81.6594 286.593 81.6695C286.748 81.6797 286.898 81.72 287.037 81.7883C287.329 81.9404 287.55 82.1995 287.653 82.5107C287.756 82.8219 287.732 83.1606 287.588 83.4552Z" fill="#263238"/>
<path d="M295.174 96.7931C293.724 96.5172 292.303 96.1113 290.928 95.5805C290.284 95.2426 289.755 94.7227 289.408 94.0863C289.574 94.7251 289.869 95.3239 290.274 95.8465C291.062 96.8714 295.174 97.6224 295.174 97.6224V96.7931Z" fill="#F28F8F"/>
<path d="M295.276 89.3692C295.278 89.538 295.213 89.7009 295.095 89.8225C294.977 89.9441 294.816 90.0146 294.646 90.0187C294.561 90.0167 294.478 89.9981 294.4 89.9639C294.322 89.9298 294.252 89.8808 294.194 89.8197C294.135 89.7587 294.089 89.6868 294.059 89.6081C294.028 89.5295 294.014 89.4456 294.016 89.3613C294.014 89.1925 294.079 89.0296 294.197 88.908C294.315 88.7864 294.476 88.7159 294.646 88.7118C294.731 88.7138 294.814 88.7324 294.892 88.7666C294.97 88.8007 295.04 88.8497 295.098 88.9108C295.157 88.9718 295.202 89.0437 295.233 89.1224C295.264 89.201 295.278 89.2849 295.276 89.3692Z" fill="#263238"/>
<path d="M294.607 86.9986L293.26 87.7812C293.208 87.6905 293.176 87.5905 293.164 87.4872C293.152 87.3839 293.161 87.2792 293.191 87.1794C293.22 87.0796 293.269 86.9866 293.335 86.9058C293.401 86.8251 293.482 86.7582 293.575 86.709C293.752 86.619 293.956 86.5987 294.148 86.6525C294.339 86.7062 294.503 86.8298 294.607 86.9986Z" fill="#263238"/>
<path d="M294.89 93.57L296.332 94.11C296.26 94.2977 296.119 94.4511 295.938 94.5385C295.756 94.6259 295.547 94.6406 295.355 94.5795C295.258 94.5438 295.168 94.4893 295.092 94.4192C295.016 94.349 294.954 94.2646 294.911 94.1708C294.868 94.077 294.844 93.9756 294.84 93.8725C294.837 93.7694 294.854 93.6666 294.89 93.57Z" fill="#F28F8F"/>
<path d="M300.9 87.5231L299.671 86.5839C299.795 86.4255 299.975 86.3202 300.174 86.2896C300.373 86.259 300.577 86.3055 300.743 86.4196C300.827 86.4813 300.897 86.559 300.951 86.6481C301.004 86.7372 301.039 86.8359 301.054 86.9386C301.068 87.0413 301.062 87.1458 301.036 87.2461C301.01 87.3465 300.963 87.4406 300.9 87.5231Z" fill="#263238"/>
<path d="M300.522 89.1893C300.524 89.3581 300.459 89.521 300.341 89.6426C300.223 89.7642 300.062 89.8347 299.892 89.8388C299.807 89.8368 299.724 89.8182 299.646 89.784C299.568 89.7499 299.498 89.7009 299.44 89.6398C299.381 89.5788 299.336 89.5069 299.305 89.4282C299.274 89.3496 299.26 89.2657 299.262 89.1814C299.26 89.0126 299.325 88.8497 299.443 88.7281C299.561 88.6065 299.722 88.536 299.892 88.5319C300.063 88.538 300.224 88.6102 300.342 88.733C300.46 88.8559 300.524 89.0196 300.522 89.1893Z" fill="#263238"/>
<path d="M297.552 89.1108L296.961 92.8346L299.033 92.5921L297.552 89.1108Z" fill="#F28F8F"/>
<path d="M301.144 185.743L301.018 185.18C301.428 185.258 303.2 188.176 304.957 189.443C306.879 190.828 308.541 191.649 309.399 192.275C310.549 193.112 308.887 194.826 306.059 194.982C304.657 195.053 302.121 194.63 301.333 193.887C300.546 193.144 299.978 191.915 299.348 191.383C298.718 190.851 297.466 190.382 297.032 189.701C296.801 189.025 296.717 188.308 296.788 187.597C296.788 186.862 296.843 186.032 297.095 186.071L297.19 186.494C297.92 186.864 298.733 187.045 299.553 187.018C300.238 186.987 301.475 186.838 301.144 185.743Z" fill="#263238"/>
<path d="M296.914 151.094C296.914 151.094 295.237 139.257 294.788 137.427C296.135 136.696 297.389 135.805 298.521 134.775C297.74 135.884 296.888 136.943 295.969 137.943L296.914 151.094Z" fill="#263238"/>
<path d="M286.792 150.679C286.792 150.679 288.809 155.663 289.628 156.766C289.628 156.766 289.423 160.568 289.447 161.334L288.392 162.25C288.364 160.53 288.522 158.812 288.864 157.126C287.938 155.059 287.243 152.897 286.792 150.679Z" fill="#263238"/>
<path d="M280.956 119.895C280.956 119.895 296.844 121.585 298.71 121.014C300.577 120.443 303.082 118.604 304.398 117.822C305.713 117.04 306.714 116.993 306.714 117.314C306.714 117.634 305.563 119.379 305.304 120.106C305.044 120.834 306.54 120.834 308.517 120.38C310.494 119.927 311.282 118.816 311.794 119.457C312.306 120.099 310.699 123.369 307.422 124.597C304.146 125.825 301.712 125.004 299.002 125.121C296.292 125.238 279.601 126.295 275.844 125.121C275.744 124.523 275.813 123.909 276.042 123.347C276.272 122.786 276.653 122.298 277.143 121.937C278.279 121.032 279.571 120.34 280.956 119.895Z" fill="#FFA8A7"/>
<path d="M192.875 195.272C192.915 194.763 193.884 189.287 194.545 186.22L201.028 188.192L199.988 192.487L194.6 197.666C194.058 197.564 193.575 197.259 193.254 196.813C192.932 196.367 192.797 195.815 192.875 195.272Z" fill="#FFA8A7"/>
<path d="M207.085 148.911H210.236C212.561 148.911 214.791 149.829 216.436 151.462C218.08 153.095 219.003 155.309 219.003 157.619V179.805H198.318V157.619C198.318 155.309 199.242 153.095 200.886 151.462C202.53 149.829 204.76 148.911 207.085 148.911Z" fill="#263238"/>
<path d="M224.233 183.764L227.297 189.342L222.524 193.394L218.16 186.517L224.233 183.764Z" fill="#F28F8F"/>
<path d="M212.733 171.325C215.773 171.325 219.121 172.451 220.271 174.822L224.997 184.554C224.997 184.554 222.311 188.465 218.05 188.191L212.733 171.325Z" fill="#455A64"/>
<path d="M215.191 267.84C216.237 269.23 217.413 270.518 218.704 271.689C218.911 271.854 219.076 272.066 219.184 272.307C219.318 272.713 219.492 273.691 217.672 274.09C216.75 274.291 215.794 274.292 214.872 274.094C213.949 273.896 213.08 273.502 212.323 272.94C210.992 271.876 211.15 270.007 209.921 268.778C209.007 267.879 207.771 267.527 207.085 266.431C206.605 265.649 206.865 264.718 207.298 263.568C207.731 262.418 208.038 261.37 208.456 261.518L208.314 262.097C208.747 263.013 211.465 263.592 212.796 263.154C213.512 264.756 214.312 266.32 215.191 267.84Z" fill="#263238"/>
<path d="M216.262 269.185C215.892 268.755 215.53 268.317 215.191 267.84C214.494 266.688 213.871 265.494 213.324 264.265C212.969 263.532 212.907 262.693 213.151 261.918L214.049 258.906L209.322 257.826L208.298 262.043C208.078 263.005 208.779 263.959 210.063 265.352C211.347 266.744 212.828 269.811 214.001 270.68C215.175 271.548 216.136 271.634 216.735 271.337C217.333 271.039 217.483 270.766 216.262 269.185Z" fill="#FFA8A7"/>
<path d="M202.478 270.492V269.827C202.745 270.609 203.958 273.942 205.802 275.616C207.275 276.938 209.275 278.479 209.78 279.958C210.284 281.436 206.999 282.015 205.628 281.773C203.799 281.468 202.122 280.575 200.855 279.23C200.067 278.268 199.563 277.126 198.996 276.367C198.429 275.608 197.137 274.802 196.838 273.895C196.743 273.077 196.832 272.249 197.098 271.47C197.318 270.687 197.547 269.756 197.83 269.827V270.374C198.504 270.896 199.339 271.172 200.193 271.157C200.839 271.157 202.485 271.008 202.478 270.492Z" fill="#263238"/>
<path d="M207.133 276.782L205.802 275.608C204.567 274.309 203.603 272.78 202.966 271.11C202.643 270.339 202.477 269.512 202.478 268.677V266.04H197.83V270.327V270.445C198.051 271.407 200.193 273.957 201.398 275.624C202.387 277.056 203.894 278.054 205.605 278.409C207.377 278.644 208.299 278.096 207.133 276.782Z" fill="#FFA8A7"/>
<path d="M198.751 198.706C195.152 206.529 198.885 234.075 198.885 234.075C198.775 235.35 197.31 237.846 196.774 243.463C196.128 250.065 197.782 266.635 197.782 266.635C198.494 267.05 199.297 267.284 200.122 267.317C200.946 267.349 201.766 267.18 202.509 266.823C202.509 266.823 206.943 241.859 207.778 235.295L210.441 214.235L214.379 234.787C213.325 236.397 212.454 238.118 211.78 239.919C210.842 242.821 208.944 259.359 208.944 259.359C209.585 259.941 210.351 260.37 211.183 260.612C212.016 260.855 212.894 260.905 213.749 260.76C213.749 260.76 222.847 238.072 223.257 233.441C223.501 230.664 219.421 197.595 219.421 197.595L198.751 198.706Z" fill="#37474F"/>
<path d="M210.41 214.204L211.04 209.682C211.04 209.682 215.994 208.665 218.239 206.553C216.689 208.357 214.662 209.696 212.387 210.417L211.725 214.783L212.513 224.898L210.41 214.204Z" fill="#263238"/>
<path d="M205.147 171.536C203.821 171.856 202.584 172.468 201.527 173.327C200.471 174.185 199.622 175.268 199.043 176.496C198.192 178.363 198.113 180.486 198.822 182.41L201.997 191.665C201.997 191.665 200.492 195.287 198.736 198.706C206.825 203.189 216.916 200.834 219.35 197.564C219.452 196.867 219.31 193.738 219.507 190.186C219.712 186.392 220.24 182.105 219.641 179.766C218.523 175.408 216.435 171.325 212.284 171.325L205.147 171.536Z" fill="#F03E3D"/>
<path d="M203.911 171.536C201.154 171.919 197.105 172.475 195.703 178.984C194.301 185.493 193.884 187.879 193.884 187.879C194.783 188.755 195.854 189.438 197.03 189.884C198.206 190.331 199.463 190.533 200.721 190.476L202.147 185.469L203.911 171.536Z" fill="#455A64"/>
<path d="M205.478 177.028C205.003 177.028 204.531 176.935 204.092 176.754C203.652 176.573 203.253 176.308 202.916 175.974C202.58 175.64 202.313 175.243 202.131 174.806C201.949 174.37 201.855 173.902 201.855 173.429V162.954H205.478V177.028Z" fill="#263238"/>
<path d="M215.608 153.065C216.703 153.707 218.05 156.437 217.916 162.156C217.806 167.006 216.223 168.211 215.427 168.555C214.632 168.899 213.103 168.688 211.615 168.438V171.348C211.615 171.348 213.671 173.695 213.545 175.064C213.419 176.433 210.567 176.715 208.637 175.408C207.394 174.513 206.326 173.399 205.486 172.123V165.082C205.33 165.272 205.136 165.43 204.917 165.546C204.698 165.662 204.459 165.734 204.212 165.757C203.965 165.781 203.716 165.755 203.479 165.682C203.242 165.609 203.022 165.49 202.832 165.332C201.186 164.245 201.123 161.561 202.084 160.638C203.045 159.715 205.1 159.981 205.486 161.311C207.433 161.226 209.328 160.662 211 159.668C212.24 159.009 213.304 158.066 214.106 156.918C214.907 155.77 215.422 154.45 215.608 153.065Z" fill="#FFA8A7"/>
<path d="M212.465 160.944C212.466 161.063 212.432 161.181 212.367 161.281C212.302 161.382 212.208 161.461 212.098 161.509C211.988 161.558 211.866 161.572 211.747 161.552C211.628 161.532 211.518 161.478 211.43 161.396C211.342 161.314 211.281 161.208 211.253 161.091C211.225 160.975 211.232 160.853 211.274 160.741C211.315 160.628 211.389 160.53 211.486 160.459C211.583 160.388 211.699 160.347 211.819 160.341C211.902 160.338 211.984 160.351 212.061 160.38C212.138 160.408 212.209 160.452 212.269 160.508C212.329 160.564 212.377 160.631 212.411 160.706C212.445 160.781 212.463 160.862 212.465 160.944Z" fill="#263238"/>
<path d="M212.631 165.051L214.057 165.504C214.031 165.6 213.987 165.689 213.926 165.767C213.865 165.845 213.789 165.909 213.702 165.957C213.615 166.004 213.519 166.034 213.42 166.044C213.321 166.053 213.222 166.043 213.127 166.013C212.936 165.947 212.777 165.81 212.685 165.631C212.592 165.451 212.573 165.244 212.631 165.051Z" fill="#F28F8F"/>
<path d="M217.499 159.066L216.262 158.213C216.314 158.13 216.383 158.058 216.463 158.002C216.544 157.945 216.636 157.906 216.732 157.887C216.829 157.867 216.929 157.867 217.025 157.887C217.122 157.906 217.213 157.946 217.294 158.002C217.46 158.119 217.574 158.295 217.612 158.493C217.65 158.691 217.61 158.897 217.499 159.066Z" fill="#263238"/>
<path d="M217.215 160.498C217.226 160.663 217.171 160.825 217.061 160.95C216.952 161.074 216.798 161.151 216.632 161.163C216.467 161.165 216.307 161.104 216.187 160.991C216.066 160.879 215.994 160.724 215.986 160.56C215.982 160.48 215.994 160.4 216.021 160.324C216.048 160.249 216.09 160.179 216.144 160.119C216.198 160.06 216.263 160.011 216.336 159.977C216.409 159.943 216.488 159.923 216.569 159.919C216.65 159.914 216.73 159.926 216.807 159.953C216.883 159.98 216.953 160.021 217.013 160.075C217.073 160.129 217.121 160.194 217.156 160.266C217.191 160.339 217.211 160.418 217.215 160.498Z" fill="#263238"/>
<path d="M214.316 160.153L214.419 163.822L216.364 163.22L214.316 160.153Z" fill="#F28F8F"/>
<path d="M211.615 168.438C210.039 168.235 206.81 167.311 206.306 166.044C206.506 166.687 206.903 167.253 207.44 167.663C208.401 168.485 211.615 169.416 211.615 169.416V168.438Z" fill="#F28F8F"/>
<path d="M223.989 190.202C224.88 188.559 225.1 188.489 225.636 188.129C226.171 187.769 229.409 187.284 230.756 187.167C232.331 187.034 232.906 187.323 232.465 188.684C231.237 192.095 229.741 195.404 227.991 198.581C227.566 199.144 227.479 199.66 225.699 199.833C223.919 200.005 221.941 200.083 221.327 200.122C220.713 200.161 219.862 200.31 220.413 198.51C221.116 196.479 221.928 194.486 222.847 192.541C223.564 191.063 223.989 190.202 223.989 190.202Z" fill="#37474F"/>
<path d="M199.988 192.518C199.988 192.518 214.395 194.028 216.262 193.457C218.129 192.886 220.634 191.031 221.981 190.265C223.328 189.498 224.297 189.435 224.297 189.748C224.297 190.061 223.147 191.822 222.879 192.541C222.611 193.261 224.123 193.269 226.093 192.815C228.062 192.361 228.857 191.25 229.377 191.892C229.897 192.533 228.282 195.804 225.006 197.032C221.729 198.26 219.295 197.446 216.585 197.556C213.875 197.666 198.358 198.87 194.6 197.697C194.501 197.099 194.57 196.485 194.799 195.923C195.028 195.361 195.409 194.873 195.9 194.513C197.115 193.583 198.505 192.905 199.988 192.518Z" fill="#FFA8A7"/>
<path d="M201.028 188.841C201.646 187.178 202.172 185.483 202.603 183.764C202.603 183.764 202.343 187.542 201.272 189.569L201.028 188.841Z" fill="#37474F"/>
<path d="M84.456 142.317L81.896 147.808L86.6616 151.861L90.7812 144.953L84.456 142.317Z" fill="#F28F8F"/>
<path d="M96.2088 129.753C93.1683 129.753 89.8206 130.887 88.6705 133.249C87.5205 135.612 83.9443 142.989 83.9443 142.989C83.9443 142.989 86.6304 146.901 90.8918 146.619L96.2088 129.753Z" fill="#37474F"/>
<path d="M109.395 216.895H105.188V222.974H109.395V216.895Z" fill="#FFA8A7"/>
<path d="M94.6062 209.374L90.4023 209.518L90.6127 215.593L94.8166 215.449L94.6062 209.374Z" fill="#FFA8A7"/>
<path d="M109.111 157.548C109.111 161.538 109.631 187.323 109.631 187.323C109.734 188.466 110.813 190.586 110.576 194.99C110.261 200.975 109.742 217.599 109.742 217.599C109.742 217.599 107.772 219.539 105.015 217.599C105.015 217.599 101.203 195.006 100.455 189.076C99.7929 183.905 98.6822 169.846 98.6822 169.846L94.7831 186.392C94.7831 186.392 95.4684 190.304 95.626 193.027C95.7835 195.749 94.9092 211.638 94.9092 211.638C94.2276 212.06 93.4467 212.299 92.6439 212.329C91.8412 212.359 91.0444 212.18 90.3326 211.81C90.3326 211.81 86.9613 188.638 86.528 186.158C86.0948 183.678 89.4819 157.548 89.4819 157.548H109.111Z" fill="#37474F"/>
<path d="M102.786 129.94H102.849C104.653 130.391 106.254 131.428 107.396 132.887C108.538 134.346 109.156 136.142 109.15 137.99V157.548C106.205 160.732 95.9329 162.242 89.458 157.548V137.208C89.458 133.961 91.2776 130.05 96.2952 129.76L102.786 129.94Z" fill="#02897A"/>
<path d="M104.204 113.3C104.542 113.263 104.884 113.302 105.204 113.414C105.525 113.526 105.816 113.71 106.055 113.949C106.842 114.732 106.685 116.257 106.055 119.692L103.597 119.973L104.204 113.3Z" fill="#263238"/>
<path d="M89.8597 112.346C89.3323 112.347 88.81 112.244 88.3237 112.041C87.536 111.61 87.3706 112.463 87.7802 113.199C88.0547 113.729 88.4617 114.182 88.9623 114.512C89.4629 114.842 90.0404 115.039 90.6396 115.084C90.6396 114.982 91.3406 113.183 91.3406 113.183L89.8597 112.346Z" fill="#263238"/>
<path d="M103.046 119.973C103.416 120.193 103.936 119.496 104.385 119.027C104.561 118.823 104.787 118.668 105.04 118.576C105.294 118.484 105.567 118.459 105.834 118.502C106.1 118.545 106.351 118.656 106.562 118.823C106.774 118.99 106.938 119.209 107.04 119.457C107.827 121.022 106.086 123.103 105.094 123.783C104.815 124.024 104.467 124.172 104.099 124.204C103.731 124.236 103.363 124.152 103.046 123.963L102.786 129.94C102.345 130.899 101.672 131.735 100.826 132.372C99.9811 133.01 98.99 133.429 97.9416 133.594C94.4048 134.071 95.1374 131.176 96.2953 129.752V127.578C95.4134 127.768 94.5064 127.815 93.6092 127.718C93.1445 127.593 92.0338 126.271 91.3328 124.793C90.5451 123.134 89.2139 120.193 90.3954 115.209C91.6636 109.85 97.4847 109.686 100.903 111.845C104.322 114.004 103.046 119.973 103.046 119.973Z" fill="#FFA8A7"/>
<path d="M103.046 120.584C103.235 120.584 103.928 119.442 104.385 119.019C105.015 118.448 104.204 113.292 104.204 113.292C104.204 113.292 104.842 111.344 103.597 110.046C102.353 108.747 99.9344 108.966 98.1699 108.904C96.0047 108.917 93.8598 108.488 91.8683 107.644C89.3634 106.565 89.1744 106.439 88.8672 107.527C88.6241 108.428 88.5936 109.372 88.7781 110.287C88.9625 111.201 89.3569 112.061 89.9306 112.8L91.1751 113.253C91.1751 113.253 91.8447 113.848 94.1842 114.13C96.3415 114.288 98.509 114.249 100.659 114.012C101.336 113.918 101.447 114.568 101.848 116.359C102.164 117.924 102.431 120.576 103.046 120.584Z" fill="#263238"/>
<path d="M104.196 113.708L106.409 112.526C106.339 112.378 106.239 112.246 106.116 112.138C105.993 112.03 105.849 111.947 105.692 111.896C105.536 111.845 105.371 111.826 105.207 111.84C105.043 111.854 104.884 111.901 104.739 111.978C104.443 112.142 104.221 112.413 104.12 112.735C104.019 113.057 104.046 113.405 104.196 113.708Z" fill="#263238"/>
<path d="M96.3033 127.578C97.8127 127.296 99.2922 126.874 100.722 126.318C101.395 125.968 101.945 125.422 102.298 124.753C102.126 125.418 101.82 126.04 101.4 126.584C100.565 127.648 96.2954 128.43 96.2954 128.43L96.3033 127.578Z" fill="#F28F8F"/>
<path d="M97.0909 119.16C97.094 119.29 97.1356 119.416 97.2105 119.522C97.2855 119.628 97.3903 119.71 97.5119 119.757C97.6335 119.804 97.7664 119.814 97.8939 119.787C98.0214 119.759 98.1378 119.694 98.2284 119.601C98.3191 119.508 98.3799 119.39 98.4033 119.262C98.4267 119.135 98.4116 119.003 98.3598 118.884C98.3081 118.765 98.2221 118.664 98.1127 118.593C98.0032 118.522 97.8752 118.486 97.7446 118.487C97.5684 118.491 97.401 118.564 97.2786 118.69C97.1562 118.816 97.0887 118.985 97.0909 119.16Z" fill="#263238"/>
<path d="M97.7842 116.704L99.1942 117.486C99.2919 117.294 99.3121 117.072 99.2506 116.865C99.1891 116.659 99.0506 116.483 98.8633 116.375C98.7711 116.325 98.6696 116.293 98.5649 116.283C98.4603 116.272 98.3545 116.282 98.2539 116.313C98.1534 116.344 98.06 116.394 97.9793 116.461C97.8986 116.528 97.8323 116.611 97.7842 116.704Z" fill="#263238"/>
<path d="M97.1382 123.58L95.6416 124.143C95.6744 124.243 95.7269 124.335 95.7962 124.414C95.8654 124.493 95.9499 124.557 96.0447 124.603C96.1394 124.649 96.2425 124.676 96.3478 124.682C96.4532 124.687 96.5585 124.672 96.6577 124.636C96.8608 124.557 97.0248 124.403 97.1146 124.205C97.2044 124.008 97.2129 123.783 97.1382 123.58Z" fill="#F28F8F"/>
<path d="M91.2381 117.244L92.5063 116.258C92.4453 116.172 92.3676 116.099 92.2779 116.044C92.1881 115.989 92.0881 115.952 91.9837 115.936C91.8794 115.92 91.7728 115.925 91.6704 115.951C91.5681 115.976 91.4719 116.022 91.3877 116.085C91.2176 116.222 91.1071 116.419 91.0792 116.635C91.0513 116.85 91.1082 117.069 91.2381 117.244Z" fill="#263238"/>
<path d="M91.6319 118.98C91.6297 119.155 91.6972 119.324 91.8196 119.45C91.942 119.576 92.1095 119.649 92.2857 119.653C92.464 119.649 92.6334 119.575 92.7573 119.448C92.8812 119.32 92.9494 119.149 92.9473 118.972C92.9575 118.88 92.948 118.788 92.9196 118.7C92.8911 118.612 92.8444 118.531 92.7823 118.462C92.7202 118.393 92.6443 118.338 92.5594 118.3C92.4745 118.263 92.3826 118.243 92.2896 118.243C92.1966 118.243 92.1047 118.263 92.0198 118.3C91.9349 118.338 91.859 118.393 91.7969 118.462C91.7348 118.531 91.6881 118.612 91.6596 118.7C91.6312 118.788 91.6217 118.88 91.6319 118.972V118.98Z" fill="#263238"/>
<path d="M94.9801 118.362L94.7595 122.281L92.7036 121.585L94.9801 118.362Z" fill="#F28F8F"/>
<path d="M105.188 220.908V220.306C104.787 220.478 103.849 224.022 102.187 225.532C100.856 226.729 99.0363 228.121 98.5873 229.443C98.1383 230.766 101.108 231.603 102.345 231.384C103.786 231.133 106.283 230.124 106.905 229.193C107.528 228.262 107.827 226.885 108.331 226.197C108.835 225.508 110.017 224.75 110.293 223.959C110.374 223.22 110.29 222.473 110.048 221.769C109.851 221.034 109.647 220.204 109.395 220.29C109.395 220.376 109.395 220.744 109.395 220.744C108.796 221.213 108.053 221.462 107.291 221.448C106.685 221.495 105.18 221.378 105.188 220.908Z" fill="#263238"/>
<path d="M90.5765 214.298C90.3559 214.298 90.1747 214.611 89.6943 215.127C88.977 215.852 88.1406 216.45 87.2209 216.895C85.6455 217.677 82.5892 218.882 81.2029 219.5C80.3443 219.891 80.4152 220.924 81.2738 221.519C82.1323 222.113 84.33 222.536 86.9216 221.957C88.3315 221.644 90.1747 220.353 91.3327 220.392C92.4906 220.431 94.6725 220.447 95.5311 219.86C96.3897 219.273 96.051 218.014 95.8068 216.934C95.5626 215.855 95.1609 213.961 94.767 214.04V214.407C94.2629 215.19 91.6871 215.479 90.5765 214.924V214.298Z" fill="#263238"/>
<path d="M84.9524 148.638C84.0623 146.987 83.8418 146.917 83.3062 146.557C82.7705 146.197 79.5331 145.712 78.1861 145.602C76.6107 145.469 76.0357 145.759 76.4768 147.112C77.6966 150.523 79.1819 153.835 80.9194 157.016C81.3448 157.572 81.4314 158.088 83.2116 158.26C84.9918 158.432 86.9689 158.511 87.5834 158.55C88.1978 158.589 89.0485 158.737 88.4971 156.938C87.7934 154.907 86.9809 152.914 86.0631 150.969C85.4172 149.49 84.9524 148.638 84.9524 148.638Z" fill="#37474F"/>
<path d="M117.24 153.598C117.201 153.081 115.665 147.245 114.877 144.546L109.111 146.518L110.466 150.766L115.539 155.984C116.077 155.879 116.553 155.573 116.87 155.129C117.187 154.684 117.319 154.136 117.24 153.598Z" fill="#FFA8A7"/>
<path d="M110.442 150.766C110.442 150.766 94.5466 152.455 92.6798 151.884C90.8129 151.313 88.308 149.459 86.9611 148.692C85.6141 147.926 84.6452 147.863 84.6452 148.184C84.6452 148.505 85.7953 150.249 86.0631 150.969C86.3309 151.689 84.8185 151.697 82.8493 151.243C80.88 150.789 80.0845 149.678 79.5646 150.32C79.0447 150.961 80.6595 154.231 83.9363 155.46C87.2131 156.688 89.6471 155.874 92.3568 155.984C95.0665 156.093 111.758 157.157 115.515 155.984C115.615 155.387 115.546 154.774 115.317 154.213C115.087 153.653 114.706 153.166 114.215 152.807C113.09 151.909 111.813 151.217 110.442 150.766Z" fill="#FFA8A7"/>
<path d="M104.117 130.386C106.614 131.207 111.569 131.622 113.168 136.989C114.767 142.356 115.57 145.837 115.57 145.837C114.625 147.089 110.844 148.536 109.111 147.996L104.117 130.386Z" fill="#455A64"/>
<path d="M109.111 147.996L107.402 141.972L109.111 150.453V147.996Z" fill="#37474F"/>
<path d="M73.2547 160.654C73.1759 160.756 72.5064 161.859 72.5064 161.859L69.4265 166.24L66.4253 170.707C66.3308 170.843 66.1952 170.946 66.0381 171.001C65.881 171.055 65.7105 171.059 65.551 171.012L65.3462 170.941C64.3064 170.558 62.7468 169.909 60.6751 168.962C59.0131 168.18 59.0997 167.953 59.0997 167.671C59.0781 167.448 59.0781 167.222 59.0997 166.999C59.4384 166.357 60.4861 164.753 61.8961 162.727C64.4009 159.113 65.6061 157.509 66.3544 156.469C66.4612 156.317 66.6188 156.207 66.7991 156.16C66.9794 156.113 67.1707 156.131 67.3391 156.21C68.686 156.656 71.4193 157.822 72.853 158.401H72.916C73.6879 158.816 73.2626 160.623 73.2547 160.654Z" fill="#37474F"/>
<path d="M73.3338 160.513L72.5461 161.859L69.5371 166.326L66.3863 170.683C66.2917 170.819 66.1561 170.922 65.999 170.977C65.842 171.032 65.6714 171.036 65.5119 170.988L65.3071 170.918C64.2673 170.535 62.7077 169.885 60.6361 168.939C58.974 168.156 59.0607 167.93 59.0607 167.648C59.039 167.424 59.039 167.199 59.0607 166.975C60.6361 167.664 65.6222 170.011 65.7876 169.924C66.1815 169.737 69.5607 164.354 71.3566 161.608C72.2546 160.239 72.6563 159.66 72.932 159.191C72.9827 159.135 73.0204 159.069 73.0425 158.997C73.0646 158.925 73.0707 158.849 73.0602 158.774C73.0496 158.7 73.0229 158.628 72.9817 158.565C72.9405 158.502 72.8859 158.449 72.8218 158.409H72.7587C72.9356 158.501 73.0883 158.634 73.2045 158.795C73.3208 158.957 73.3974 159.143 73.4283 159.34C73.5142 159.527 73.5506 159.733 73.534 159.939C73.5175 160.144 73.4486 160.342 73.3338 160.513Z" fill="#37474F"/>
<path opacity="0.1" d="M73.3338 160.513L72.5461 161.859L69.5371 166.326L66.3863 170.683C66.2917 170.819 66.1561 170.922 65.999 170.977C65.842 171.032 65.6714 171.036 65.5119 170.988L65.3071 170.918C64.2673 170.535 62.7077 169.885 60.6361 168.939C58.974 168.156 59.0607 167.93 59.0607 167.648C59.039 167.424 59.039 167.199 59.0607 166.975C60.6361 167.664 65.6222 170.011 65.7876 169.924C66.1815 169.737 69.5607 164.354 71.3566 161.608C72.2546 160.239 72.6563 159.66 72.932 159.191C72.9827 159.135 73.0204 159.069 73.0425 158.997C73.0646 158.925 73.0707 158.849 73.0602 158.774C73.0496 158.7 73.0229 158.628 72.9817 158.565C72.9405 158.502 72.8859 158.449 72.8218 158.409H72.7587C72.9356 158.501 73.0883 158.634 73.2045 158.795C73.3208 158.957 73.3974 159.143 73.4283 159.34C73.5142 159.527 73.5506 159.733 73.534 159.939C73.5175 160.144 73.4486 160.342 73.3338 160.513Z" fill="black"/>
<path d="M66.3942 157.493L71.9238 159.793L66.0318 168.493L60.5337 165.981L66.3942 157.493Z" fill="#FAFAFA"/>
<path d="M64.8422 187.808C66.3546 187.378 68.6389 181.792 70.3561 175.455C72.0733 169.119 72.9791 167.718 73.0343 165.723C73.0894 163.728 72.9476 161.108 72.9476 161.108L69.9544 165.45C69.8245 164.612 69.5585 163.801 69.1667 163.048C68.7807 162.265 68.056 161.647 67.4652 162.117C67.1502 162.367 67.9851 163.439 67.804 165.833C67.7892 166.787 67.8843 167.74 68.0875 168.673L62.5264 182.05L64.8422 187.808Z" fill="#FFA8A7"/>
<path d="M42.4637 160.067C40.7071 159.574 39.2183 160.505 38.3912 163.283C36.9414 168.512 35.8882 173.841 35.2404 179.226C35.0041 181.159 34.7363 183.506 36.5953 183.686C38.0131 183.826 42.1092 183.044 42.826 182.34C43.787 181.417 43.6137 177.693 43.6137 177.693H41.4869C41.4869 177.693 41.9438 174.759 42.0777 173.867C42.5503 170.871 43.2514 167.093 43.2514 167.093L42.4637 160.067Z" fill="#F28F8F"/>
<path d="M52.7746 157.321L52.0578 163.588L45.835 164.307L46.7329 155.991L52.7746 157.321Z" fill="#FFA8A7"/>
<path d="M39.4546 148.176C39.9666 142.387 43.1253 140.009 45.5671 139.43C50.4981 138.28 55.3661 139.922 57.3826 143.341C57.8442 144.412 58.0822 145.564 58.0822 146.729C58.0822 147.893 57.8442 149.046 57.3826 150.116C56.3114 152.541 39.4782 148.16 39.4782 148.16" fill="#263238"/>
<path d="M57.6897 151.29C57.6897 151.29 58.5798 153.677 58.3435 153.857C57.972 153.99 57.5804 154.058 57.1855 154.06L57.6897 151.29Z" fill="#FFA8A7"/>
<path d="M55.0354 143.748C56.209 144.749 58.1862 146.564 57.6584 151.571C57.0755 156.75 55.8152 158.151 54.9645 158.651C54.3973 158.988 51.8846 158.401 50.7188 157.72C49.2694 156.868 46.0556 154.669 45.0788 151.704C43.9209 148.215 44.5038 144.053 47.0402 142.966C48.3308 142.414 49.7411 142.197 51.1393 142.334C52.5375 142.47 53.878 142.957 55.0354 143.748Z" fill="#FFA8A7"/>
<path d="M56.4847 143.882C56.5098 145.266 56.2205 146.639 55.6382 147.897C55.0559 149.155 54.1956 150.267 53.1212 151.149C53.1212 151.149 52.3886 149.264 50.7581 149.694C49.1276 150.125 49.1827 152.26 50.3485 153.418C50.6507 153.749 51.0418 153.987 51.4758 154.105C51.9097 154.223 52.3685 154.215 52.7982 154.083C52.5658 155.563 51.8683 156.932 50.8054 157.995C49.1091 158.382 47.3373 158.287 45.6932 157.719C44.0491 157.152 42.5994 156.136 41.5105 154.787C37.9107 150.492 38.9741 143.67 44.5983 141.66C46.5869 140.867 48.762 140.655 50.8677 141.049C52.9735 141.443 54.9222 142.425 56.4847 143.882Z" fill="#263238"/>
<path d="M45.0866 251.599L47.7726 255.307C46.5491 255.857 45.216 256.124 43.8735 256.089C41.471 256.183 40.8094 255.401 40.7227 255.213C40.3131 254.345 40.9512 252.788 41.1244 251.45L45.0866 251.599Z" fill="#263238"/>
<path d="M47.6073 253.516C47.6073 253.516 50.8605 253.304 53.1212 253.023C55.3819 252.741 57.1543 253.805 56.6265 254.752C56.0987 255.698 54.8542 256.441 52.9243 257.099C51.278 257.654 49.293 258.053 47.5679 258.561C45.8429 259.07 44.6692 259.696 43.6688 259.344C42.5503 258.96 42.0934 258.514 42.1643 257.709C42.4083 256.56 42.7107 255.424 43.0702 254.306L47.6073 253.516Z" fill="#263238"/>
<path d="M40.7227 247.859C40.7227 247.859 41.1244 251.223 41.1559 251.951C41.1874 252.678 44.4642 252.905 45.0944 251.583L45.1968 247.468L40.7227 247.859Z" fill="#F28F8F"/>
<path d="M44.0233 249.932L42.8811 255.041C42.8811 255.041 42.763 255.659 45.449 256.058C48.1351 256.457 52.3257 254.666 53.0425 254.306C53.7593 253.946 53.8302 253.218 51.2071 253.359C48.5841 253.5 47.6467 253.516 47.6467 253.516L48.5053 251.247L44.0233 249.932Z" fill="#FFA8A7"/>
<path d="M40.7228 181.542C38.4778 185.008 36.3511 188.059 35.8942 191.955C34.9332 200.185 38.084 209.588 38.7535 215.675C37.4799 217.407 36.7434 219.471 36.6346 221.613C36.6346 224.132 40.7228 247.859 40.7228 247.859C40.7228 247.859 43.6924 248.759 45.189 247.468L48.0011 203.815L46.5203 198.503L40.7228 181.542Z" fill="#455A64"/>
<path d="M48.0011 203.815L46.5202 198.503C43.733 197.783 41.0434 196.732 38.5093 195.373C38.5093 195.373 40.0295 198.111 44.3698 199.614L46.6305 206.443L46.8274 222.09L48.0011 203.815Z" fill="#37474F"/>
<path d="M40.7227 181.542C39.5254 183.482 36.6503 186.815 37.2647 190.007C38.0052 193.918 40.1005 196.602 46.5202 198.503L52.5382 220.15C52.5382 220.15 49.3874 223.068 48.4501 225.837C47.5127 228.606 44.0232 249.933 44.0232 249.933C44.0232 249.933 45.0945 251.669 48.4816 251.247C48.4816 251.247 60.2971 224.499 61.0848 222.778C62.0926 221.017 62.4466 218.96 62.0852 216.966C61.7071 214.165 57.6898 183.482 57.6898 183.482L40.7227 181.542Z" fill="#455A64"/>
<path d="M39.6278 162.007C39.8693 161.369 40.3242 160.833 40.9165 160.488C41.5088 160.143 42.2024 160.011 42.881 160.114C47.0794 161.249 53.6095 162.743 54.8462 163.103C54.8462 163.103 54.2869 171.137 59.1234 173.969C58.8949 175.761 57.6661 183.482 57.6661 183.482C57.6661 183.482 51.8529 186.283 47.0716 184.906C42.2902 183.529 40.6833 181.542 40.6833 181.542L43.0464 177.669C42.5344 176.41 40.5573 172.131 39.2812 168.156C38.8384 166.113 38.9582 163.989 39.6278 162.007Z" fill="#FFB900"/>
<path d="M42.4639 176.144C44.4525 177.332 46.5365 178.355 48.6946 179.203C46.7331 179.152 44.8157 178.614 43.1177 177.638L42.4639 176.144Z" fill="#E0E0E0"/>
<path d="M59.0212 173.367C57.3031 172.584 55.8895 171.266 54.9961 169.612C55.141 170.883 55.5797 172.103 56.2779 173.178C56.9761 174.253 57.915 175.153 59.0212 175.808V173.367Z" fill="#E0E0E0"/>
<path d="M54.8858 163.103C57.5246 163.885 59.163 164.135 60.5887 165.403C62.4634 167.077 64.4012 176.543 64.795 178.499C65.4803 181.886 66.2365 185.407 65.4961 186.987C64.9605 188.129 62.046 188.982 60.7699 185.289C60.5021 184.507 60.4469 184.147 60.2106 183.443C59.0054 179.907 57.1937 173.148 57.1937 173.148C57.1937 173.148 53.6254 171.192 54.8858 163.103Z" fill="#FFA8A7"/>
<path d="M42.0935 141.66C41.1561 142.2 39.4626 142.724 38.407 147.614C37.5477 151.715 37.0366 155.881 36.8789 160.068C36.9183 161.586 40.0848 165.803 46.7645 165.404C53.4442 165.005 55.8703 161.116 55.8703 161.116C55.8703 161.116 52.5856 159.787 52.8456 154.076C52.8456 154.076 51.6877 156.336 48.5132 155.202C45.3388 154.068 42.0935 141.66 42.0935 141.66Z" fill="#263238"/>
</svg>
