<svg width="349" height="307" viewBox="0 0 349 307" fill="none" xmlns="http://www.w3.org/2000/svg">
<path d="M51.1088 276.72C119.254 315.893 229.746 315.893 297.891 276.72C366.036 237.546 366.036 174.031 297.891 134.849C229.746 95.6665 119.285 95.6751 51.1088 134.849C-17.0674 174.023 -17.0051 237.546 51.1088 276.72Z" fill="#F5F5F5"/>
<path d="M32.1129 212.476L9.96143 198.407V146.124L32.1129 160.202V212.476Z" fill="#E0E0E0"/>
<path d="M32.1128 160.202L63.7621 140.096V192.371L32.1128 212.476V160.202Z" fill="#EBEBEB"/>
<path d="M63.7622 140.096L32.1129 160.202L9.96143 146.123L41.6108 126.018L63.7622 140.096Z" fill="#F5F5F5"/>
<path d="M35.2842 162.208L60.599 146.124L61.1833 146.492V165.861L35.8607 181.945L35.2764 181.576L35.2842 162.208Z" fill="#E0E0E0"/>
<path d="M35.8608 162.585L61.1834 146.492V165.86L35.8608 181.945V162.585Z" fill="#F5F5F5"/>
<path d="M45.7873 159.559L50.0961 156.824C50.6493 156.464 51.1012 156.626 51.1012 157.184C51.061 157.525 50.9493 157.851 50.7749 158.137C50.6005 158.423 50.3681 158.66 50.0961 158.83L45.7873 161.565C45.2263 161.925 44.7744 161.762 44.7744 161.205C44.8148 160.863 44.9275 160.535 45.1033 160.25C45.2792 159.964 45.5135 159.727 45.7873 159.559Z" fill="#E0E0E0"/>
<path d="M34.6997 186.712L60.0145 170.627V189.995L60.5989 190.364L35.2763 206.449L34.6997 206.08V186.712Z" fill="#E0E0E0"/>
<path d="M35.2764 187.081L60.599 170.996V190.365L35.2764 206.449V187.081Z" fill="#F5F5F5"/>
<path d="M45.203 184.063L49.5506 181.336C50.1116 180.976 50.5636 181.139 50.5636 181.696C50.5232 182.039 50.4105 182.366 50.2346 182.652C50.0587 182.938 49.8245 183.174 49.5506 183.343L45.2419 186.078C44.6809 186.438 44.229 186.275 44.229 185.718C44.264 185.378 44.3702 185.051 44.5392 184.764C44.7082 184.477 44.9354 184.237 45.203 184.063Z" fill="#E0E0E0"/>
<path d="M32.1129 157.184L9.96143 143.106V90.8311L32.1129 104.901V157.184Z" fill="#E0E0E0"/>
<path d="M32.1128 104.901L63.7621 84.7954V137.078L32.1128 157.184V104.901Z" fill="#EBEBEB"/>
<path d="M63.7622 84.7952L32.1129 104.901L9.96143 90.8312L41.6108 70.7256L63.7622 84.7952Z" fill="#F5F5F5"/>
<path d="M35.2764 106.915L60.599 90.8308L61.1833 91.1995V110.568L35.8607 126.652L35.2764 126.275V106.915Z" fill="#E0E0E0"/>
<path d="M45.7873 104.258L50.0883 101.523C50.6493 101.171 51.1012 101.334 51.1012 101.891C51.0596 102.233 50.9465 102.56 50.7707 102.846C50.595 103.131 50.3613 103.368 50.0883 103.537L45.7873 106.273C45.2263 106.624 44.7744 106.47 44.7744 105.912C44.8154 105.569 44.9282 105.241 45.104 104.954C45.2798 104.667 45.5137 104.429 45.7873 104.258Z" fill="#E0E0E0"/>
<path d="M34.6997 131.42L60.0145 115.335V134.695L60.5989 135.064L35.2763 151.148L34.6997 150.779V131.42Z" fill="#E0E0E0"/>
<path d="M35.2764 131.788L60.599 115.704V135.063L35.2764 151.148V131.788Z" fill="#F5F5F5"/>
<path d="M45.2028 128.762L49.5505 126.027C50.1037 125.675 50.5634 125.838 50.5634 126.395C50.5196 126.736 50.4056 127.062 50.23 127.347C50.0545 127.633 49.8221 127.87 49.5505 128.041L45.2028 130.751C44.6418 131.102 44.1899 130.939 44.1899 130.391C44.2344 130.052 44.3488 129.729 44.5243 129.447C44.6999 129.164 44.9321 128.93 45.2028 128.762Z" fill="#E0E0E0"/>
<path d="M35.2764 106.915L60.599 90.8308V110.19L35.2764 126.275V106.915Z" fill="#E0E0E0"/>
<path d="M73.2601 100.4L59.3989 91.5942V108.656L73.2601 117.453V100.4Z" fill="#E0E0E0"/>
<path d="M44.7744 129.036V104.901L50.2051 101.437L51.1012 102.895L66.9258 92.8376V114.958L44.7744 129.036Z" fill="#EBEBEB"/>
<path d="M44.7744 129.036L46.3561 107.919L68.5075 93.8491L66.9258 114.958L44.7744 129.036Z" fill="#F5F5F5"/>
<path d="M47.9378 116.484L35.8608 108.81V125.872L47.9378 133.537V116.484Z" fill="#EBEBEB"/>
<path d="M47.9375 114.958L73.2601 98.873V118.233L47.9375 134.317V114.958Z" fill="#F5F5F5"/>
<path d="M57.864 111.931L62.1649 109.196C62.7259 108.845 63.1778 109.008 63.1778 109.565C63.1357 109.907 63.0223 110.233 62.8466 110.519C62.6709 110.804 62.4376 111.041 62.1649 111.211L57.864 113.946C57.303 114.298 56.8511 114.135 56.8511 113.586C56.8921 113.243 57.0049 112.915 57.1807 112.628C57.3564 112.34 57.5903 112.102 57.864 111.931Z" fill="#E0E0E0"/>
<path d="M47.9377 114.957L47.0962 114.426V133.785L47.9377 134.317V114.957Z" fill="#E0E0E0"/>
<path d="M47.0962 114.426L72.411 98.333L73.2603 98.8732L47.9377 114.958L47.0962 114.426Z" fill="#EBEBEB"/>
<path d="M293.816 180.804L271.657 166.726V114.452L293.816 128.521V180.804Z" fill="#E0E0E0"/>
<path d="M293.816 128.522L325.466 108.416V160.699L293.816 180.805V128.522Z" fill="#EBEBEB"/>
<path d="M325.465 108.416L293.816 128.521L271.657 114.452L303.314 94.3376L325.465 108.416Z" fill="#F5F5F5"/>
<path d="M296.979 130.536L322.302 114.452L322.886 114.82L322.879 134.18L297.564 150.264L296.979 149.896V130.536Z" fill="#E0E0E0"/>
<path d="M297.564 130.905L322.887 114.821L322.879 134.18L297.564 150.265V130.905Z" fill="#F5F5F5"/>
<path d="M307.49 127.879L311.791 125.144C312.352 124.792 312.804 124.955 312.804 125.504C312.763 125.847 312.65 126.175 312.475 126.462C312.299 126.749 312.065 126.988 311.791 127.158L307.49 129.894C306.929 130.245 306.478 130.082 306.478 129.533C306.519 129.19 306.631 128.862 306.807 128.575C306.983 128.288 307.217 128.049 307.49 127.879Z" fill="#E0E0E0"/>
<path d="M296.395 155.04L321.718 138.947V158.315L322.302 158.684L296.979 174.769L296.395 174.4V155.04Z" fill="#E0E0E0"/>
<path d="M296.979 155.409L322.302 139.324V158.684L296.979 174.768V155.409Z" fill="#F5F5F5"/>
<path d="M306.906 152.382L311.215 149.647C311.768 149.296 312.22 149.458 312.22 150.007C312.179 150.349 312.066 150.676 311.892 150.963C311.718 151.25 311.486 151.489 311.215 151.662L306.906 154.397C306.345 154.748 305.893 154.586 305.893 154.028C305.935 153.687 306.049 153.36 306.224 153.075C306.4 152.789 306.633 152.552 306.906 152.382Z" fill="#E0E0E0"/>
<path d="M83.0544 235.446C83.0544 235.446 83.1401 221.848 75.3485 211.654C68.453 202.625 64.7832 196.898 66.957 194.257C69.1309 191.617 73.8058 190.982 80.1092 198.287C86.4126 205.592 86.9034 225.826 86.0308 230.405L83.0544 235.446Z" fill="#02897A"/>
<path opacity="0.2" d="M83.0544 235.446C83.0544 235.446 83.1401 221.848 75.3485 211.654C68.453 202.625 64.7832 196.898 66.957 194.257C69.1309 191.617 73.8058 190.982 80.1092 198.287C86.4126 205.592 86.9034 225.826 86.0308 230.405L83.0544 235.446Z" fill="black"/>
<path d="M84.3637 220.827C84.2749 220.828 84.1887 220.795 84.1193 220.734C84.0499 220.673 84.0014 220.588 83.9819 220.493C81.2548 206.458 74.258 198.698 70.3233 195.32C70.2418 195.251 70.1887 195.148 70.1755 195.036C70.1624 194.924 70.1903 194.81 70.2531 194.72C70.3177 194.63 70.4119 194.571 70.5154 194.557C70.6189 194.542 70.7234 194.573 70.8063 194.643C74.819 198.072 81.9639 206.012 84.7455 220.313C84.7569 220.367 84.7582 220.424 84.7495 220.479C84.7407 220.535 84.722 220.587 84.6944 220.634C84.6668 220.682 84.6309 220.722 84.5888 220.754C84.5467 220.785 84.4993 220.807 84.4494 220.819L84.3637 220.827Z" fill="white"/>
<path d="M82.7584 240.496L79.5872 242.511C79.2489 241.494 78.6785 240.589 77.9307 239.885C77.1829 239.181 76.2829 238.7 75.3174 238.49C71.8502 237.632 68.2505 237.778 65.8195 234.468C63.3885 231.159 66.3493 227.558 65.8195 225.123C65.2897 222.688 64.9469 221.985 60.5992 219.55C56.2515 217.115 54.5373 213.077 57.8098 210.342C61.0822 207.607 66.3805 209.613 69.5906 212.057C72.4423 214.2 75.1538 214.766 78.3406 215.203C81.5273 215.64 86.7165 217.587 85.9218 225.732C85.4013 230.773 84.3395 235.729 82.7584 240.496Z" fill="#02897A"/>
<path d="M70.5877 229.796C70.5047 229.795 70.424 229.766 70.3569 229.712C70.2899 229.658 70.2398 229.582 70.2137 229.496C70.1843 229.387 70.1946 229.269 70.2426 229.168C70.2907 229.067 70.3725 228.991 70.4709 228.956C70.7514 228.861 77.4833 226.512 80.3428 229.033C80.4138 229.106 80.457 229.207 80.464 229.314C80.4709 229.421 80.4411 229.527 80.3804 229.611C80.3196 229.695 80.2324 229.751 80.136 229.768C80.0396 229.785 79.941 229.761 79.8597 229.701C77.3352 227.472 70.7747 229.753 70.7046 229.779L70.5877 229.796Z" fill="white"/>
<path d="M83.1089 239.844C83.014 239.844 82.9224 239.806 82.8518 239.736C82.7812 239.667 82.7368 239.57 82.7271 239.467C80.9896 221.41 61.2223 212.845 61.0276 212.759C60.9793 212.739 60.935 212.709 60.8975 212.67C60.8599 212.631 60.8297 212.584 60.8087 212.532C60.7877 212.481 60.7762 212.425 60.775 212.368C60.7738 212.311 60.7828 212.255 60.8016 212.202C60.8399 212.098 60.913 212.014 61.0058 211.968C61.0986 211.922 61.204 211.916 61.3003 211.953C61.5106 212.047 81.7142 220.793 83.4984 239.389C83.5094 239.502 83.4795 239.615 83.4153 239.703C83.3511 239.791 83.2577 239.848 83.1556 239.861L83.1089 239.844Z" fill="white"/>
<path d="M276.909 228.638C276.995 228.338 280.337 209.407 276.909 195.981C273.792 183.669 269.725 179.125 263.928 178.121C258.131 177.118 255.615 181.714 258.692 187.938C261.77 194.163 269.18 202.42 270.995 216.326C271.774 222.054 272.366 227.026 272.366 227.026L276.909 228.638Z" fill="#02897A"/>
<path opacity="0.2" d="M276.909 228.638C276.995 228.338 280.337 209.407 276.909 195.981C273.792 183.669 269.725 179.125 263.928 178.121C258.131 177.118 255.615 181.714 258.692 187.938C261.77 194.163 269.18 202.42 270.995 216.326C271.774 222.054 272.366 227.026 272.366 227.026L276.909 228.638Z" fill="black"/>
<path d="M274.953 217.767C274.902 217.763 274.852 217.749 274.805 217.724C274.759 217.7 274.718 217.665 274.684 217.623C274.65 217.581 274.624 217.532 274.607 217.478C274.59 217.425 274.584 217.369 274.587 217.312C275.366 201.982 270.816 188.299 262.658 181.585C262.575 181.517 262.52 181.415 262.506 181.303C262.491 181.19 262.518 181.076 262.58 180.985C262.643 180.896 262.735 180.837 262.837 180.821C262.939 180.805 263.042 180.833 263.125 180.899C271.486 187.758 276.176 201.751 275.358 217.364C275.352 217.476 275.306 217.581 275.23 217.656C275.155 217.732 275.055 217.771 274.953 217.767Z" fill="white"/>
<path d="M285.877 238.498C285.432 234.974 287.271 229.693 291.642 228.441C296.013 227.189 297.961 224.429 296.387 221.411C294.814 218.393 295.18 215.623 299.146 214.372C303.112 213.12 306.587 210.942 304.304 206.329C302.644 202.994 302.278 200.834 306.345 194.266C309.719 188.813 306.961 185.615 302.738 186.215C298.515 186.815 295.904 192.354 293.263 193.28C290.622 194.206 290.014 189.267 286.531 191.48C283.048 193.692 283.259 199.359 283.15 203.311C283.04 207.264 282.807 208.156 279.659 207.675C276.511 207.195 273.426 207.761 273.496 216.138C273.55 223.323 277.033 232.222 277.033 232.222L285.877 238.498Z" fill="#02897A"/>
<path d="M280.353 233.14H280.314C280.21 233.127 280.114 233.069 280.049 232.979C279.983 232.889 279.952 232.774 279.963 232.659C282.16 211.062 299.006 192.843 303.4 189.147C303.483 189.078 303.587 189.048 303.69 189.063C303.793 189.078 303.886 189.138 303.949 189.229C304.012 189.32 304.04 189.435 304.026 189.548C304.012 189.661 303.958 189.764 303.875 189.833C299.536 193.477 282.908 211.456 280.742 232.754C280.731 232.859 280.685 232.956 280.613 233.027C280.542 233.098 280.449 233.138 280.353 233.14Z" fill="white"/>
<path d="M288.035 210.05C287.956 210.05 287.879 210.023 287.814 209.975C287.749 209.926 287.698 209.857 287.669 209.776C287.636 209.668 287.641 209.55 287.685 209.446C287.728 209.342 287.806 209.261 287.903 209.219C294.183 206.647 301.304 207.864 301.608 207.916C301.709 207.934 301.799 207.996 301.859 208.088C301.919 208.179 301.943 208.293 301.927 208.404C301.908 208.515 301.852 208.613 301.77 208.68C301.687 208.747 301.585 208.777 301.483 208.764C301.413 208.764 294.261 207.53 288.175 210.025C288.13 210.041 288.083 210.05 288.035 210.05Z" fill="white"/>
<path d="M282.441 223.031C282.386 223.03 282.332 223.017 282.282 222.992C282.233 222.967 282.188 222.93 282.152 222.885C279.541 219.538 277.77 215.498 277.018 211.165C277.01 211.109 277.012 211.052 277.025 210.997C277.037 210.943 277.059 210.891 277.089 210.846C277.12 210.8 277.158 210.762 277.202 210.733C277.246 210.704 277.294 210.684 277.345 210.676C277.396 210.668 277.447 210.67 277.497 210.684C277.547 210.697 277.594 210.721 277.635 210.755C277.676 210.788 277.711 210.83 277.737 210.879C277.764 210.927 277.781 210.98 277.789 211.036C278.534 215.198 280.238 219.081 282.737 222.311C282.785 222.374 282.817 222.451 282.827 222.533C282.838 222.615 282.827 222.699 282.796 222.774C282.765 222.849 282.715 222.914 282.652 222.959C282.589 223.005 282.516 223.029 282.441 223.031Z" fill="white"/>
<path d="M82.7583 107.798V240.504L206.192 162.088L206.185 41.4456L114.408 99.756L111.236 89.6989L82.7583 107.798Z" fill="#22343D"/>
<path d="M82.7583 240.504L89.0851 119.862L212.519 41.4456L206.192 162.088L82.7583 240.504Z" fill="#E0E0E0"/>
<path d="M82.7583 240.504L92.2484 121.877L215.683 43.4521L206.192 162.088L82.7583 240.504Z" fill="#22343D"/>
<path d="M101.746 119.862V252.576L225.18 174.152V53.5095L133.395 111.82L130.232 101.763L101.746 119.862Z" fill="#F03E3D"/>
<path d="M101.746 252.576L108.073 131.926L231.507 53.5095L225.18 174.152L101.746 252.576Z" fill="#E0E0E0"/>
<path d="M101.746 252.576L111.236 133.94L234.67 55.5156L225.18 174.151L101.746 252.576Z" fill="#F03E3D"/>
<path d="M206.161 294.802C184.002 280.724 163.447 265.42 154.066 247.466L182.584 229.35L206.161 294.802Z" fill="#E0E0E0"/>
<path d="M123.897 133.94V266.646L247.332 188.229V67.5874L155.547 125.898L152.383 115.841L123.897 133.94Z" fill="#02897A"/>
<path opacity="0.2" d="M123.897 133.94V266.646L247.332 188.229V67.5874L155.547 125.898L152.383 115.841L123.897 133.94Z" fill="black"/>
<path d="M159.458 173.174C159.146 173.174 159.1 172.779 159.1 172.548V59.3734C159.125 58.9344 159.242 58.5077 159.442 58.1269C159.642 57.7461 159.919 57.4215 160.253 57.1785L249.342 0.591408C249.463 0.507671 249.603 0.460384 249.747 0.454224C250.058 0.454224 250.105 0.848622 250.105 1.08011V114.254C250.081 114.695 249.964 115.123 249.764 115.505C249.564 115.887 249.286 116.214 248.952 116.458L159.863 173.045C159.74 173.125 159.601 173.169 159.458 173.174Z" fill="white"/>
<path d="M249.7 0.848942C249.706 0.911625 249.706 0.974884 249.7 1.03757V114.212C249.674 114.577 249.575 114.931 249.409 115.248C249.243 115.566 249.015 115.839 248.742 116.047L159.653 172.634L159.497 172.711C159.487 172.649 159.487 172.585 159.497 172.522V59.348C159.524 58.9845 159.624 58.6321 159.789 58.3162C159.955 58.0004 160.183 57.729 160.455 57.5218L249.544 0.934679C249.593 0.896858 249.649 0.870593 249.708 0.857518L249.7 0.848942ZM249.755 0.00013697C249.542 0.00708791 249.335 0.0750792 249.155 0.197337L160.066 56.7845C159.674 57.0676 159.348 57.4477 159.114 57.8944C158.88 58.341 158.744 58.8418 158.718 59.3566V172.531C158.718 173.2 159.022 173.585 159.497 173.585C159.709 173.579 159.916 173.511 160.097 173.388L249.186 116.801C249.579 116.52 249.906 116.14 250.141 115.693C250.375 115.246 250.51 114.744 250.534 114.229V1.05472C250.534 0.385961 250.23 -0.00843684 249.755 0.00013697Z" fill="#02897A"/>
<path opacity="0.7" d="M249.7 0.848942C249.706 0.911625 249.706 0.974884 249.7 1.03757V114.212C249.674 114.577 249.575 114.931 249.409 115.248C249.243 115.566 249.015 115.839 248.742 116.047L159.653 172.634L159.497 172.711C159.487 172.649 159.487 172.585 159.497 172.522V59.348C159.524 58.9845 159.624 58.6321 159.789 58.3162C159.955 58.0004 160.183 57.729 160.455 57.5218L249.544 0.934679C249.593 0.896858 249.649 0.870593 249.708 0.857518L249.7 0.848942ZM249.755 0.00013697C249.542 0.00708791 249.335 0.0750792 249.155 0.197337L160.066 56.7845C159.674 57.0676 159.348 57.4477 159.114 57.8944C158.88 58.341 158.744 58.8418 158.718 59.3566V172.531C158.718 173.2 159.022 173.585 159.497 173.585C159.709 173.579 159.916 173.511 160.097 173.388L249.186 116.801C249.579 116.52 249.906 116.14 250.141 115.693C250.375 115.246 250.51 114.744 250.534 114.229V1.05472C250.534 0.385961 250.23 -0.00843684 249.755 0.00013697Z" fill="white"/>
<path d="M168.208 63.6693L199.857 43.5637V83.7749L168.208 103.88V63.6693Z" fill="#02897A"/>
<path opacity="0.8" d="M168.208 63.6693L199.857 43.5637V83.7749L168.208 103.88V63.6693Z" fill="#11B5E4"/>
<path d="M195.112 53.5867V65.6757L194.115 66.2845V62.5892C194.115 60.5486 192.611 59.8541 190.741 61.0373L177.332 69.5682C175.47 70.7514 173.958 73.3664 173.958 75.407V79.1023L172.969 79.7539V67.6906L195.112 53.5867Z" fill="white"/>
<path d="M189.02 84.3663C187.399 85.3952 186.082 84.3149 186.082 81.94V62.5889L182.007 65.0238V84.5292C182.007 86.8956 180.69 89.6735 179.07 90.6767L176.125 92.5458V93.8318L191.949 83.7748V82.4973L189.02 84.3663Z" fill="white"/>
<path d="M206.161 41.5835C206.161 42.698 207.072 43.0153 208.186 42.3122L238.979 22.7211C239.525 22.3803 239.992 21.905 240.344 21.3323C240.695 20.7596 240.921 20.1051 241.005 19.4202C241.005 18.3141 240.093 17.9883 238.979 18.7L208.21 38.2482C207.654 38.5883 207.18 39.0674 206.824 39.6468C206.468 40.2262 206.241 40.8896 206.161 41.5835Z" fill="#455A64"/>
<path d="M206.161 53.5867C206.161 54.7013 207.072 55.0271 208.186 54.3155L238.955 34.7672C239.502 34.4265 239.969 33.9511 240.32 33.3784C240.672 32.8057 240.898 32.1513 240.981 31.4663C240.981 30.3603 240.07 30.0345 238.955 30.7461L208.186 50.2944C207.641 50.6343 207.174 51.1083 206.823 51.6794C206.472 52.2505 206.245 52.9033 206.161 53.5867Z" fill="#455A64"/>
<path d="M206.161 65.6752C206.161 66.7898 207.072 67.1156 208.186 66.404L238.955 46.8557C239.501 46.5158 239.967 46.0418 240.319 45.4707C240.67 44.8995 240.897 44.2468 240.981 43.5633C240.981 42.4488 240.07 42.1229 238.955 42.8346L208.186 62.3829C207.641 62.7228 207.174 63.1968 206.823 63.7679C206.472 64.339 206.245 64.9918 206.161 65.6752Z" fill="#455A64"/>
<path d="M206.161 77.7392C206.161 78.8538 207.072 79.1796 208.186 78.4679L238.955 58.9197C239.501 58.5797 239.967 58.1057 240.319 57.5346C240.67 56.9635 240.897 56.3108 240.981 55.6273C240.981 54.5127 240.07 54.1869 238.955 54.8985L208.186 74.4468C207.641 74.7867 207.174 75.2607 206.823 75.8319C206.472 76.403 206.245 77.0557 206.161 77.7392Z" fill="#455A64"/>
<path d="M168.208 113.938C168.208 115.052 169.112 115.378 170.234 114.666L238.979 70.94C239.525 70.6012 239.992 70.1274 240.344 69.5561C240.695 68.9848 240.922 68.3315 241.005 67.6477C241.005 66.5331 240.093 66.2159 238.979 66.9189L170.234 110.645C169.687 110.984 169.22 111.457 168.868 112.029C168.517 112.6 168.291 113.254 168.208 113.938Z" fill="#455A64"/>
<path d="M168.208 126.001C168.208 127.115 169.112 127.441 170.234 126.73L238.979 83.0546C239.525 82.7138 239.992 82.2385 240.344 81.6658C240.695 81.0931 240.922 80.4386 241.005 79.7537C241.005 78.6476 240.093 78.3218 238.979 79.0335L170.234 122.708C169.687 123.047 169.22 123.52 168.868 124.092C168.517 124.663 168.291 125.317 168.208 126.001Z" fill="#455A64"/>
<path d="M168.208 138.073C168.208 139.179 169.112 139.504 170.234 138.793L238.979 95.1178C239.525 94.777 239.992 94.3017 240.344 93.729C240.695 93.1563 240.922 92.5018 241.005 91.8169C241.005 90.7109 240.093 90.3851 238.979 91.0967L170.234 134.772C169.686 135.111 169.218 135.586 168.867 136.159C168.515 136.732 168.289 137.387 168.208 138.073Z" fill="#455A64"/>
<path d="M123.897 266.646L146.049 160.082L269.483 81.6572L247.332 188.23L123.897 266.646Z" fill="#02897A"/>
<path d="M154.098 168.424V247.466L182.584 229.367V150.333L154.098 168.424Z" fill="#02897A"/>
<path opacity="0.2" d="M154.098 168.424V247.466L182.584 229.367V150.333L154.098 168.424Z" fill="black"/>
<path d="M206.216 294.288C203.792 292.299 180.433 272.656 168.559 244.56C155.921 214.689 155.937 179.845 155.937 166.735V166.324L240.615 112.532C240.615 125.761 240.615 160.657 253.308 190.631C264.909 218.067 287.373 237.461 290.933 240.427L206.216 294.288Z" fill="white"/>
<path d="M240.225 113.303C240.225 127.09 240.467 161.316 252.957 190.845C264.169 217.338 285.487 236.389 290.232 240.41L206.239 293.773C202.958 291.055 180.48 271.739 168.917 244.414C156.295 214.628 156.295 179.853 156.295 166.761V166.598L240.194 113.295L240.225 113.303ZM240.973 111.811L155.515 166.109C155.515 178.447 155.282 214.294 168.177 244.774C180.869 274.688 206.161 294.802 206.161 294.802L291.642 240.496C291.642 240.496 266.319 220.381 253.666 190.467C240.763 159.988 241.005 124.14 241.005 111.803L240.973 111.811Z" fill="#02897A"/>
<path opacity="0.7" d="M240.225 113.303C240.225 127.09 240.467 161.316 252.957 190.845C264.169 217.338 285.487 236.389 290.232 240.41L206.239 293.773C202.958 291.055 180.48 271.739 168.917 244.414C156.295 214.628 156.295 179.853 156.295 166.761V166.598L240.194 113.295L240.225 113.303ZM240.973 111.811L155.515 166.109C155.515 178.447 155.282 214.294 168.177 244.774C180.869 274.688 206.161 294.802 206.161 294.802L291.642 240.496C291.642 240.496 266.319 220.381 253.666 190.467C240.763 159.988 241.005 124.14 241.005 111.803L240.973 111.811Z" fill="white"/>
<path d="M231.335 130.022L204.314 147.169C203.773 147.497 203.312 147.963 202.97 148.529C202.628 149.095 202.416 149.743 202.351 150.419C202.39 151.508 203.332 151.816 204.447 151.105L231.475 133.957C232.01 133.633 232.466 133.172 232.806 132.615C233.147 132.057 233.361 131.418 233.431 130.75C233.384 129.619 232.457 129.31 231.335 130.022Z" fill="#455A64"/>
<path d="M231.912 141.725L204.891 158.873C204.356 159.189 203.903 159.649 203.574 160.21C203.244 160.77 203.049 161.413 203.005 162.079C203.091 163.134 204.073 163.417 205.187 162.705L232.216 145.558C232.748 145.243 233.198 144.784 233.524 144.224C233.85 143.665 234.04 143.023 234.078 142.36C234 141.297 233.034 141.039 231.912 141.725Z" fill="#455A64"/>
<path d="M232.995 153.103L205.966 170.25C204.852 170.962 204.041 172.377 204.174 173.397C204.306 174.417 205.327 174.683 206.449 173.972L233.478 156.824C234.592 156.112 235.387 154.706 235.247 153.686C235.106 152.666 234.109 152.391 232.995 153.103Z" fill="#455A64"/>
<path d="M234.616 164.137L207.587 181.285C206.473 181.996 205.701 183.385 205.888 184.38C206.075 185.374 207.135 185.597 208.226 184.886L235.247 167.738C236.369 167.026 237.117 165.646 236.93 164.652C236.743 163.657 235.769 163.425 234.616 164.137Z" fill="#455A64"/>
<path d="M236.813 174.803L209.784 191.951C208.67 192.662 207.945 194.017 208.226 194.969C208.506 195.92 209.573 196.135 210.688 195.423L237.717 178.276C238.839 177.564 239.54 176.218 239.275 175.258C239.01 174.297 237.927 174.092 236.813 174.803Z" fill="#455A64"/>
<path d="M239.665 185.083L173.795 226.932C172.681 227.644 172.003 228.964 172.307 229.881C172.61 230.799 173.771 230.97 174.886 230.259L240.756 188.41C241.878 187.698 242.524 186.386 242.22 185.46C241.916 184.535 240.74 184.372 239.665 185.083Z" fill="#455A64"/>
<path d="M243.132 194.9L177.27 236.749C176.148 237.46 175.532 238.746 175.906 239.621C176.28 240.495 177.465 240.633 178.602 239.921L244.472 198.072C245.594 197.361 246.194 196.075 245.82 195.2C245.446 194.326 244.254 194.197 243.132 194.9Z" fill="#455A64"/>
<path d="M247.456 204.254L181.586 246.103C180.464 246.815 179.911 248.066 180.355 248.898C180.799 249.73 182.069 249.815 183.191 249.104L249.014 207.255C250.129 206.552 250.666 205.309 250.222 204.477C249.778 203.645 248.547 203.543 247.456 204.254Z" fill="#455A64"/>
<path d="M252.498 213.102L186.635 254.942C185.513 255.654 185.015 256.88 185.521 257.66C186.028 258.441 187.36 258.518 188.482 257.797L254.344 215.949C255.466 215.237 255.949 214.028 255.443 213.239C254.936 212.451 253.62 212.391 252.498 213.102Z" fill="#455A64"/>
<path d="M258.248 221.513L192.378 263.353C191.263 264.065 190.819 265.257 191.38 266.003C191.941 266.749 193.32 266.783 194.442 266.071L260.312 224.205C261.427 223.494 261.871 222.319 261.294 221.573C260.718 220.827 259.37 220.776 258.248 221.513Z" fill="#455A64"/>
<path d="M264.597 229.521L198.751 271.361C197.629 272.072 197.193 273.239 197.847 273.933C198.502 274.627 199.888 274.645 201.003 273.933L266.873 232.084C267.995 231.373 268.384 230.224 267.761 229.512C267.137 228.8 265.735 228.818 264.597 229.521Z" fill="#455A64"/>
<path d="M271.61 237.178L205.74 279.018C204.626 279.729 204.26 280.87 204.961 281.547C205.662 282.224 207.096 282.199 208.218 281.487L274.033 239.638C275.147 238.927 275.498 237.812 274.812 237.126C274.127 236.44 272.701 236.466 271.61 237.178Z" fill="#455A64"/>
<path d="M194.52 153.42L163.447 173.14C163.79 185.529 165.076 203.397 169.782 221.393L200.862 201.673C196.149 183.677 194.863 165.801 194.52 153.42Z" fill="#02897A"/>
<path opacity="0.8" d="M194.52 153.42L163.447 173.14C163.79 185.529 165.076 203.397 169.782 221.393L200.862 201.673C196.149 183.677 194.863 165.801 194.52 153.42Z" fill="#11B5E4"/>
<path d="M176.116 170.413C176.158 169.613 176.045 168.813 175.785 168.065C175.524 167.317 175.122 166.639 174.605 166.075L163.447 173.157C163.541 176.432 163.697 180.093 163.969 184.037C165.421 184.221 166.889 183.922 168.185 183.179C172.571 180.967 176.116 175.232 176.116 170.413Z" fill="#02897A"/>
<path opacity="0.6" d="M176.116 170.413C176.158 169.613 176.045 168.813 175.785 168.065C175.524 167.317 175.122 166.639 174.605 166.075L163.447 173.157C163.541 176.432 163.697 180.093 163.969 184.037C165.421 184.221 166.889 183.922 168.185 183.179C172.571 180.967 176.116 175.232 176.116 170.413Z" fill="white"/>
<path d="M198.221 189.841C196.149 186.969 191.934 178.095 190.134 174.229C190.063 174.076 189.952 173.95 189.816 173.867C189.679 173.784 189.523 173.748 189.368 173.764C189.213 173.78 189.065 173.846 188.945 173.955C188.825 174.064 188.736 174.21 188.692 174.374C186.745 181.698 185.615 189.256 185.326 196.881C182.731 194.614 180.5 191.884 178.727 188.804C178.651 188.685 178.546 188.592 178.424 188.536C178.302 188.48 178.168 188.464 178.038 188.489C177.908 188.514 177.787 188.58 177.689 188.678C177.592 188.777 177.522 188.904 177.488 189.044C174.091 203.44 175.797 217.603 175.797 217.603L200.863 201.673C199.819 197.695 198.954 193.734 198.221 189.841Z" fill="#02897A"/>
<path opacity="0.6" d="M198.221 189.841C196.149 186.969 191.934 178.095 190.134 174.229C190.063 174.076 189.952 173.95 189.816 173.867C189.679 173.784 189.523 173.748 189.368 173.764C189.213 173.78 189.065 173.846 188.945 173.955C188.825 174.064 188.736 174.21 188.692 174.374C186.745 181.698 185.615 189.256 185.326 196.881C182.731 194.614 180.5 191.884 178.727 188.804C178.651 188.685 178.546 188.592 178.424 188.536C178.302 188.48 178.168 188.464 178.038 188.489C177.908 188.514 177.787 188.58 177.689 188.678C177.592 188.777 177.522 188.904 177.488 189.044C174.091 203.44 175.797 217.603 175.797 217.603L200.863 201.673C199.819 197.695 198.954 193.734 198.221 189.841Z" fill="white"/>
</svg>
