<svg width="350" height="320" viewBox="0 0 350 320" fill="none" xmlns="http://www.w3.org/2000/svg">
<path d="M78.6808 293.944C138.934 328.047 236.624 328.047 296.877 293.944C357.129 259.841 357.138 204.532 296.877 170.429C236.615 136.326 138.934 136.316 78.6808 170.429C18.428 204.541 18.428 259.832 78.6808 293.944Z" fill="#EBEBEB"/>
<path d="M314.599 209.328L305.81 203.909C305.81 203.909 303.655 183.94 305.086 168.478C307.105 146.739 320.339 120.611 336.12 126.734C351.9 132.858 328.872 155.048 323.762 173.472C318.653 191.897 314.599 209.328 314.599 209.328Z" fill="#02897A"/>
<path opacity="0.1" d="M314.599 209.328L305.81 203.909C305.81 203.909 303.655 183.94 305.086 168.478C307.105 146.739 320.339 120.611 336.12 126.734C351.9 132.858 328.872 155.048 323.762 173.472C318.653 191.897 314.599 209.328 314.599 209.328Z" fill="black"/>
<path d="M310.026 206.88C309.943 206.881 309.864 206.85 309.801 206.794C309.738 206.738 309.697 206.659 309.685 206.573C306.696 182.188 314.88 145.33 331.401 131.349C331.435 131.32 331.475 131.298 331.517 131.285C331.559 131.272 331.603 131.268 331.646 131.273C331.69 131.278 331.732 131.292 331.77 131.315C331.809 131.337 331.842 131.367 331.87 131.403C331.926 131.478 331.952 131.573 331.942 131.668C331.933 131.762 331.888 131.849 331.819 131.909C315.476 145.746 307.394 182.314 310.358 206.474C310.37 206.568 310.346 206.664 310.292 206.74C310.238 206.816 310.157 206.867 310.068 206.88H310.026Z" fill="white"/>
<path d="M319.291 213.184L313.04 209.346C313.04 209.346 311.975 195.645 318.312 179C323.822 164.549 337.507 152.483 344.388 155.012C351.27 157.541 351.099 162.716 347.744 168.144C344.388 173.572 323.975 186.514 319.291 213.184Z" fill="#02897A"/>
<path d="M315.416 213.536C315.372 213.534 315.328 213.522 315.288 213.502C315.248 213.482 315.212 213.453 315.183 213.417C315.154 213.382 315.131 213.341 315.117 213.296C315.103 213.251 315.098 213.204 315.101 213.157C317.162 179.054 333.428 162.282 343.205 159.727C343.293 159.704 343.386 159.719 343.463 159.768C343.541 159.817 343.598 159.896 343.622 159.988C343.643 160.081 343.629 160.178 343.582 160.259C343.536 160.34 343.462 160.399 343.375 160.422C333.079 163.131 317.716 181.285 315.791 213.202C315.788 213.251 315.775 213.298 315.755 213.341C315.734 213.384 315.705 213.422 315.67 213.454C315.635 213.485 315.595 213.508 315.551 213.522C315.508 213.537 315.462 213.541 315.416 213.536Z" fill="white"/>
<path d="M61.4607 211.983C61.4607 211.983 62.6274 191.96 51.6584 178.232C40.6894 164.504 26.4076 164.558 21.6811 167.114C16.9545 169.67 13.7779 176.977 21.911 182.206C30.0441 187.435 47.3407 197.903 50.2192 207.241L61.4607 211.983Z" fill="#02897A"/>
<path opacity="0.1" d="M61.4607 211.983C61.4607 211.983 62.6274 191.96 51.6584 178.232C40.6894 164.504 26.4076 164.558 21.6811 167.114C16.9545 169.67 13.7779 176.977 21.911 182.206C30.0441 187.435 47.3407 197.903 50.2192 207.241L61.4607 211.983Z" fill="black"/>
<path d="M56.2996 206.971C56.1942 206.969 56.0929 206.927 56.0145 206.852C55.9362 206.778 55.8861 206.675 55.8737 206.564C53.6169 184.41 32.735 172.136 24.4146 170.745C24.3586 170.736 24.3049 170.716 24.2565 170.685C24.208 170.654 24.1658 170.613 24.1322 170.565C24.0986 170.517 24.0742 170.462 24.0606 170.404C24.0469 170.346 24.0442 170.285 24.0526 170.226C24.061 170.167 24.0803 170.11 24.1095 170.058C24.1386 170.007 24.177 169.962 24.2225 169.926C24.268 169.891 24.3196 169.865 24.3745 169.85C24.4294 169.836 24.4864 169.833 24.5423 169.842C33.0586 171.26 54.4089 183.814 56.7254 206.465C56.7313 206.524 56.726 206.584 56.7099 206.641C56.6937 206.699 56.6671 206.752 56.6314 206.798C56.5958 206.844 56.5519 206.882 56.5022 206.91C56.4526 206.939 56.3982 206.956 56.3421 206.962L56.2996 206.971Z" fill="white"/>
<path d="M52.2374 201.886C49.4866 195.239 46.3782 192.258 37.4361 193.848C28.494 195.437 29.7714 195.193 18.828 192.222C14.2122 190.976 9.02575 190.777 4.59728 192.89C0.858632 194.697 -1.93471 198.309 1.68471 202.157C5.7555 206.456 11.8276 207.928 16.3242 211.712C17.3443 212.477 18.1553 213.515 18.6747 214.72C19.8585 217.917 17.4909 221.52 18.1808 224.871C18.8706 228.222 22.1919 230.01 25.3089 230.227C28.4259 230.443 31.5002 229.45 34.6087 229.071C37.7171 228.691 41.2088 229.071 43.3549 231.518C45.6543 234.11 45.7139 238.256 47.8515 241.01C51.0536 245.138 58.9227 246.285 63.1808 243.72L74.3287 236.901C81.6953 226.37 70.0705 218.025 63.9814 209.852C61.0262 205.869 53.8896 205.887 52.2374 201.886Z" fill="#02897A"/>
<path d="M67.422 230.543C67.3495 230.545 67.2779 230.525 67.2149 230.487C67.1519 230.449 67.0999 230.393 67.0644 230.326C54.3495 208.479 19.7308 197.424 7.48439 196.521C7.37291 196.512 7.26933 196.457 7.19603 196.367C7.12273 196.277 7.08559 196.161 7.09264 196.043C7.10137 195.924 7.1533 195.813 7.23749 195.734C7.32169 195.654 7.43158 195.613 7.54401 195.618C19.9522 196.521 54.9031 207.738 67.7882 229.875C67.8453 229.978 67.8621 230.101 67.8351 230.217C67.808 230.334 67.7393 230.434 67.6435 230.498C67.5738 230.53 67.4981 230.546 67.422 230.543Z" fill="white"/>
<path d="M27.1485 220.247C27.0821 220.248 27.0164 220.233 26.9571 220.201C26.8977 220.17 26.8465 220.123 26.8078 220.066C26.7401 219.97 26.711 219.85 26.7269 219.731C26.7429 219.613 26.8026 219.506 26.893 219.434C27.3358 219.082 37.896 210.863 48.1837 210.701C48.2392 210.699 48.2944 210.71 48.346 210.732C48.3976 210.753 48.4446 210.786 48.4843 210.827C48.524 210.868 48.5555 210.917 48.577 210.972C48.5985 211.026 48.6095 211.084 48.6095 211.143C48.6107 211.202 48.6008 211.261 48.5804 211.317C48.56 211.372 48.5296 211.422 48.4909 211.465C48.4521 211.508 48.4058 211.542 48.3545 211.566C48.3033 211.59 48.2481 211.603 48.1922 211.604C38.2026 211.757 27.5317 220.075 27.421 220.157C27.3441 220.222 27.2468 220.254 27.1485 220.247Z" fill="white"/>
<path d="M66.6299 238.22C66.7209 239.533 67.1021 240.805 67.7427 241.933C68.3834 243.061 69.2654 244.014 70.3174 244.713L173.646 307.979C174.788 308.594 176.052 308.914 177.333 308.914C178.615 308.914 179.878 308.594 181.021 307.979L322.391 221.412C323.505 220.788 324.438 219.854 325.089 218.71C325.739 217.565 326.083 216.254 326.083 214.918C326.083 213.582 325.739 212.271 325.089 211.127C324.438 209.983 323.505 209.048 322.391 208.425L219.071 145.204C217.929 144.589 216.665 144.269 215.384 144.269C214.102 144.269 212.839 144.589 211.696 145.204L70.3174 231.744C69.2676 232.442 68.3869 233.391 67.7464 234.516C67.1059 235.641 66.7235 236.909 66.6299 238.22Z" fill="#37474F"/>
<path d="M109.262 207.882L70.3174 231.744C69.2031 232.367 68.2705 233.302 67.6199 234.446C66.9693 235.59 66.6255 236.901 66.6255 238.237C66.6255 239.574 66.9693 240.884 67.6199 242.029C68.2705 243.173 69.2031 244.107 70.3174 244.731L173.646 307.997C174.782 308.626 176.051 308.937 177.333 308.9V207.882H109.262Z" fill="#263238"/>
<path d="M63.1637 231.87C62.1373 231.128 61.2897 230.141 60.6891 228.988C60.0885 227.835 59.7518 226.549 59.7061 225.232V94.4646C59.7746 93.1075 60.1443 91.7866 60.7851 90.6096C61.4259 89.4326 62.3196 88.4326 63.3936 87.691L204.764 1.12376C205.831 0.413924 207.06 0.0258539 208.32 0.00124761C209.579 -0.0233587 210.821 0.316425 211.912 0.984096C213.003 1.65177 213.902 2.62209 214.512 3.7908C215.123 4.95951 215.421 6.28243 215.375 7.61743V138.394C215.305 139.751 214.935 141.071 214.294 142.248C213.654 143.425 212.761 144.425 211.688 145.168L70.3174 231.744C69.2179 232.359 67.9975 232.691 66.7547 232.713C65.512 232.735 64.2818 232.446 63.1637 231.87Z" fill="#455A64"/>
<path d="M77.0108 100.543L60.7873 90.6082C60.1412 91.7803 59.7866 93.1073 59.7568 94.4646V225.232C59.8026 226.549 60.1393 227.835 60.7399 228.988C61.3405 230.141 62.1881 231.128 63.2144 231.87C64.3328 232.442 65.5621 232.726 66.8033 232.701C68.0444 232.676 69.2626 232.342 70.3596 231.726L86.4895 221.854L77.0108 100.543Z" fill="#263238"/>
<path d="M66.6299 98.7092V229.468C66.6299 231.96 68.282 232.972 70.3174 231.726L211.688 145.167C212.761 144.425 213.654 143.425 214.295 142.248C214.935 141.071 215.306 139.751 215.375 138.394V7.62621C215.375 5.1335 213.723 4.12197 211.688 5.36832L70.3174 91.9355C69.2434 92.6771 68.3497 93.6771 67.7089 94.8542C67.0682 96.0312 66.6984 97.352 66.6299 98.7092Z" fill="#37474F"/>
<path d="M70.3171 236.259L173.645 299.48C174.788 300.095 176.051 300.415 177.333 300.415C178.614 300.415 179.878 300.095 181.02 299.48L322.391 212.913C324.435 211.666 324.435 209.643 322.391 208.397L219.071 145.176C217.928 144.561 216.665 144.241 215.384 144.241C214.102 144.241 212.839 144.561 211.696 145.176L70.3171 231.743C68.2732 232.972 68.2732 234.995 70.3171 236.259Z" fill="#455A64"/>
<path d="M72.3016 99.1881L209.712 15.0594C210.93 14.3098 211.926 14.9149 211.926 16.4141V129.606C211.883 130.42 211.661 131.212 211.276 131.918C210.891 132.624 210.356 133.224 209.712 133.67L72.3016 217.799C71.0753 218.549 70.0874 217.944 70.0874 216.444V103.252C70.1283 102.438 70.3502 101.645 70.7351 100.939C71.1199 100.232 71.6566 99.6325 72.3016 99.1881Z" fill="white"/>
<path d="M82.3083 232.855L213.536 152.474C214.107 152.167 214.739 152.007 215.38 152.007C216.02 152.007 216.652 152.167 217.223 152.474L223.943 156.583C224.165 156.663 224.358 156.815 224.495 157.018C224.632 157.22 224.706 157.463 224.706 157.712C224.706 157.961 224.632 158.204 224.495 158.407C224.358 158.609 224.165 158.761 223.943 158.841L92.6897 239.213C92.1182 239.52 91.4866 239.68 90.8459 239.68C90.2053 239.68 89.5736 239.52 89.0021 239.213L82.3083 235.112C82.0859 235.032 81.8927 234.88 81.7558 234.678C81.619 234.475 81.5454 234.233 81.5454 233.984C81.5454 233.734 81.619 233.492 81.7558 233.289C81.8927 233.087 82.0859 232.935 82.3083 232.855Z" fill="#263238"/>
<path d="M99.6134 243.485L230.832 163.104C231.405 162.797 232.038 162.637 232.68 162.637C233.322 162.637 233.955 162.797 234.528 163.104L275.807 188.392C276.029 188.472 276.223 188.624 276.359 188.827C276.496 189.029 276.57 189.272 276.57 189.521C276.57 189.77 276.496 190.013 276.359 190.216C276.223 190.418 276.029 190.57 275.807 190.65L144.733 270.868C144.16 271.175 143.527 271.335 142.885 271.335C142.243 271.335 141.61 271.175 141.037 270.868L99.6134 245.697C99.4016 245.612 99.2193 245.461 99.0906 245.263C98.962 245.066 98.8931 244.831 98.8931 244.591C98.8931 244.351 98.962 244.116 99.0906 243.919C99.2193 243.721 99.4016 243.57 99.6134 243.485Z" fill="#263238"/>
<path d="M217.24 199.23L221.354 196.711C221.524 196.602 221.516 196.431 221.354 196.313L216.602 193.405C216.5 193.35 216.388 193.321 216.274 193.321C216.16 193.321 216.047 193.35 215.946 193.405L211.841 195.925C211.662 196.033 211.671 196.205 211.841 196.322L216.593 199.23C216.693 199.284 216.804 199.312 216.917 199.312C217.029 199.312 217.14 199.284 217.24 199.23ZM209.133 189.296L205.028 191.815C204.849 191.915 204.858 192.095 205.028 192.213L209.78 195.121C209.882 195.176 209.994 195.205 210.108 195.205C210.222 195.205 210.334 195.176 210.436 195.121L214.549 192.601C214.72 192.493 214.711 192.312 214.549 192.204L209.789 189.296C209.687 189.24 209.575 189.211 209.461 189.211C209.347 189.211 209.234 189.24 209.133 189.296ZM195.864 197.424L188.907 201.678C188.736 201.786 188.745 201.967 188.907 202.084L193.659 204.992C193.76 205.048 193.873 205.077 193.987 205.077C194.101 205.077 194.213 205.048 194.315 204.992L201.264 200.739C201.443 200.63 201.426 200.45 201.264 200.341L196.512 197.424C196.412 197.369 196.301 197.34 196.188 197.34C196.075 197.34 195.964 197.369 195.864 197.424ZM203.129 192.972L199.024 195.491C198.845 195.6 198.854 195.78 199.024 195.889L203.776 198.797C203.877 198.852 203.99 198.881 204.104 198.881C204.218 198.881 204.33 198.852 204.432 198.797L208.545 196.277C208.716 196.169 208.707 195.997 208.545 195.88L203.785 192.908C203.683 192.853 203.571 192.824 203.457 192.824C203.343 192.824 203.23 192.853 203.129 192.908V192.972ZM187.008 202.843L182.903 205.354C182.724 205.462 182.741 205.643 182.903 205.76L187.655 208.668C187.755 208.722 187.866 208.749 187.978 208.749C188.091 208.749 188.202 208.722 188.302 208.668L192.415 206.148C192.586 206.04 192.577 205.859 192.415 205.751L187.663 202.843C187.562 202.788 187.449 202.759 187.335 202.759C187.221 202.759 187.109 202.788 187.008 202.843ZM181.046 206.519L176.941 209.039C176.762 209.138 176.779 209.319 176.941 209.436L181.693 212.344C181.795 212.4 181.907 212.429 182.021 212.429C182.135 212.429 182.248 212.4 182.349 212.344L186.463 209.824C186.633 209.716 186.624 209.535 186.463 209.427L181.659 206.456C181.558 206.4 181.446 206.371 181.331 206.371C181.217 206.371 181.105 206.4 181.004 206.456L181.046 206.519ZM199.739 218.35L203.844 215.83C204.023 215.722 204.006 215.55 203.844 215.433L199.092 212.525C198.992 212.469 198.881 212.44 198.769 212.44C198.656 212.44 198.545 212.469 198.445 212.525L194.332 215.045C194.161 215.153 194.17 215.325 194.332 215.442L199.084 218.35C199.183 218.391 199.289 218.409 199.395 218.401C199.501 218.393 199.604 218.36 199.697 218.305L199.739 218.35ZM193.727 222.026L197.84 219.506C198.011 219.407 198.002 219.226 197.84 219.109L193.088 216.201C192.987 216.145 192.874 216.116 192.76 216.116C192.646 216.116 192.534 216.145 192.432 216.201L188.328 218.72C188.149 218.829 188.166 219.009 188.328 219.118L193.08 222.026C193.177 222.067 193.282 222.084 193.387 222.077C193.492 222.069 193.593 222.036 193.684 221.981L193.727 222.026ZM187.723 225.702L191.836 223.191C192.007 223.083 191.998 222.902 191.836 222.785L187.084 219.876C186.982 219.823 186.87 219.795 186.756 219.795C186.643 219.795 186.53 219.823 186.428 219.876L182.324 222.396C182.145 222.505 182.162 222.685 182.324 222.794L187.067 225.702C187.166 225.743 187.272 225.76 187.379 225.753C187.485 225.745 187.588 225.712 187.68 225.657L187.723 225.702ZM181.762 229.378L185.875 226.867C186.045 226.758 186.037 226.578 185.875 226.46L181.123 223.552C181.021 223.497 180.909 223.468 180.795 223.468C180.681 223.468 180.568 223.497 180.467 223.552L176.362 226.063C176.183 226.171 176.192 226.352 176.362 226.469L181.114 229.378C181.3 229.442 181.502 229.425 181.676 229.332L181.762 229.378ZM211.322 202.969L215.435 200.45C215.605 200.35 215.597 200.17 215.435 200.052L210.683 197.144C210.581 197.091 210.469 197.063 210.355 197.063C210.241 197.063 210.129 197.091 210.027 197.144L205.922 199.664C205.743 199.772 205.752 199.953 205.922 200.061L210.674 202.969C210.766 203.003 210.863 203.016 210.96 203.008C211.056 203 211.15 202.972 211.236 202.924L211.322 202.969ZM205.786 214.71L214.95 209.093C215.12 208.993 215.111 208.813 214.95 208.695L203.41 201.633C203.309 201.577 203.196 201.548 203.082 201.548C202.968 201.548 202.856 201.577 202.754 201.633L198.019 204.541C197.84 204.64 197.857 204.821 198.019 204.938L204.134 208.677C204.321 208.795 204.33 208.975 204.134 209.084L200.276 211.305C200.106 211.405 200.114 211.585 200.276 211.703L205.045 214.584C205.143 214.646 205.254 214.683 205.368 214.691C205.482 214.699 205.596 214.678 205.701 214.629L205.786 214.71ZM175.085 210.195L170.98 212.714C170.801 212.823 170.81 212.994 170.98 213.112L175.732 216.02C175.833 216.075 175.946 216.104 176.06 216.104C176.174 216.104 176.286 216.075 176.388 216.02L180.501 213.5C180.671 213.392 180.663 213.22 180.501 213.103L175.749 210.195C175.64 210.114 175.513 210.067 175.38 210.059C175.248 210.051 175.116 210.083 175 210.149L175.085 210.195ZM169.123 213.87L164.882 216.39C164.712 216.499 164.72 216.679 164.882 216.788L169.634 219.696C169.736 219.751 169.848 219.78 169.962 219.78C170.076 219.78 170.189 219.751 170.29 219.696L174.403 217.176C174.574 217.077 174.565 216.896 174.403 216.779L169.617 213.843C169.522 213.791 169.416 213.762 169.308 213.759C169.201 213.756 169.094 213.778 168.996 213.825L169.123 213.87ZM138.959 255.054C139.06 255.11 139.172 255.139 139.287 255.139C139.401 255.139 139.513 255.11 139.614 255.054L143.728 252.534C143.898 252.435 143.89 252.254 143.728 252.137L138.959 249.247C138.857 249.192 138.745 249.163 138.631 249.163C138.517 249.163 138.404 249.192 138.303 249.247L134.198 251.767C134.019 251.875 134.028 252.056 134.198 252.164L138.959 255.054ZM120.93 243.241L116.816 245.761C116.646 245.869 116.654 246.041 116.816 246.158L121.568 249.066C121.67 249.122 121.782 249.151 121.896 249.151C122.01 249.151 122.123 249.122 122.224 249.066L126.337 246.547C126.508 246.438 126.499 246.267 126.337 246.149L121.585 243.241C121.487 243.19 121.38 243.163 121.27 243.163C121.161 243.163 121.053 243.19 120.955 243.241H120.93ZM130.596 251.866C130.697 251.922 130.809 251.95 130.924 251.95C131.038 251.95 131.15 251.922 131.251 251.866L135.356 249.346C135.535 249.247 135.518 249.066 135.356 248.949L130.613 246.041C130.511 245.985 130.399 245.956 130.285 245.956C130.171 245.956 130.058 245.985 129.957 246.041L125.844 248.561C125.673 248.669 125.682 248.85 125.844 248.958L130.596 251.866ZM149.561 257.285L153.675 254.765C153.845 254.657 153.837 254.485 153.675 254.368L148.923 251.46C148.821 251.404 148.709 251.375 148.595 251.375C148.481 251.375 148.368 251.404 148.267 251.46L144.162 253.979C143.983 254.079 144 254.259 144.162 254.377L148.906 257.285C149.01 257.346 149.126 257.379 149.245 257.381C149.364 257.383 149.482 257.353 149.587 257.294L149.561 257.285ZM142.902 260.898C143.003 260.953 143.115 260.982 143.23 260.982C143.344 260.982 143.456 260.953 143.557 260.898L147.671 258.378C147.841 258.278 147.833 258.098 147.671 257.98L142.919 255.072C142.817 255.017 142.705 254.988 142.591 254.988C142.477 254.988 142.364 255.017 142.263 255.072L138.158 257.592C137.979 257.7 137.988 257.881 138.158 257.989L142.902 260.898ZM126.934 239.511L122.829 242.031C122.65 242.13 122.658 242.311 122.829 242.428L127.581 245.336C127.682 245.392 127.795 245.421 127.909 245.421C128.023 245.421 128.135 245.392 128.237 245.336L132.35 242.817C132.52 242.708 132.512 242.528 132.35 242.419L127.598 239.511C127.495 239.467 127.383 239.449 127.273 239.458C127.162 239.467 127.054 239.504 126.959 239.565L126.934 239.511ZM156.962 221.132L152.849 223.643C152.678 223.751 152.687 223.932 152.849 224.04L157.601 226.957C157.703 227.011 157.815 227.038 157.929 227.038C158.042 227.038 158.155 227.011 158.257 226.957L162.361 224.446C162.54 224.338 162.532 224.157 162.361 224.04L157.609 221.132C157.509 221.09 157.4 221.074 157.293 221.083C157.185 221.093 157.081 221.128 156.988 221.186L156.962 221.132ZM132.997 235.889L128.892 238.4C128.714 238.508 128.722 238.689 128.892 238.807L133.644 241.715C133.746 241.768 133.859 241.796 133.972 241.796C134.086 241.796 134.198 241.768 134.3 241.715L138.414 239.195C138.584 239.086 138.575 238.906 138.414 238.797L133.662 235.88C133.558 235.827 133.444 235.8 133.328 235.801C133.213 235.803 133.1 235.833 132.997 235.889ZM163.026 217.501L158.878 220.003C158.708 220.111 158.716 220.292 158.878 220.4L163.63 223.308C163.732 223.364 163.844 223.393 163.958 223.393C164.072 223.393 164.185 223.364 164.286 223.308L168.391 220.798C168.57 220.689 168.561 220.509 168.391 220.391L163.656 217.519C163.554 217.462 163.441 217.43 163.326 217.427C163.21 217.424 163.096 217.449 162.992 217.501H163.026ZM151.018 224.862L146.904 227.373C146.734 227.481 146.743 227.662 146.904 227.779L151.656 230.687C151.758 230.741 151.871 230.768 151.984 230.768C152.098 230.768 152.21 230.741 152.312 230.687L156.417 228.176C156.596 228.068 156.579 227.887 156.417 227.77L151.673 224.862C151.567 224.803 151.449 224.772 151.329 224.772C151.208 224.772 151.09 224.803 150.984 224.862H151.018ZM145.005 228.538L140.9 231.048C140.722 231.157 140.739 231.337 140.9 231.455L145.652 234.363C145.754 234.416 145.867 234.444 145.98 234.444C146.094 234.444 146.206 234.416 146.308 234.363L150.413 231.852C150.583 231.744 150.575 231.563 150.413 231.446L145.661 228.538C145.555 228.478 145.436 228.447 145.316 228.447C145.196 228.447 145.078 228.478 144.971 228.538H145.005ZM138.959 232.213L134.854 234.724C134.675 234.833 134.692 235.013 134.854 235.131L139.597 238.039C139.699 238.094 139.811 238.123 139.925 238.123C140.039 238.123 140.152 238.094 140.253 238.039L144.366 235.528C144.537 235.42 144.528 235.239 144.366 235.122L139.614 232.213C139.512 232.16 139.4 232.132 139.287 232.132C139.173 232.132 139.061 232.16 138.959 232.213ZM169.66 236.729L173.765 234.218C173.944 234.11 173.935 233.929 173.765 233.812L169.004 230.841C168.902 230.787 168.79 230.76 168.676 230.76C168.563 230.76 168.45 230.787 168.348 230.841L164.235 233.351C164.065 233.46 164.073 233.64 164.235 233.758L168.987 236.666C169.09 236.729 169.207 236.763 169.326 236.767C169.445 236.77 169.562 236.741 169.668 236.684L169.66 236.729ZM222.418 181.167L218.305 183.687C218.135 183.795 218.143 183.967 218.305 184.084L223.057 186.993C223.158 187.048 223.271 187.077 223.385 187.077C223.499 187.077 223.611 187.048 223.713 186.993L227.818 184.473C227.996 184.364 227.988 184.193 227.818 184.075L223.066 181.167C222.965 181.113 222.854 181.085 222.742 181.085C222.629 181.085 222.519 181.113 222.418 181.167ZM215.145 185.62L211.041 188.14C210.862 188.239 210.879 188.42 211.041 188.537L215.784 191.445C215.886 191.499 215.998 191.526 216.112 191.526C216.226 191.526 216.338 191.499 216.44 191.445L220.553 188.925C220.724 188.817 220.715 188.636 220.553 188.528L215.801 185.62C215.702 185.556 215.59 185.518 215.474 185.51C215.359 185.502 215.243 185.525 215.137 185.575L215.145 185.62ZM228.422 177.491L224.317 180.011C224.139 180.111 224.147 180.291 224.317 180.409L229.07 183.317C229.171 183.372 229.283 183.401 229.397 183.401C229.511 183.401 229.624 183.372 229.725 183.317L233.839 180.797C234.009 180.689 234 180.508 233.839 180.4L229.087 177.491C228.983 177.42 228.863 177.378 228.739 177.37C228.615 177.362 228.491 177.388 228.38 177.446L228.422 177.491ZM197.338 211.486L201.451 208.966C201.622 208.858 201.613 208.677 201.451 208.569L196.699 205.661C196.598 205.605 196.485 205.576 196.371 205.576C196.257 205.576 196.145 205.605 196.043 205.661L191.938 208.181C191.76 208.28 191.768 208.461 191.938 208.578L196.691 211.486C196.793 211.532 196.904 211.551 197.015 211.544C197.126 211.536 197.233 211.501 197.329 211.441L197.338 211.486ZM235.082 173.834C234.981 173.778 234.868 173.749 234.754 173.749C234.64 173.749 234.528 173.778 234.426 173.834L230.321 176.353C230.143 176.453 230.151 176.633 230.321 176.751L235.073 179.659C235.175 179.712 235.288 179.74 235.401 179.74C235.515 179.74 235.627 179.712 235.729 179.659L239.843 177.139C240.013 177.031 240.004 176.85 239.843 176.742L235.082 173.834ZM175.672 233.008L179.786 230.497C179.956 230.389 179.948 230.209 179.786 230.091L175.008 227.228C174.907 227.173 174.794 227.144 174.68 227.144C174.566 227.144 174.454 227.173 174.352 227.228L170.247 229.739C170.069 229.847 170.077 230.028 170.247 230.145L175 233.053C175.107 233.103 175.224 233.125 175.341 233.117C175.458 233.109 175.572 233.072 175.672 233.008ZM249.313 187.923L253.426 185.403C253.596 185.304 253.588 185.123 253.426 185.006L248.648 182.07C248.547 182.015 248.435 181.986 248.321 181.986C248.207 181.986 248.094 182.015 247.993 182.07L243.888 184.59C243.709 184.699 243.718 184.879 243.888 184.988L248.64 187.896C248.741 187.959 248.856 187.994 248.973 187.999C249.09 188.003 249.207 187.977 249.313 187.923ZM236.538 187.444L240.652 184.924C240.822 184.816 240.813 184.644 240.652 184.527L235.9 181.619C235.798 181.563 235.686 181.534 235.572 181.534C235.458 181.534 235.345 181.563 235.244 181.619L231.139 184.139C230.96 184.247 230.969 184.419 231.139 184.536L235.891 187.444C235.986 187.502 236.092 187.537 236.201 187.545C236.31 187.552 236.42 187.533 236.521 187.489L236.538 187.444ZM241.878 177.943C241.777 177.888 241.664 177.859 241.55 177.859C241.436 177.859 241.324 177.888 241.222 177.943L237.117 180.463C236.939 180.562 236.947 180.743 237.117 180.86L241.869 183.768C241.971 183.824 242.083 183.853 242.197 183.853C242.311 183.853 242.424 183.824 242.525 183.768L246.639 181.249C246.809 181.14 246.8 180.96 246.639 180.851L241.878 177.943ZM243.147 177.166L254.678 184.229C254.779 184.284 254.892 184.313 255.006 184.313C255.12 184.313 255.232 184.284 255.334 184.229L259.447 181.709C259.617 181.601 259.609 181.429 259.447 181.312L247.908 174.249C247.806 174.194 247.694 174.165 247.58 174.165C247.466 174.165 247.353 174.194 247.252 174.249L243.147 176.769C242.926 176.868 242.943 177.049 243.13 177.166H243.147ZM229.214 185.295L225.101 187.814C224.931 187.923 224.939 188.103 225.101 188.212L229.853 191.12C229.954 191.175 230.067 191.204 230.181 191.204C230.295 191.204 230.407 191.175 230.509 191.12L234.614 188.6C234.792 188.501 234.784 188.32 234.614 188.203L229.862 185.295C229.765 185.241 229.658 185.211 229.548 185.208C229.439 185.205 229.331 185.228 229.231 185.277L229.214 185.295ZM184.018 212.967L179.888 215.487C179.718 215.595 179.726 215.776 179.888 215.884L184.64 218.793C184.741 218.848 184.854 218.877 184.968 218.877C185.082 218.877 185.194 218.848 185.296 218.793L189.401 216.273C189.579 216.173 189.571 215.993 189.401 215.875L184.649 212.967C184.55 212.911 184.439 212.879 184.327 212.876C184.214 212.873 184.103 212.898 184.001 212.949L184.018 212.967ZM242.67 191.599C242.771 191.654 242.884 191.683 242.998 191.683C243.112 191.683 243.224 191.654 243.326 191.599L247.439 189.079C247.609 188.98 247.601 188.799 247.439 188.682L242.687 185.773C242.585 185.72 242.473 185.692 242.359 185.692C242.245 185.692 242.133 185.72 242.031 185.773L237.926 188.293C237.748 188.402 237.756 188.582 237.926 188.691L242.67 191.599ZM190.022 209.291L185.917 211.811C185.739 211.92 185.747 212.091 185.917 212.209L190.67 215.117C190.771 215.172 190.883 215.201 190.997 215.201C191.112 215.201 191.224 215.172 191.325 215.117L195.439 212.597C195.609 212.489 195.6 212.317 195.439 212.2L190.687 209.291C190.583 209.229 190.467 209.194 190.348 209.191C190.229 209.188 190.111 209.216 190.005 209.273L190.022 209.291ZM145.005 251.396C145.107 251.452 145.219 251.481 145.333 251.481C145.447 251.481 145.56 251.452 145.661 251.396L149.774 248.877C149.945 248.768 149.936 248.597 149.774 248.479L145.022 245.571C144.921 245.516 144.808 245.487 144.694 245.487C144.58 245.487 144.468 245.516 144.366 245.571L140.262 248.091C140.083 248.199 140.1 248.371 140.262 248.488L145.005 251.396ZM135.978 242.365L131.865 244.885C131.694 244.993 131.703 245.165 131.865 245.282L136.617 248.19C136.718 248.246 136.83 248.275 136.945 248.275C137.059 248.275 137.171 248.246 137.272 248.19L141.377 245.67C141.556 245.562 141.548 245.391 141.377 245.273L136.625 242.365C136.523 242.308 136.409 242.278 136.293 242.278C136.177 242.278 136.063 242.308 135.961 242.365H135.978ZM151.673 247.721L155.778 245.201C155.949 245.092 155.94 244.912 155.778 244.803L151.026 241.895C150.925 241.84 150.812 241.811 150.698 241.811C150.584 241.811 150.472 241.84 150.37 241.895L146.223 244.388C146.053 244.487 146.061 244.668 146.223 244.785L150.975 247.694C151.078 247.758 151.194 247.794 151.313 247.799C151.432 247.803 151.55 247.777 151.656 247.721H151.673ZM157.677 244.045L161.782 241.525C161.961 241.417 161.944 241.236 161.782 241.128L157.039 238.219C156.937 238.164 156.825 238.135 156.711 238.135C156.597 238.135 156.484 238.164 156.383 238.219L152.27 240.73C152.099 240.839 152.108 241.019 152.27 241.137L157.022 244.045C157.126 244.101 157.241 244.13 157.358 244.13C157.475 244.13 157.59 244.101 157.694 244.045H157.677ZM163.639 240.36L167.744 237.849C167.923 237.741 167.914 237.56 167.744 237.452L162.992 234.535C162.89 234.481 162.777 234.453 162.664 234.453C162.55 234.453 162.438 234.481 162.336 234.535L158.222 237.045C158.052 237.154 158.061 237.334 158.222 237.452L162.975 240.36C163.079 240.42 163.196 240.451 163.315 240.451C163.434 240.451 163.551 240.42 163.656 240.36H163.639ZM141.939 238.689L137.826 241.209C137.656 241.308 137.664 241.489 137.826 241.606L142.578 244.514C142.679 244.57 142.792 244.599 142.906 244.599C143.02 244.599 143.132 244.57 143.234 244.514L147.347 241.995C147.518 241.886 147.509 241.706 147.347 241.597L142.595 238.689C142.497 238.638 142.389 238.612 142.28 238.612C142.171 238.612 142.063 238.638 141.965 238.689H141.939ZM147.943 235.013L143.838 237.524C143.66 237.632 143.668 237.813 143.838 237.93L148.591 240.839C148.693 240.892 148.805 240.92 148.918 240.92C149.032 240.92 149.144 240.892 149.246 240.839L153.436 238.337C153.607 238.228 153.598 238.048 153.436 237.939L148.684 235.031C148.577 234.962 148.454 234.924 148.329 234.921C148.203 234.917 148.079 234.949 147.969 235.013H147.943ZM171.968 220.31L167.914 222.821C167.744 222.929 167.752 223.11 167.914 223.227L172.666 226.135C172.768 226.189 172.88 226.216 172.994 226.216C173.108 226.216 173.22 226.189 173.322 226.135L177.427 223.625C177.606 223.516 177.589 223.335 177.427 223.218L172.683 220.31C172.577 220.248 172.459 220.216 172.338 220.216C172.218 220.216 172.099 220.248 171.993 220.31H171.968ZM165.955 223.986L161.85 226.497C161.68 226.605 161.689 226.786 161.85 226.903L166.603 229.811C166.704 229.864 166.817 229.892 166.93 229.892C167.044 229.892 167.156 229.864 167.258 229.811L171.363 227.3C171.542 227.192 171.525 227.011 171.363 226.894L166.611 223.986C166.512 223.937 166.405 223.911 166.296 223.911C166.187 223.911 166.079 223.937 165.981 223.986H165.955ZM177.972 216.625L173.875 219.145C173.705 219.253 173.714 219.434 173.875 219.542L178.628 222.459C178.729 222.513 178.842 222.541 178.955 222.541C179.069 222.541 179.181 222.513 179.283 222.459L183.388 219.94C183.567 219.84 183.558 219.66 183.388 219.542L178.636 216.634C178.537 216.582 178.428 216.554 178.318 216.553C178.207 216.551 178.098 216.576 177.997 216.625H177.972ZM153.947 231.337L149.842 233.848C149.664 233.957 149.672 234.137 149.842 234.255L154.595 237.163C154.697 237.216 154.809 237.244 154.922 237.244C155.036 237.244 155.148 237.216 155.25 237.163L159.364 234.643C159.534 234.535 159.525 234.354 159.364 234.246L154.612 231.328C154.511 231.279 154.402 231.255 154.291 231.256C154.181 231.258 154.072 231.285 153.973 231.337H153.947ZM159.951 227.662L155.846 230.172C155.668 230.281 155.685 230.461 155.846 230.579L160.599 233.487C160.698 233.542 160.809 233.571 160.922 233.571C161.035 233.571 161.146 233.542 161.246 233.487L165.359 230.976C165.529 230.868 165.521 230.687 165.359 230.57L160.607 227.662C160.508 227.612 160.401 227.587 160.292 227.587C160.183 227.587 160.075 227.612 159.977 227.662H159.951ZM155.574 253.618L159.679 251.098C159.849 250.99 159.841 250.809 159.679 250.701L154.927 247.793C154.825 247.737 154.713 247.709 154.599 247.709C154.485 247.709 154.372 247.737 154.271 247.793L150.166 250.313C149.987 250.412 150.004 250.593 150.166 250.71L154.918 253.618C155.023 253.678 155.14 253.71 155.259 253.71C155.378 253.71 155.495 253.678 155.599 253.618H155.574ZM120.359 249.807L115.607 246.899C115.506 246.843 115.393 246.814 115.279 246.814C115.165 246.814 115.053 246.843 114.951 246.899L110.855 249.437C110.685 249.545 110.693 249.717 110.855 249.834L115.607 252.742C115.708 252.798 115.821 252.827 115.935 252.827C116.049 252.827 116.161 252.798 116.263 252.742L120.368 250.222C120.555 250.141 120.546 249.96 120.359 249.807ZM129.352 252.607L124.6 249.699C124.5 249.645 124.389 249.618 124.277 249.618C124.164 249.618 124.053 249.645 123.953 249.699L117.668 253.591C117.498 253.7 117.506 253.88 117.668 253.989L122.42 256.897C122.521 256.952 122.634 256.981 122.748 256.981C122.862 256.981 122.974 256.952 123.076 256.897L129.395 253.031C129.591 252.941 129.54 252.76 129.352 252.643V252.607ZM113.069 244.18L108.3 241.308C108.199 241.253 108.086 241.224 107.972 241.224C107.858 241.224 107.746 241.253 107.644 241.308L102.603 244.388C102.432 244.496 102.441 244.677 102.603 244.794L107.355 247.703C107.456 247.758 107.568 247.787 107.683 247.787C107.797 247.787 107.909 247.758 108.01 247.703L113.061 244.614C113.265 244.514 113.256 244.334 113.069 244.216V244.18ZM116.944 241.805C117.045 241.86 117.158 241.889 117.272 241.889C117.386 241.889 117.498 241.86 117.6 241.805L121.705 239.285C121.883 239.186 121.875 239.005 121.705 238.888L116.953 235.98C116.851 235.924 116.739 235.895 116.625 235.895C116.511 235.895 116.398 235.924 116.297 235.98L112.183 238.499C112.013 238.608 112.022 238.788 112.183 238.897L116.944 241.805ZM137.724 255.795L132.997 252.923C132.895 252.869 132.783 252.842 132.669 252.842C132.556 252.842 132.443 252.869 132.341 252.923L124.438 257.764C124.268 257.872 124.277 258.053 124.438 258.161L129.19 261.078C129.292 261.132 129.405 261.159 129.518 261.159C129.632 261.159 129.744 261.132 129.846 261.078L137.749 256.237C137.92 256.129 137.911 255.948 137.724 255.831V255.795ZM141.667 261.692L136.915 258.838C136.813 258.783 136.701 258.754 136.587 258.754C136.473 258.754 136.36 258.783 136.259 258.838L131.2 261.936C131.03 262.045 131.038 262.225 131.2 262.343L135.952 265.251C136.054 265.304 136.167 265.332 136.28 265.332C136.394 265.332 136.506 265.304 136.608 265.251L141.667 262.153C141.863 262.027 141.854 261.846 141.667 261.729V261.692ZM161.595 214.467C161.696 214.522 161.809 214.551 161.923 214.551C162.037 214.551 162.149 214.522 162.251 214.467L166.356 211.956C166.534 211.847 166.517 211.667 166.356 211.549L161.603 208.641C161.501 208.588 161.389 208.56 161.276 208.56C161.162 208.56 161.05 208.588 160.948 208.641L156.843 211.197C156.673 211.306 156.681 211.486 156.843 211.595L161.595 214.467ZM149.578 221.827C149.68 221.881 149.793 221.908 149.906 221.908C150.02 221.908 150.132 221.881 150.234 221.827L154.348 219.316C154.518 219.208 154.509 219.027 154.348 218.91L149.595 216.002C149.494 215.949 149.381 215.921 149.268 215.921C149.154 215.921 149.042 215.949 148.94 216.002L144.835 218.513C144.656 218.621 144.673 218.802 144.835 218.919L149.578 221.827ZM122.948 238.165C123.049 238.221 123.162 238.25 123.276 238.25C123.39 238.25 123.502 238.221 123.604 238.165L127.709 235.645C127.887 235.537 127.879 235.366 127.709 235.248L122.957 232.34C122.855 232.284 122.743 232.256 122.629 232.256C122.515 232.256 122.402 232.284 122.301 232.34L118.187 234.86C118.017 234.968 118.026 235.14 118.187 235.257L122.948 238.165ZM155.591 218.197C155.691 218.25 155.802 218.278 155.915 218.278C156.027 218.278 156.138 218.25 156.238 218.197L160.352 215.686C160.522 215.577 160.513 215.397 160.352 215.279L155.599 212.371C155.498 212.316 155.386 212.287 155.272 212.287C155.158 212.287 155.045 212.316 154.944 212.371L150.839 214.882C150.66 214.99 150.677 215.171 150.839 215.288L155.591 218.197ZM143.574 225.548C143.676 225.604 143.788 225.633 143.902 225.633C144.016 225.633 144.129 225.604 144.23 225.548L148.344 223.037C148.514 222.929 148.505 222.748 148.344 222.631L143.592 219.723C143.49 219.67 143.377 219.642 143.264 219.642C143.15 219.642 143.038 219.67 142.936 219.723L138.831 222.234C138.652 222.342 138.661 222.523 138.831 222.64L143.574 225.548ZM144.963 262.207C144.861 262.154 144.748 262.126 144.635 262.126C144.521 262.126 144.409 262.154 144.307 262.207L137.988 266.064C137.817 266.172 137.826 266.353 137.988 266.47L142.74 269.378C142.841 269.434 142.954 269.463 143.068 269.463C143.182 269.463 143.294 269.434 143.396 269.378L149.715 265.513C149.894 265.404 149.877 265.224 149.715 265.106L144.963 262.207ZM134.956 230.841C135.058 230.894 135.17 230.922 135.284 230.922C135.398 230.922 135.51 230.894 135.612 230.841L139.725 228.321C139.895 228.213 139.887 228.032 139.725 227.924L134.973 225.015C134.872 224.96 134.759 224.931 134.645 224.931C134.531 224.931 134.419 224.96 134.317 225.015L130.212 227.535C130.034 227.635 130.042 227.815 130.212 227.933L134.956 230.841ZM128.952 234.453C129.053 234.509 129.166 234.538 129.28 234.538C129.394 234.538 129.506 234.509 129.608 234.453L133.721 231.934C133.891 231.825 133.883 231.644 133.721 231.536L128.969 228.628C128.868 228.573 128.755 228.544 128.641 228.544C128.527 228.544 128.415 228.573 128.313 228.628L124.208 231.148C124.03 231.247 124.038 231.428 124.208 231.545L128.952 234.453ZM256.219 194.082C256.118 194.027 256.006 193.998 255.892 193.998C255.777 193.998 255.665 194.027 255.564 194.082L245.412 200.26C245.242 200.368 245.25 200.549 245.412 200.666L250.164 203.575C250.266 203.628 250.379 203.656 250.492 203.656C250.606 203.656 250.718 203.628 250.82 203.575L260.989 197.424C261.167 197.316 261.159 197.135 260.989 197.018L256.219 194.082ZM242.943 202.211C242.841 202.155 242.729 202.126 242.615 202.126C242.501 202.126 242.388 202.155 242.287 202.211L238.182 204.722C238.003 204.83 238.012 205.011 238.182 205.128L242.934 208.036C243.036 208.089 243.148 208.117 243.262 208.117C243.376 208.117 243.488 208.089 243.59 208.036L247.703 205.525C247.873 205.417 247.865 205.236 247.703 205.119L242.943 202.211ZM161.603 249.942L165.708 247.423C165.887 247.314 165.87 247.134 165.708 247.025L160.965 244.108C160.863 244.055 160.751 244.027 160.637 244.027C160.523 244.027 160.411 244.055 160.309 244.108L156.196 246.619C156.025 246.727 156.034 246.908 156.196 247.025L160.948 249.933C161.049 249.988 161.161 250.017 161.275 250.019C161.388 250.021 161.501 249.994 161.603 249.942ZM230.935 209.562C230.833 209.509 230.72 209.481 230.607 209.481C230.493 209.481 230.381 209.509 230.279 209.562L226.165 212.073C225.995 212.182 226.004 212.362 226.165 212.48L230.918 215.388C231.019 215.443 231.131 215.472 231.245 215.472C231.359 215.472 231.472 215.443 231.573 215.388L235.678 212.877C235.857 212.769 235.848 212.588 235.678 212.471L230.935 209.562ZM262.223 190.407C262.121 190.353 262.009 190.325 261.896 190.325C261.782 190.325 261.67 190.353 261.568 190.407L257.463 192.908C257.284 193.017 257.292 193.197 257.463 193.306L262.215 196.223C262.317 196.276 262.429 196.304 262.543 196.304C262.656 196.304 262.769 196.276 262.871 196.223L266.984 193.712C267.154 193.604 267.146 193.423 266.984 193.306L262.223 190.407ZM272.979 189.639L261.44 182.576C261.339 182.521 261.226 182.492 261.112 182.492C260.998 182.492 260.886 182.521 260.784 182.576L256.679 185.096C256.5 185.204 256.509 185.385 256.679 185.493L268.219 192.556C268.32 192.611 268.433 192.64 268.547 192.64C268.661 192.64 268.773 192.611 268.875 192.556L272.988 190.036C273.175 189.937 273.167 189.756 272.979 189.639ZM208.494 223.308C208.393 223.253 208.28 223.224 208.166 223.224C208.052 223.224 207.94 223.253 207.838 223.308L202.78 226.406C202.609 226.515 202.618 226.695 202.78 226.804L207.532 229.712C207.633 229.767 207.746 229.796 207.86 229.796C207.974 229.796 208.086 229.767 208.188 229.712L213.246 226.614C213.417 226.506 213.408 226.325 213.246 226.217L208.494 223.308ZM223.662 214.015C223.56 213.96 223.448 213.931 223.334 213.931C223.22 213.931 223.107 213.96 223.006 214.015L216.687 217.88C216.516 217.989 216.525 218.169 216.687 218.278L221.439 221.195C221.541 221.248 221.653 221.276 221.767 221.276C221.88 221.276 221.993 221.248 222.095 221.195L228.414 217.33C228.584 217.221 228.576 217.041 228.414 216.923L223.662 214.015ZM194.587 231.816C194.485 231.763 194.373 231.735 194.259 231.735C194.145 231.735 194.033 231.763 193.931 231.816L160.113 252.516C159.943 252.625 159.951 252.805 160.113 252.923L164.865 255.831C164.967 255.884 165.079 255.912 165.193 255.912C165.307 255.912 165.419 255.884 165.521 255.831L199.339 235.122C199.509 235.013 199.501 234.833 199.339 234.715L194.587 231.816ZM158.87 253.69C158.768 253.635 158.656 253.606 158.542 253.606C158.428 253.606 158.315 253.635 158.214 253.69L153.164 256.788C152.985 256.897 152.993 257.077 153.164 257.186L157.916 260.094C158.017 260.149 158.13 260.178 158.244 260.178C158.358 260.178 158.47 260.149 158.572 260.094L163.656 257.032C163.826 256.924 163.818 256.743 163.656 256.635L158.87 253.69ZM201.536 227.562C201.434 227.509 201.322 227.481 201.208 227.481C201.095 227.481 200.983 227.509 200.881 227.562L195.83 230.66C195.652 230.768 195.66 230.949 195.83 231.066L200.583 233.975C200.684 234.028 200.797 234.056 200.91 234.056C201.024 234.056 201.136 234.028 201.238 233.975L206.297 230.877C206.476 230.777 206.459 230.597 206.297 230.479L201.536 227.562ZM151.92 257.935C151.818 257.882 151.706 257.854 151.593 257.854C151.479 257.854 151.367 257.882 151.265 257.935L146.206 261.033C146.036 261.141 146.044 261.322 146.206 261.44L150.958 264.348C151.06 264.401 151.172 264.429 151.286 264.429C151.4 264.429 151.512 264.401 151.614 264.348L156.664 261.259C156.843 261.151 156.834 260.97 156.664 260.852L151.92 257.935ZM215.443 219.036C215.341 218.983 215.229 218.955 215.116 218.955C215.002 218.955 214.89 218.983 214.788 219.036L209.738 222.125C209.559 222.234 209.567 222.414 209.738 222.532L214.49 225.44C214.592 225.493 214.704 225.521 214.818 225.521C214.931 225.521 215.043 225.493 215.145 225.44L220.204 222.342C220.383 222.234 220.366 222.053 220.204 221.936L215.443 219.036ZM236.939 205.878C236.837 205.822 236.725 205.793 236.611 205.793C236.497 205.793 236.384 205.822 236.283 205.878L232.178 208.388C231.999 208.497 232.008 208.677 232.178 208.795L236.93 211.703C237.032 211.756 237.144 211.784 237.258 211.784C237.372 211.784 237.484 211.756 237.586 211.703L241.699 209.192C241.87 209.084 241.861 208.903 241.699 208.786L236.939 205.878ZM250.096 195.744L254.201 193.233C254.38 193.125 254.371 192.944 254.201 192.827L249.449 189.919C249.347 189.865 249.235 189.838 249.121 189.838C249.007 189.838 248.895 189.865 248.793 189.919L244.68 192.439C244.51 192.547 244.518 192.728 244.68 192.836L249.432 195.753C249.535 195.808 249.649 195.837 249.764 195.837C249.879 195.837 249.993 195.808 250.096 195.753V195.744ZM223.27 195.618L227.383 193.098C227.554 192.99 227.545 192.809 227.383 192.701L222.631 189.792C222.53 189.737 222.417 189.708 222.303 189.708C222.189 189.708 222.077 189.737 221.975 189.792L217.871 192.312C217.692 192.421 217.709 192.592 217.871 192.71L222.614 195.618C222.716 195.673 222.828 195.702 222.942 195.702C223.056 195.702 223.169 195.673 223.27 195.618ZM209.644 220.572L221.652 213.22C221.822 213.112 221.814 212.931 221.652 212.814L216.9 209.906C216.798 209.852 216.686 209.824 216.572 209.824C216.458 209.824 216.346 209.852 216.244 209.906L204.236 217.266C204.066 217.366 204.074 217.546 204.236 217.664L208.988 220.572C209.093 220.62 209.207 220.642 209.321 220.634C209.435 220.626 209.546 220.589 209.644 220.527V220.572ZM243.436 199.465C243.538 199.519 243.651 199.546 243.764 199.546C243.878 199.546 243.99 199.519 244.092 199.465L248.197 196.954C248.376 196.846 248.367 196.665 248.197 196.548L243.445 193.64C243.344 193.584 243.231 193.555 243.117 193.555C243.003 193.555 242.891 193.584 242.789 193.64L238.676 196.151C238.506 196.259 238.514 196.44 238.676 196.557L243.436 199.465ZM237.305 195.32L241.41 192.809C241.588 192.701 241.58 192.52 241.41 192.403L236.658 189.494C236.556 189.441 236.443 189.413 236.33 189.413C236.216 189.413 236.104 189.441 236.002 189.494L231.888 192.014C231.718 192.123 231.727 192.303 231.888 192.412L236.641 195.329C236.748 195.375 236.863 195.395 236.979 195.385C237.094 195.376 237.206 195.338 237.305 195.275V195.32ZM203.64 224.221L207.745 221.701C207.924 221.592 207.907 221.421 207.745 221.303L202.993 218.395C202.891 218.34 202.779 218.311 202.665 218.311C202.551 218.311 202.438 218.34 202.337 218.395L198.206 220.906C198.028 221.014 198.045 221.186 198.206 221.303L202.959 224.212C203.069 224.278 203.194 224.313 203.322 224.311C203.449 224.31 203.573 224.272 203.682 224.203L203.64 224.221ZM230.16 207.566C230.262 207.62 230.374 207.648 230.487 207.648C230.601 207.648 230.713 207.62 230.815 207.566L234.929 205.056C235.099 204.947 235.091 204.767 234.929 204.649L230.177 201.741C230.075 201.688 229.962 201.66 229.849 201.66C229.735 201.66 229.623 201.688 229.521 201.741L225.416 204.261C225.237 204.369 225.246 204.55 225.416 204.658L230.16 207.566ZM173.611 242.582L177.716 240.071C177.895 239.963 177.887 239.782 177.716 239.664L172.964 236.756C172.862 236.703 172.75 236.675 172.636 236.675C172.523 236.675 172.41 236.703 172.308 236.756L168.195 239.267C168.025 239.375 168.033 239.556 168.195 239.674L172.947 242.582C173.05 242.637 173.164 242.665 173.279 242.665C173.395 242.665 173.508 242.637 173.611 242.582ZM179.615 238.906L183.729 236.395C183.899 236.287 183.891 236.106 183.729 235.989L178.985 233.081C178.884 233.025 178.771 232.996 178.657 232.996C178.543 232.996 178.431 233.025 178.329 233.081L174.216 235.591C174.046 235.7 174.054 235.88 174.216 235.998L178.968 238.906C179.069 238.958 179.18 238.985 179.292 238.985C179.404 238.985 179.515 238.958 179.615 238.906ZM167.607 246.258L171.712 243.747C171.891 243.638 171.883 243.458 171.712 243.34L166.969 240.432C166.867 240.379 166.755 240.351 166.641 240.351C166.527 240.351 166.415 240.379 166.313 240.432L162.2 242.943C162.029 243.051 162.038 243.232 162.2 243.349L166.952 246.258C167.053 246.313 167.165 246.342 167.28 246.342C167.394 246.342 167.506 246.313 167.607 246.258ZM191.623 231.554L195.737 229.043C195.907 228.935 195.899 228.754 195.737 228.637L190.985 225.729C190.883 225.675 190.77 225.648 190.657 225.648C190.543 225.648 190.431 225.675 190.329 225.729L186.224 228.249C186.045 228.357 186.054 228.538 186.224 228.646L190.976 231.554C191.076 231.608 191.187 231.636 191.3 231.636C191.412 231.636 191.523 231.608 191.623 231.554ZM185.662 235.23L189.775 232.719C189.946 232.611 189.937 232.43 189.775 232.313L184.947 229.405C184.845 229.349 184.733 229.32 184.619 229.32C184.505 229.32 184.392 229.349 184.291 229.405L180.186 231.915C180.007 232.024 180.016 232.204 180.186 232.313L184.938 235.23C185.043 235.288 185.16 235.318 185.279 235.318C185.397 235.318 185.514 235.288 185.619 235.23H185.662ZM197.67 227.878L201.783 225.359C201.954 225.259 201.945 225.079 201.783 224.961L197.031 222.053C196.93 221.998 196.817 221.969 196.703 221.969C196.589 221.969 196.477 221.998 196.375 222.053L192.202 224.519C192.024 224.627 192.041 224.808 192.202 224.916L196.946 227.824C197.046 227.893 197.161 227.934 197.28 227.943C197.399 227.953 197.519 227.93 197.627 227.878H197.67ZM225.144 173.481C225.245 173.537 225.357 173.566 225.471 173.566C225.585 173.566 225.698 173.537 225.799 173.481L229.913 170.962C230.083 170.862 230.074 170.682 229.913 170.564L228.652 169.788C228.55 169.734 228.438 169.706 228.324 169.706C228.211 169.706 228.098 169.734 227.996 169.788L223.883 172.298C223.713 172.407 223.721 172.587 223.883 172.705L225.144 173.481ZM195.6 193.712C195.702 193.768 195.814 193.796 195.928 193.796C196.042 193.796 196.155 193.768 196.256 193.712L200.361 191.201C200.54 191.093 200.531 190.912 200.361 190.795L195.609 187.887C195.507 187.833 195.395 187.806 195.281 187.806C195.167 187.806 195.055 187.833 194.953 187.887L190.84 190.398C190.67 190.506 190.678 190.687 190.84 190.804L195.6 193.712ZM207.608 186.36C207.71 186.414 207.823 186.442 207.936 186.442C208.05 186.442 208.162 186.414 208.264 186.36L212.378 183.85C212.548 183.741 212.539 183.561 212.378 183.443L207.625 180.535C207.524 180.48 207.412 180.451 207.298 180.451C207.184 180.451 207.071 180.48 206.97 180.535L202.831 183.046C202.652 183.154 202.66 183.335 202.831 183.452L207.608 186.36ZM188.268 198.201C188.37 198.254 188.482 198.282 188.596 198.282C188.71 198.282 188.822 198.254 188.924 198.201L193.029 195.681C193.207 195.573 193.199 195.392 193.029 195.284L188.276 192.366C188.175 192.313 188.062 192.285 187.949 192.285C187.835 192.285 187.723 192.313 187.621 192.366L183.507 194.877C183.337 194.986 183.346 195.166 183.507 195.284L188.268 198.201ZM201.604 190.072C201.706 190.126 201.819 190.154 201.932 190.154C202.046 190.154 202.158 190.126 202.26 190.072L206.374 187.562C206.544 187.453 206.535 187.273 206.374 187.155L201.621 184.247C201.52 184.194 201.407 184.166 201.294 184.166C201.18 184.166 201.068 184.194 200.966 184.247L196.861 186.758C196.682 186.866 196.691 187.047 196.861 187.164L201.604 190.072ZM176.217 205.552C176.319 205.608 176.431 205.637 176.545 205.637C176.659 205.637 176.772 205.608 176.873 205.552L180.978 203.033C181.157 202.924 181.14 202.744 180.978 202.635L176.234 199.727C176.133 199.672 176.021 199.643 175.907 199.643C175.792 199.643 175.68 199.672 175.579 199.727L171.465 202.247C171.295 202.346 171.304 202.527 171.465 202.644L176.217 205.552ZM182.221 201.877C182.323 201.93 182.436 201.958 182.549 201.958C182.663 201.958 182.775 201.93 182.877 201.877L186.982 199.357C187.161 199.248 187.152 199.068 186.982 198.959L182.238 196.051C182.137 195.996 182.025 195.967 181.911 195.967C181.796 195.967 181.684 195.996 181.583 196.051L177.469 198.571C177.299 198.67 177.307 198.851 177.469 198.968L182.221 201.877ZM213.093 180.842C213.195 180.896 213.307 180.923 213.421 180.923C213.535 180.923 213.647 180.896 213.749 180.842L217.862 178.331C218.032 178.223 218.024 178.042 217.862 177.925L216.593 177.148C216.491 177.095 216.379 177.067 216.265 177.067C216.152 177.067 216.039 177.095 215.937 177.148L211.833 179.659C211.654 179.767 211.671 179.948 211.833 180.065L213.093 180.842ZM231.113 169.806C231.213 169.861 231.324 169.89 231.437 169.89C231.55 169.89 231.661 169.861 231.761 169.806L235.874 167.286C236.044 167.177 236.036 167.006 235.874 166.888L234.614 166.112C234.512 166.056 234.4 166.027 234.286 166.027C234.172 166.027 234.059 166.056 233.958 166.112L229.844 168.622C229.674 168.731 229.683 168.911 229.844 169.029L231.113 169.806ZM241.086 175.92C241.188 175.973 241.3 176.001 241.414 176.001C241.528 176.001 241.64 175.973 241.742 175.92L245.855 173.4C246.025 173.292 246.017 173.111 245.855 173.003L241.103 170.086C241.001 170.032 240.889 170.004 240.775 170.004C240.661 170.004 240.549 170.032 240.447 170.086L236.342 172.596C236.164 172.705 236.181 172.885 236.342 173.003L241.086 175.92ZM256.1 192.077L260.214 189.558C260.384 189.458 260.375 189.278 260.214 189.16L255.461 186.252C255.36 186.199 255.247 186.171 255.134 186.171C255.02 186.171 254.908 186.199 254.806 186.252L250.701 188.772C250.522 188.88 250.531 189.061 250.701 189.169L255.453 192.077C255.553 192.131 255.664 192.159 255.777 192.159C255.889 192.159 256 192.131 256.1 192.077ZM219.097 177.166C219.199 177.22 219.311 177.247 219.425 177.247C219.539 177.247 219.651 177.22 219.753 177.166L223.866 174.656C224.036 174.547 224.028 174.367 223.866 174.249L222.597 173.472C222.495 173.419 222.383 173.391 222.269 173.391C222.156 173.391 222.043 173.419 221.941 173.472L217.837 175.983C217.666 176.092 217.675 176.272 217.837 176.39L219.097 177.166ZM170.213 209.228C170.315 209.284 170.427 209.313 170.541 209.313C170.655 209.313 170.768 209.284 170.869 209.228L174.974 206.708C175.144 206.6 175.136 206.428 174.974 206.311L170.222 203.403C170.121 203.347 170.008 203.319 169.894 203.319C169.78 203.319 169.668 203.347 169.566 203.403L165.461 205.923C165.291 206.031 165.3 206.203 165.461 206.32L170.213 209.228Z" fill="#455A64"/>
<path d="M194.63 248.813L239.596 221.276L267.274 238.219L222.299 265.756L194.63 248.813Z" fill="#263238"/>
<path d="M94.6738 110.053L228.686 28.0016C231.301 26.394 233.447 27.7126 233.447 30.9188V140.986C233.404 141.8 233.181 142.592 232.796 143.298C232.412 144.004 231.876 144.604 231.233 145.05L93.8222 229.188C92.6043 229.929 91.6079 229.323 91.6079 227.833V115.68C91.6691 114.553 91.9783 113.457 92.5107 112.48C93.0431 111.503 93.7839 110.672 94.6738 110.053Z" fill="#F5F5F5"/>
<path d="M233.489 33.5567V30.9194C233.489 27.7133 231.343 26.4037 228.729 28.0023L94.6738 110.054C93.7839 110.673 93.0431 111.504 92.5107 112.481C91.9783 113.458 91.6691 114.554 91.6079 115.68V120.404L233.489 33.5567Z" fill="#F03E3D"/>
<path d="M213.493 39.5621C213.015 39.8924 212.617 40.3376 212.331 40.8618C212.045 41.386 211.88 41.9742 211.85 42.5787C211.85 43.6896 212.582 44.1411 213.493 43.5812C213.97 43.2519 214.366 42.8079 214.651 42.2852C214.935 41.7626 215.098 41.1761 215.128 40.5737C215.128 39.4628 214.396 39.0112 213.493 39.5621Z" fill="white"/>
<path d="M219.999 35.5787C219.523 35.9099 219.126 36.3556 218.842 36.8797C218.558 37.4038 218.394 37.9915 218.364 38.5952C218.364 39.7061 219.097 40.1486 219.999 39.5977C220.478 39.2675 220.876 38.8222 221.162 38.2981C221.447 37.7739 221.612 37.1857 221.643 36.5812C221.643 35.4703 220.911 35.0187 219.999 35.5787Z" fill="white"/>
<path d="M226.514 31.587C226.037 31.9188 225.64 32.3645 225.355 32.8883C225.069 33.4122 224.903 33.9996 224.871 34.6036C224.871 35.7145 225.612 36.166 226.514 35.6061C226.992 35.2773 227.39 34.8335 227.675 34.3109C227.961 33.7884 228.126 33.2017 228.158 32.5986C228.158 31.4877 227.417 31.0361 226.514 31.587Z" fill="white"/>
<path d="M124.7 174.291L119.486 171.099L106.716 194.555L111.93 197.748L124.7 174.291Z" fill="#37474F"/>
<path d="M124.71 174.284L122.107 172.69L109.337 196.147L111.94 197.741L124.71 174.284Z" fill="#263238"/>
<path d="M92.7152 240.36C90.3392 244.74 79.0892 237.786 81.4567 233.469L110.795 184.942C110.874 184.811 110.998 184.717 111.141 184.68C111.284 184.643 111.435 184.666 111.562 184.744L117.455 188.356C117.582 188.432 117.676 188.558 117.717 188.706C117.759 188.854 117.744 189.014 117.676 189.151L92.7152 240.36Z" fill="#11B5E4"/>
<path opacity="0.1" d="M92.7153 240.36L117.668 189.151C117.735 189.014 117.75 188.855 117.709 188.706C117.668 188.558 117.573 188.433 117.447 188.356L114.764 186.713L86.1577 240.64C88.7637 242.004 91.6422 242.338 92.7153 240.36Z" fill="black"/>
<path d="M178.985 126.12C178.985 125.75 178.985 125.388 178.934 125.027C178.883 124.666 178.934 124.314 178.857 123.961C178.781 123.609 178.857 123.492 178.789 123.257C178.73 122.643 178.644 122.038 178.551 121.451C178.508 121.189 178.466 120.918 178.415 120.656C178.363 120.394 178.321 120.159 178.27 119.915C178.125 119.247 177.972 118.597 177.793 117.974C177.699 117.676 177.614 117.377 177.52 117.07C177.502 117.027 177.488 116.981 177.478 116.935C177.376 116.646 177.282 116.366 177.18 116.095C177.077 115.824 176.941 115.463 176.805 115.192C176.669 114.921 176.618 114.749 176.507 114.533C176.445 114.37 176.371 114.213 176.285 114.063C176.2 113.873 176.107 113.684 176.004 113.503C175.902 113.322 175.962 113.413 175.936 113.377C175.911 113.34 175.757 113.051 175.664 112.889C175.57 112.726 175.536 112.681 175.476 112.582C175.04 111.853 174.55 111.161 174.012 110.514L173.739 110.188L173.509 109.936C173.415 109.827 173.313 109.728 173.211 109.619C172.944 109.321 172.659 109.041 172.359 108.779C172.215 108.644 172.061 108.518 171.908 108.4L171.44 108.039C171.196 107.85 170.943 107.675 170.682 107.515L170.477 107.38H170.435L158.367 99.9918L158.299 99.9466C155.984 98.5773 153.37 97.8766 150.72 97.9145C146.768 97.9145 142.305 99.2873 137.579 102.177C121.347 112.112 108.181 136.299 108.181 156.186C108.181 166.121 111.451 173.075 116.74 176.344H116.791L128.867 183.723H128.918L129.063 183.804C129.289 183.946 129.522 184.076 129.761 184.193C130.05 184.346 130.349 184.482 130.613 184.608C130.877 184.735 131.149 184.834 131.422 184.924L131.856 185.06C132.008 185.122 132.165 185.17 132.324 185.204C132.481 185.255 132.64 185.297 132.801 185.331C132.916 185.366 133.032 185.394 133.15 185.412C133.355 185.457 133.576 185.502 133.789 185.529C133.837 185.538 133.886 185.538 133.934 185.529C134.189 185.578 134.445 185.614 134.7 185.638C139.078 186.126 144.171 184.816 149.621 181.483C165.862 171.549 179.028 147.353 179.028 127.475C178.985 127.059 178.985 126.59 178.985 126.12ZM159.287 112.058C159.925 114.529 160.237 117.082 160.215 119.644C160.215 137.184 148.114 159.383 133.815 168.18C131.725 169.498 129.468 170.492 127.112 171.133C126.478 168.658 126.166 166.103 126.184 163.538C126.184 145.998 138.286 123.799 152.585 115.002C154.667 113.689 156.915 112.698 159.261 112.058H159.287Z" fill="#11B5E4"/>
<path opacity="0.1" d="M128.373 183.471L116.646 176.3C111.357 173.021 108.087 166.049 108.087 156.15C108.087 147.281 110.71 137.563 115.045 128.64L127.121 136.01C122.778 144.933 120.163 154.651 120.163 163.52C120.163 173.238 123.28 180.111 128.373 183.471Z" fill="black"/>
<path opacity="0.4" d="M178.985 126.12C178.985 125.75 178.985 125.389 178.934 125.027C178.883 124.666 178.934 124.314 178.858 123.962C178.781 123.609 178.858 123.492 178.789 123.257C178.73 122.643 178.645 122.038 178.551 121.451C178.508 121.189 178.466 120.918 178.415 120.656C178.364 120.394 178.321 120.159 178.27 119.916C178.125 119.247 177.972 118.597 177.793 117.974C177.699 117.676 177.614 117.378 177.521 117.071C177.503 117.027 177.488 116.982 177.478 116.935C177.376 116.646 177.282 116.366 177.18 116.095C177.078 115.824 176.941 115.463 176.805 115.192C176.669 114.921 176.618 114.75 176.507 114.533C176.445 114.37 176.371 114.213 176.286 114.063C176.201 113.873 176.107 113.684 176.005 113.503C175.902 113.323 175.962 113.413 175.937 113.377C175.911 113.341 175.758 113.052 175.664 112.889C175.57 112.726 175.536 112.681 175.477 112.582C175.04 111.853 174.55 111.161 174.012 110.514L173.739 110.189L173.509 109.936C173.416 109.827 173.313 109.728 173.211 109.62C172.944 109.321 172.659 109.041 172.36 108.78C172.215 108.644 172.062 108.518 171.908 108.4L171.44 108.039C171.197 107.85 170.943 107.675 170.682 107.515C165.342 104.074 157.908 104.481 149.638 109.529C133.398 119.464 120.231 143.65 120.231 163.538C120.231 173.608 123.638 180.644 129.046 183.841C129.272 183.983 129.505 184.112 129.744 184.229C130.034 184.383 130.332 184.518 130.596 184.645C130.86 184.771 131.132 184.87 131.405 184.961L131.839 185.096C131.991 185.158 132.148 185.206 132.308 185.241C132.464 185.291 132.624 185.333 132.784 185.367C132.899 185.403 133.016 185.43 133.134 185.448C133.338 185.493 133.559 185.539 133.772 185.566C133.82 185.574 133.869 185.574 133.917 185.566C134.173 185.614 134.428 185.65 134.684 185.674C139.061 186.162 144.154 184.852 149.604 181.52C165.845 171.585 179.011 147.389 179.011 127.511C178.985 127.059 178.985 126.59 178.985 126.12ZM146.623 176.074C142.978 178.304 139.47 179.479 136.472 179.479C130.843 179.479 128.254 175.405 127.104 171.133C126.47 168.658 126.158 166.103 126.176 163.538C126.176 145.999 138.277 123.799 152.576 115.002C154.667 113.687 156.924 112.696 159.279 112.058C160.393 111.765 161.537 111.611 162.685 111.598C171.993 111.598 172.99 122.742 172.99 127.538C173.024 145.041 160.922 167.304 146.623 176.074Z" fill="white"/>
<path opacity="0.1" d="M173.024 127.538C173.024 145.077 160.931 167.277 146.623 176.073C142.978 178.304 139.47 179.478 136.472 179.478C130.843 179.478 128.254 175.405 127.104 171.133C129.459 170.492 131.716 169.497 133.806 168.18C148.131 159.41 160.207 137.183 160.207 119.644C160.229 117.082 159.916 114.529 159.279 112.058C160.393 111.765 161.537 111.61 162.685 111.597C172.019 111.624 173.024 122.742 173.024 127.538Z" fill="black"/>
<path opacity="0.7" d="M167.914 124.476C167.914 142.015 155.821 164.215 141.513 173.012C137.868 175.242 134.36 176.416 131.362 176.416C130.766 176.418 130.17 176.367 129.582 176.263C128.431 174.755 127.593 173.007 127.121 171.133C126.487 168.658 126.174 166.102 126.193 163.538C126.193 145.998 138.294 123.799 152.593 115.002C154.684 113.687 156.94 112.695 159.295 112.058C160.41 111.765 161.553 111.61 162.702 111.597C163.301 111.596 163.899 111.647 164.49 111.751C167.437 115.427 167.914 121.324 167.914 124.476Z" fill="white"/>
<path d="M188.498 106.206V126.202C188.498 127.701 189.494 128.306 190.712 127.556L314.284 51.8992C314.927 51.4531 315.463 50.8529 315.848 50.147C316.232 49.441 316.455 48.649 316.498 47.835V27.8121C316.498 26.3128 315.501 25.7077 314.284 26.4573L190.712 102.114C190.066 102.564 189.528 103.168 189.144 103.879C188.759 104.59 188.538 105.387 188.498 106.206Z" fill="#E6E6E6"/>
<path d="M190.712 102.114L212.718 88.6482V114.063L190.712 127.529C189.494 128.279 188.498 127.673 188.498 126.174V106.205C188.538 105.387 188.759 104.59 189.144 103.879C189.528 103.168 190.066 102.563 190.712 102.114Z" fill="#BA68C8"/>
<path d="M205.437 99.7395C204.049 98.8906 202.294 99.026 200.498 100.128C198.79 101.288 197.369 102.865 196.354 104.727C195.339 106.589 194.76 108.682 194.664 110.83C194.604 112.223 195.018 113.591 195.831 114.687L193.463 118.986C193.309 119.293 193.271 119.652 193.359 119.988C193.446 120.324 193.651 120.611 193.931 120.792C194.127 120.908 194.346 120.97 194.57 120.973C194.795 120.973 195.015 120.91 195.209 120.791C195.404 120.672 195.565 120.501 195.677 120.295L198.019 115.996C198.272 116.047 198.529 116.074 198.786 116.078C199.831 116.057 200.853 115.746 201.749 115.174C203.454 114.011 204.872 112.434 205.885 110.572C206.898 108.71 207.478 106.619 207.575 104.472C207.6 102.277 206.834 100.598 205.437 99.7395ZM200.498 112.835C200.198 113.177 199.799 113.4 199.364 113.47C198.93 113.539 198.486 113.45 198.105 113.217C197.725 112.984 197.43 112.622 197.269 112.188C197.108 111.754 197.09 111.276 197.219 110.83C197.318 109.159 197.781 107.535 198.572 106.086C199.362 104.636 200.459 103.401 201.775 102.476C202.286 102.131 202.873 101.935 203.478 101.907C203.728 101.897 203.975 101.96 204.194 102.088C204.514 102.378 204.76 102.75 204.909 103.168C205.058 103.587 205.105 104.038 205.045 104.481C204.947 106.151 204.485 107.775 203.696 109.224C202.907 110.674 201.812 111.91 200.498 112.835Z" fill="white"/>
</svg>
